<svg width="412" height="225" viewBox="0 0 412 225" fill="none" xmlns="http://www.w3.org/2000/svg">
<g clip-path="url(#clip0)">
<path d="M160.295 44.7468L142.458 66.8438L156.675 42.2072C154.504 40.8728 152.197 39.7752 149.792 38.933C150.271 34.0884 149.748 29.1969 148.254 24.5634C146.76 19.93 144.329 15.6539 141.11 12.0016C137.892 8.34932 133.956 5.39915 129.548 3.33493C125.14 1.27071 120.353 0.136683 115.488 0.003529C110.622 -0.129625 105.781 0.740945 101.267 2.56098C96.7525 4.38102 92.6612 7.11151 89.248 10.5823C85.8348 14.0531 83.1729 18.1898 81.4281 22.7346C79.6834 27.2794 78.8932 32.135 79.1068 36.9986L111.324 39.1184L79.6734 41.9623C80.5654 46.7124 82.4176 51.2302 85.1166 55.2392C87.8156 59.2481 91.3045 62.6637 95.3695 65.2767L113.007 53.8311L98.3388 66.9837C99.7939 67.7327 101.299 68.3802 102.843 68.9216C102.066 76.8311 103.969 84.7725 108.246 91.4703C112.524 98.1681 118.928 103.234 126.43 105.854C125.832 111.893 126.795 117.985 129.226 123.546C131.657 129.107 135.474 133.951 140.313 137.613C145.152 141.275 150.85 143.634 156.861 144.462C162.872 145.291 168.995 144.562 174.644 142.345C174.958 143.734 175.513 145.056 176.284 146.252C177.383 148.014 178.932 149.45 180.772 150.412C180.89 152.482 181.538 154.487 182.653 156.235C183.768 157.983 185.313 159.415 187.14 160.395C187.261 162.464 187.91 164.468 189.025 166.215C190.14 167.962 191.683 169.394 193.509 170.375C193.628 172.445 194.275 174.45 195.389 176.199C196.504 177.947 198.048 179.38 199.874 180.362C199.973 182.435 200.623 184.444 201.756 186.182C204.634 190.691 209.761 192.566 213.206 190.38C216.651 188.194 217.109 182.744 214.231 178.231C213.133 176.47 211.587 175.032 209.751 174.065C209.631 171.993 208.982 169.986 207.865 168.236C206.748 166.486 205.201 165.052 203.372 164.071C203.251 162.002 202.602 159.998 201.486 158.25C200.371 156.503 198.826 155.071 196.999 154.092C196.881 152.022 196.233 150.018 195.117 148.27C194.002 146.523 192.457 145.091 190.631 144.112C190.531 142.038 189.88 140.029 188.746 138.291C188 137.104 187.053 136.055 185.948 135.192C190.391 131.022 193.684 125.776 195.509 119.962C197.334 114.148 197.63 107.961 196.368 102C195.105 96.0379 192.327 90.5023 188.302 85.9275C184.277 81.3526 179.14 77.893 173.389 75.8827C173.966 70.0141 173.071 64.0941 170.785 58.6583C168.5 53.2225 164.895 48.4424 160.298 44.7503L160.295 44.7468Z" fill="#F2F2F2"/>
<path d="M233.473 27.0083L230.291 29.0266L232.225 25.5111C231.678 25.0694 231 24.8231 230.298 24.8115H230.249C230.027 24.8146 229.806 24.7982 229.588 24.7625L228.507 25.4621L228.972 24.6191C228.208 24.3528 227.547 23.8521 227.084 23.1884L225.153 24.4127L226.374 22.195C225.86 21.532 225.205 20.9916 224.457 20.6128C223.709 20.2341 222.886 20.0266 222.047 20.0052C220.036 20.0052 218.249 21.2015 217.095 23.0625C216.752 23.6168 216.269 24.0705 215.694 24.3777C215.119 24.6848 214.473 24.8345 213.822 24.8115H213.713C211.496 24.8115 209.698 27.3266 209.698 30.4083C209.698 33.4901 211.496 36.0227 213.713 36.0227C214.201 36.021 214.681 35.9009 215.112 35.6729C215.867 35.3062 216.692 35.1078 217.531 35.0915C218.369 35.0752 219.202 35.2413 219.97 35.5784C220.62 35.8679 221.324 36.0174 222.035 36.0174C222.747 36.0174 223.45 35.8679 224.1 35.5784C224.863 35.2481 225.688 35.0856 226.519 35.1018C227.349 35.1181 228.167 35.3129 228.916 35.6729C229.347 35.9011 229.827 36.0211 230.315 36.0227C232.533 36.0227 234.33 33.5111 234.33 30.4083C234.334 29.2211 234.039 28.0521 233.473 27.0083Z" fill="#F2F2F2"/>
<path opacity="0.03" d="M227.475 35.2251C226.318 35.0064 225.121 35.1367 224.037 35.5994C223.387 35.8888 222.684 36.0384 221.972 36.0384C221.261 36.0384 220.557 35.8888 219.907 35.5994C219.138 35.2623 218.305 35.0961 217.466 35.1124C216.627 35.1287 215.801 35.3271 215.046 35.6939C214.615 35.9229 214.135 36.043 213.647 36.0437C211.674 36.0437 210.037 34.0603 209.695 31.4438C210.087 31.1596 210.422 30.8035 210.681 30.3944C211.835 28.5334 213.626 27.3406 215.633 27.3406C217.641 27.3406 219.407 28.5194 220.561 30.3594C220.905 30.9159 221.388 31.374 221.961 31.689C222.535 32.0041 223.18 32.1654 223.835 32.1574H223.887C225.457 32.1329 226.804 33.3922 227.475 35.2251Z" fill="black"/>
<path d="M351.334 13.366L348.152 15.3843L350.086 11.8688C349.54 11.4271 348.861 11.1808 348.159 11.1692H348.11C347.888 11.1723 347.667 11.1559 347.449 11.1202L346.368 11.8198L346.833 10.9768C346.069 10.7105 345.408 10.2098 344.945 9.54612L343.014 10.7704L344.235 8.55268C343.721 7.88969 343.066 7.34926 342.318 6.97053C341.57 6.5918 340.747 6.38426 339.908 6.36292C337.897 6.36292 336.11 7.55924 334.956 9.42019C334.613 9.97448 334.13 10.4282 333.555 10.7354C332.98 11.0425 332.334 11.1922 331.683 11.1692H331.574C329.357 11.1692 327.559 13.6843 327.559 16.766C327.559 19.8478 329.357 22.3804 331.574 22.3804C332.062 22.3787 332.542 22.2586 332.973 22.0306C333.728 21.6639 334.553 21.4655 335.392 21.4492C336.23 21.4329 337.063 21.599 337.831 21.9361C338.481 22.2256 339.185 22.3751 339.896 22.3751C340.608 22.3751 341.311 22.2256 341.961 21.9361C342.724 21.6058 343.549 21.4432 344.38 21.4595C345.211 21.4758 346.028 21.6706 346.777 22.0306C347.208 22.2588 347.688 22.3788 348.176 22.3804C350.394 22.3804 352.191 19.8688 352.191 16.766C352.195 15.5788 351.9 14.4098 351.334 13.366Z" fill="#F2F2F2"/>
<path opacity="0.03" d="M345.336 21.5828C344.179 21.3641 342.982 21.4944 341.898 21.9571C341.248 22.2465 340.545 22.3961 339.833 22.3961C339.122 22.3961 338.418 22.2465 337.768 21.9571C336.999 21.6199 336.166 21.4538 335.327 21.4701C334.488 21.4864 333.662 21.6848 332.907 22.0516C332.476 22.2806 331.996 22.4006 331.508 22.4014C329.535 22.4014 327.899 20.418 327.556 17.8015C327.948 17.5173 328.283 17.1612 328.542 16.752C329.696 14.8911 331.487 13.6983 333.494 13.6983C335.502 13.6983 337.268 14.8771 338.422 16.7171C338.766 17.2736 339.249 17.7317 339.822 18.0467C340.396 18.3618 341.041 18.5231 341.696 18.5151H341.748C343.318 18.4906 344.665 19.7499 345.336 21.5828Z" fill="black"/>
<path d="M272.738 46.3873L277.865 49.6475L274.76 43.9981C275.64 43.297 276.729 42.9093 277.855 42.8963H277.935C278.287 42.9015 278.638 42.8758 278.984 42.8193L280.716 43.9177L279.964 42.5675C281.19 42.1361 282.251 41.3312 282.996 40.2658L286.098 42.2316L284.161 38.6672C285.976 36.4914 288.42 35.1691 291.11 35.1691C294.338 35.1691 297.209 37.086 299.066 40.0664C299.613 40.9594 300.387 41.6921 301.308 42.1903C302.229 42.6884 303.266 42.9344 304.312 42.9033H304.487C308.047 42.9033 310.933 46.94 310.933 51.9212C310.933 56.9024 308.047 60.9426 304.487 60.9426C303.703 60.9395 302.931 60.7463 302.238 60.3794C301.026 59.7904 299.701 59.4719 298.354 59.4459C297.006 59.42 295.67 59.6872 294.436 60.229C293.39 60.6963 292.258 60.9379 291.113 60.9379C289.968 60.9379 288.836 60.6963 287.791 60.229C286.566 59.6982 285.241 59.437 283.906 59.463C282.572 59.4889 281.258 59.8014 280.055 60.3794C279.369 60.7365 278.607 60.9248 277.834 60.9286C274.27 60.9286 271.385 56.8919 271.385 51.9072C271.366 49.9828 271.831 48.0845 272.738 46.3873Z" fill="#F2F2F2"/>
<path opacity="0.03" d="M282.373 59.5994C284.234 59.2486 286.157 59.458 287.899 60.201C288.945 60.6684 290.077 60.9099 291.222 60.9099C292.367 60.9099 293.499 60.6684 294.544 60.201C295.779 59.6591 297.116 59.3919 298.464 59.4179C299.812 59.4439 301.138 59.7624 302.35 60.3514C303.042 60.7183 303.813 60.9116 304.596 60.9146C307.761 60.9146 310.391 57.7279 310.94 53.5233C310.308 53.061 309.772 52.4814 309.359 51.8162C307.502 48.8289 304.631 46.919 301.403 46.919C298.174 46.919 295.342 48.8149 293.484 51.7743C292.932 52.6658 292.159 53.3998 291.24 53.9053C290.321 54.4108 289.287 54.6708 288.238 54.6601H288.158C285.619 54.6357 283.437 56.6575 282.373 59.5994Z" fill="black"/>
<path d="M205.82 225C319.491 225 411.639 221.711 411.639 217.654C411.639 213.597 319.491 210.308 205.82 210.308C92.1486 210.308 0 213.597 0 217.654C0 221.711 92.1486 225 205.82 225Z" fill="#3F3D56"/>
<path d="M344.518 54.5587H67.1213C63.1771 54.5587 59.9797 57.7567 59.9797 61.7017V206.926C59.9797 210.871 63.1771 214.069 67.1213 214.069H344.518C348.462 214.069 351.66 210.871 351.66 206.926V61.7017C351.66 57.7567 348.462 54.5587 344.518 54.5587Z" fill="#F2F2F2"/>
<path d="M351.66 61.7017V65.7524H59.9797V61.7017C59.9797 59.8073 60.7322 57.9904 62.0715 56.6509C63.4108 55.3113 65.2273 54.5587 67.1213 54.5587H344.518C346.412 54.5587 348.229 55.3113 349.568 56.6509C350.907 57.9904 351.66 59.8073 351.66 61.7017Z" fill="#3F3D56"/>
<path d="M67.4991 62.4293C68.658 62.4293 69.5975 61.4896 69.5975 60.3304C69.5975 59.1713 68.658 58.2316 67.4991 58.2316C66.3401 58.2316 65.4006 59.1713 65.4006 60.3304C65.4006 61.4896 66.3401 62.4293 67.4991 62.4293Z" fill="#00B0FF"/>
<path d="M72.7451 62.4293C73.904 62.4293 74.8435 61.4896 74.8435 60.3304C74.8435 59.1713 73.904 58.2316 72.7451 58.2316C71.5862 58.2316 70.6467 59.1713 70.6467 60.3304C70.6467 61.4896 71.5862 62.4293 72.7451 62.4293Z" fill="#00B0FF"/>
<path d="M77.9911 62.4293C79.1501 62.4293 80.0896 61.4896 80.0896 60.3304C80.0896 59.1713 79.1501 58.2316 77.9911 58.2316C76.8322 58.2316 75.8927 59.1713 75.8927 60.3304C75.8927 61.4896 76.8322 62.4293 77.9911 62.4293Z" fill="#00B0FF"/>
<path d="M134.722 84.2919H107.645C105.851 84.2919 104.396 85.7469 104.396 87.5416V108.327C104.396 110.122 105.851 111.577 107.645 111.577H134.722C136.516 111.577 137.971 110.122 137.971 108.327V87.5416C137.971 85.7469 136.516 84.2919 134.722 84.2919Z" fill="white"/>
<path d="M173.892 84.2919H146.816C145.021 84.2919 143.567 85.7469 143.567 87.5416V108.327C143.567 110.122 145.021 111.577 146.816 111.577H173.892C175.687 111.577 177.141 110.122 177.141 108.327V87.5416C177.141 85.7469 175.687 84.2919 173.892 84.2919Z" fill="#00B0FF"/>
<path d="M213.063 84.2919H185.986C184.192 84.2919 182.737 85.7469 182.737 87.5416V108.327C182.737 110.122 184.192 111.577 185.986 111.577H213.063C214.857 111.577 216.312 110.122 216.312 108.327V87.5416C216.312 85.7469 214.857 84.2919 213.063 84.2919Z" fill="white"/>
<path d="M252.233 84.2919H225.157C223.362 84.2919 221.908 85.7469 221.908 87.5416V108.327C221.908 110.122 223.362 111.577 225.157 111.577H252.233C254.028 111.577 255.482 110.122 255.482 108.327V87.5416C255.482 85.7469 254.028 84.2919 252.233 84.2919Z" fill="white"/>
<path d="M291.404 84.2919H264.327C262.533 84.2919 261.078 85.7469 261.078 87.5416V108.327C261.078 110.122 262.533 111.577 264.327 111.577H291.404C293.198 111.577 294.653 110.122 294.653 108.327V87.5416C294.653 85.7469 293.198 84.2919 291.404 84.2919Z" fill="#00B0FF"/>
<path d="M134.722 130.116H107.645C105.851 130.116 104.396 131.571 104.396 133.366V154.151C104.396 155.946 105.851 157.401 107.645 157.401H134.722C136.516 157.401 137.971 155.946 137.971 154.151V133.366C137.971 131.571 136.516 130.116 134.722 130.116Z" fill="white"/>
<path d="M173.892 130.116H146.816C145.021 130.116 143.567 131.571 143.567 133.366V154.151C143.567 155.946 145.021 157.401 146.816 157.401H173.892C175.687 157.401 177.141 155.946 177.141 154.151V133.366C177.141 131.571 175.687 130.116 173.892 130.116Z" fill="white"/>
<path d="M213.063 130.116H185.986C184.192 130.116 182.737 131.571 182.737 133.366V154.151C182.737 155.946 184.192 157.401 185.986 157.401H213.063C214.857 157.401 216.312 155.946 216.312 154.151V133.366C216.312 131.571 214.857 130.116 213.063 130.116Z" fill="#00B0FF"/>
<path d="M252.233 130.116H225.157C223.362 130.116 221.908 131.571 221.908 133.366V154.151C221.908 155.946 223.362 157.401 225.157 157.401H252.233C254.028 157.401 255.482 155.946 255.482 154.151V133.366C255.482 131.571 254.028 130.116 252.233 130.116Z" fill="white"/>
<path d="M291.404 130.116H264.327C262.533 130.116 261.078 131.571 261.078 133.366V154.151C261.078 155.946 262.533 157.401 264.327 157.401H291.404C293.198 157.401 294.653 155.946 294.653 154.151V133.366C294.653 131.571 293.198 130.116 291.404 130.116Z" fill="white"/>
<path d="M134.722 175.94H107.645C105.851 175.94 104.396 177.395 104.396 179.19V199.975C104.396 201.77 105.851 203.225 107.645 203.225H134.722C136.516 203.225 137.971 201.77 137.971 199.975V179.19C137.971 177.395 136.516 175.94 134.722 175.94Z" fill="white"/>
<path d="M173.892 175.94H146.816C145.021 175.94 143.567 177.395 143.567 179.19V199.975C143.567 201.77 145.021 203.225 146.816 203.225H173.892C175.687 203.225 177.141 201.77 177.141 199.975V179.19C177.141 177.395 175.687 175.94 173.892 175.94Z" fill="white"/>
<path d="M213.063 175.94H185.986C184.192 175.94 182.737 177.395 182.737 179.19V199.975C182.737 201.77 184.192 203.225 185.986 203.225H213.063C214.857 203.225 216.312 201.77 216.312 199.975V179.19C216.312 177.395 214.857 175.94 213.063 175.94Z" fill="white"/>
<path opacity="0.3" d="M252.233 175.94H225.157C223.362 175.94 221.908 177.395 221.908 179.19V199.975C221.908 201.77 223.362 203.225 225.157 203.225H252.233C254.028 203.225 255.482 201.77 255.482 199.975V179.19C255.482 177.395 254.028 175.94 252.233 175.94Z" fill="#00B0FF"/>
<path d="M291.404 175.94H264.327C262.533 175.94 261.078 177.395 261.078 179.19V199.975C261.078 201.77 262.533 203.225 264.327 203.225H291.404C293.198 203.225 294.653 201.77 294.653 199.975V179.19C294.653 177.395 293.198 175.94 291.404 175.94Z" fill="white"/>
<path d="M184.912 79.2688L183.143 77.4883C183.056 77.4002 182.952 77.3302 182.838 77.2825C182.723 77.2348 182.6 77.2102 182.477 77.2102C182.353 77.2102 182.23 77.2348 182.116 77.2825C182.001 77.3302 181.897 77.4002 181.81 77.4883L170.703 88.5035L166.006 83.7672C165.919 83.6799 165.816 83.6105 165.703 83.5632C165.589 83.5159 165.468 83.4915 165.345 83.4915C165.222 83.4915 165.1 83.5159 164.987 83.5632C164.873 83.6105 164.77 83.6799 164.684 83.7672L162.897 85.5337C162.721 85.7118 162.623 85.9518 162.623 86.2019C162.623 86.4519 162.721 86.6919 162.897 86.87L170.028 94.0584C170.206 94.234 170.446 94.3325 170.696 94.3325C170.946 94.3325 171.186 94.234 171.364 94.0584L184.912 80.605C185.001 80.5178 185.071 80.4138 185.119 80.2991C185.168 80.1844 185.192 80.0613 185.192 79.9369C185.192 79.8125 185.168 79.6894 185.119 79.5747C185.071 79.46 185.001 79.356 184.912 79.2688Z" fill="#3ACC6C"/>
<path d="M303.823 79.2688L302.053 77.4883C301.966 77.4002 301.862 77.3302 301.748 77.2825C301.633 77.2348 301.511 77.2102 301.387 77.2102C301.263 77.2102 301.14 77.2348 301.026 77.2825C300.911 77.3302 300.808 77.4002 300.721 77.4883L289.613 88.5035L284.916 83.7672C284.829 83.6799 284.727 83.6105 284.613 83.5632C284.5 83.5159 284.378 83.4915 284.255 83.4915C284.132 83.4915 284.01 83.5159 283.897 83.5632C283.783 83.6105 283.68 83.6799 283.594 83.7672L281.807 85.5337C281.631 85.7118 281.533 85.9518 281.533 86.2019C281.533 86.4519 281.631 86.6919 281.807 86.87L288.938 94.0584C289.116 94.234 289.356 94.3325 289.606 94.3325C289.856 94.3325 290.096 94.234 290.274 94.0584L303.823 80.605C303.911 80.5178 303.982 80.4138 304.03 80.2991C304.078 80.1844 304.103 80.0613 304.103 79.9369C304.103 79.8125 304.078 79.6894 304.03 79.5747C303.982 79.46 303.911 79.356 303.823 79.2688Z" fill="#3ACC6C"/>
<path d="M224.083 124.743L222.313 122.963C222.226 122.874 222.122 122.805 222.008 122.757C221.894 122.709 221.771 122.685 221.647 122.685C221.523 122.685 221.4 122.709 221.286 122.757C221.172 122.805 221.068 122.874 220.981 122.963L209.873 133.978L205.176 129.242C205.09 129.154 204.987 129.085 204.873 129.038C204.76 128.99 204.638 128.966 204.515 128.966C204.392 128.966 204.27 128.99 204.157 129.038C204.044 129.085 203.941 129.154 203.854 129.242L202.067 131.008C201.891 131.186 201.793 131.426 201.793 131.676C201.793 131.926 201.891 132.166 202.067 132.344L209.198 139.533C209.376 139.708 209.616 139.807 209.866 139.807C210.116 139.807 210.356 139.708 210.534 139.533L224.083 126.079C224.171 125.992 224.242 125.888 224.29 125.773C224.338 125.659 224.363 125.536 224.363 125.411C224.363 125.287 224.338 125.164 224.29 125.049C224.242 124.934 224.171 124.83 224.083 124.743Z" fill="#3ACC6C"/>
<path d="M262.904 172.316L261.134 170.536C261.047 170.448 260.943 170.378 260.829 170.33C260.714 170.282 260.592 170.258 260.468 170.258C260.344 170.258 260.221 170.282 260.107 170.33C259.992 170.378 259.889 170.448 259.801 170.536L248.694 181.551L243.997 176.815C243.91 176.727 243.807 176.658 243.694 176.611C243.581 176.563 243.459 176.539 243.336 176.539C243.213 176.539 243.091 176.563 242.978 176.611C242.864 176.658 242.761 176.727 242.675 176.815L240.888 178.564C240.712 178.742 240.614 178.982 240.614 179.232C240.614 179.482 240.712 179.722 240.888 179.9L248.019 187.088C248.197 187.264 248.437 187.362 248.687 187.362C248.937 187.362 249.177 187.264 249.355 187.088L262.904 173.635C263.077 173.46 263.175 173.223 263.175 172.976C263.175 172.729 263.077 172.492 262.904 172.316Z" fill="#3ACC6C"/>
<path d="M354.073 216.314C353.024 214.387 354.213 212.022 355.573 210.305C356.934 208.587 358.584 206.807 358.549 204.606C358.497 201.458 355.157 199.597 352.488 197.929C350.507 196.692 348.68 195.223 347.047 193.553C346.362 192.911 345.796 192.153 345.375 191.314C344.822 190.083 344.836 188.683 344.871 187.337C344.99 182.845 345.213 178.357 345.539 173.873" stroke="#3F3D56" stroke-width="4" stroke-miterlimit="10"/>
<path d="M340.468 173.628C340.505 172.806 340.749 172.006 341.177 171.303C341.605 170.6 342.203 170.016 342.916 169.605L344.014 171.781L343.979 169.147C344.505 168.993 345.052 168.927 345.599 168.951C346.565 168.998 347.495 169.331 348.273 169.906C349.05 170.482 349.64 171.275 349.967 172.186C350.295 173.096 350.345 174.083 350.112 175.022C349.879 175.961 349.373 176.81 348.658 177.462C347.943 178.114 347.051 178.539 346.094 178.684C345.138 178.829 344.16 178.688 343.284 178.278C342.408 177.868 341.673 177.207 341.172 176.38C340.671 175.552 340.426 174.595 340.468 173.628Z" fill="#57B894"/>
<path d="M349.211 206.856C349.726 207.854 350.569 208.645 351.597 209.095C352.625 209.546 353.778 209.63 354.86 209.332C355.943 209.035 356.891 208.374 357.544 207.461C358.198 206.547 358.518 205.437 358.45 204.316C358.383 203.195 357.932 202.131 357.174 201.303C356.415 200.475 355.395 199.932 354.285 199.767C353.174 199.601 352.04 199.822 351.073 200.393C350.106 200.964 349.365 201.85 348.974 202.903L352.041 205.397L348.666 204.617C348.667 205.396 348.854 206.163 349.211 206.856Z" fill="#57B894"/>
<path d="M351.66 197.324C352.866 197.386 354.053 197 354.992 196.24C355.931 195.48 356.557 194.4 356.748 193.207C356.938 192.014 356.682 190.792 356.026 189.777C355.371 188.762 354.364 188.025 353.198 187.708L353.226 189.729L352.114 187.529C351.47 187.498 350.826 187.594 350.22 187.812C349.613 188.03 349.055 188.366 348.578 188.8C348.102 189.234 347.715 189.758 347.442 190.342C347.168 190.926 347.012 191.558 346.984 192.202C346.955 192.769 347.026 193.336 347.193 193.878C347.492 194.843 348.081 195.692 348.881 196.309C349.68 196.925 350.651 197.28 351.66 197.324Z" fill="#57B894"/>
<path d="M339.727 189.394C340.48 189.421 341.23 189.275 341.917 188.965C342.605 188.655 343.211 188.191 343.69 187.608C344.168 187.026 344.506 186.34 344.676 185.606C344.847 184.871 344.845 184.107 344.671 183.373C344.498 182.639 344.157 181.955 343.676 181.375C343.195 180.794 342.587 180.332 341.898 180.026C341.209 179.719 340.459 179.576 339.705 179.607C338.952 179.638 338.216 179.842 337.555 180.204L338.422 182.583L336.638 180.869C335.683 181.744 335.113 182.963 335.054 184.258C335.031 184.713 335.072 185.169 335.177 185.612C335.419 186.653 335.995 187.585 336.816 188.268C337.638 188.951 338.66 189.346 339.727 189.394Z" fill="#57B894"/>
<path opacity="0.1" d="M341.126 174.936C342.259 175.059 343.36 175.412 344.497 175.482C345.634 175.552 346.882 175.283 347.603 174.398C347.987 173.922 348.183 173.32 348.509 172.799C348.819 172.315 349.244 171.915 349.747 171.634C350.043 172.253 350.205 172.928 350.224 173.614C350.243 174.3 350.117 174.983 349.855 175.617C349.593 176.251 349.201 176.824 348.704 177.297C348.206 177.77 347.615 178.133 346.968 178.362C346.322 178.592 345.634 178.683 344.95 178.63C344.266 178.577 343.6 178.38 342.997 178.053C342.394 177.726 341.866 177.276 341.448 176.732C341.029 176.188 340.73 175.562 340.569 174.894C340.756 174.901 340.941 174.915 341.126 174.936Z" fill="black"/>
<path opacity="0.1" d="M339.727 189.394C340.573 189.437 341.416 189.259 342.174 188.878C342.931 188.498 343.577 187.927 344.047 187.222C344.518 186.516 344.797 185.701 344.858 184.856C344.919 184.01 344.76 183.163 344.396 182.398C344.006 182.659 343.671 182.994 343.409 183.384C343.06 183.912 342.846 184.524 342.437 185.007C341.671 185.906 340.367 186.2 339.181 186.147C337.995 186.095 336.852 185.756 335.684 185.647C335.519 185.647 335.355 185.623 335.187 185.619C335.43 186.657 336.005 187.586 336.824 188.268C337.643 188.949 338.662 189.344 339.727 189.394Z" fill="black"/>
<path opacity="0.1" d="M351.66 197.324C352.498 197.366 353.334 197.192 354.086 196.818C354.838 196.445 355.481 195.884 355.954 195.19C356.427 194.495 356.713 193.691 356.785 192.855C356.858 192.018 356.714 191.177 356.367 190.411C355.96 190.678 355.604 191.015 355.318 191.408C354.937 191.947 354.699 192.566 354.269 193.063C353.44 193.986 352.048 194.312 350.796 194.284C349.544 194.256 348.407 193.958 347.2 193.864C347.496 194.83 348.083 195.682 348.882 196.301C349.68 196.92 350.65 197.278 351.66 197.324Z" fill="black"/>
<path opacity="0.1" d="M349.211 206.856C349.742 208.043 350.723 208.97 351.938 209.434C353.153 209.898 354.502 209.86 355.689 209.329C356.875 208.798 357.803 207.817 358.266 206.602C358.73 205.387 358.692 204.038 358.161 202.85C357.755 203.114 357.392 203.439 357.084 203.812C356.615 204.379 356.308 205.026 355.769 205.561C354.765 206.548 353.146 206.961 351.702 206.992C350.87 206.996 350.038 206.951 349.211 206.856Z" fill="black"/>
<path d="M361.477 214.093C361.477 214.093 357.602 213.974 356.434 213.142C355.265 212.309 350.488 211.319 350.187 212.652C349.886 213.985 344.364 219.298 348.736 219.319C353.108 219.34 358.899 218.62 360.067 217.92C361.235 217.22 361.477 214.093 361.477 214.093Z" fill="#656380"/>
<path opacity="0.2" d="M348.659 218.857C353.034 218.892 358.822 218.175 359.987 217.458C360.875 216.916 361.228 214.978 361.347 214.083H361.477C361.477 214.083 361.232 217.21 360.078 217.931C358.924 218.651 353.121 219.358 348.746 219.33C347.484 219.33 347.05 218.871 347.075 218.207C347.239 218.599 347.718 218.84 348.659 218.857Z" fill="black"/>
<path d="M64.4529 214.593C62.9175 211.753 64.6592 208.269 66.6597 205.733C68.6602 203.197 71.1013 200.563 71.0524 197.338C70.9754 192.696 66.0512 189.957 62.1131 187.494C59.1934 185.669 56.5003 183.503 54.0902 181.044C53.0875 180.095 52.259 178.977 51.642 177.742C50.8271 175.926 50.8516 173.862 50.9041 171.872C51.072 165.249 51.3984 158.632 51.8833 152.021" stroke="#3F3D56" stroke-width="4" stroke-miterlimit="10"/>
<path d="M44.385 151.653C44.4388 150.438 44.7981 149.256 45.4296 148.217C46.061 147.178 46.9443 146.314 47.9978 145.707L49.6206 148.914L49.5716 145.032C51.0438 144.598 52.6157 144.644 54.0603 145.162C55.5049 145.68 56.7476 146.644 57.6088 147.914C58.47 149.185 58.9053 150.696 58.8518 152.23C58.7982 153.764 58.2587 155.242 57.311 156.449C56.3633 157.656 55.0565 158.531 53.5793 158.947C52.1021 159.364 50.5308 159.299 49.0924 158.764C47.6541 158.229 46.4229 157.25 45.5768 155.97C44.7307 154.689 44.3133 153.173 44.385 151.639V151.653Z" fill="#57B894"/>
<path d="M57.2938 200.65C58.0532 202.127 59.2971 203.297 60.817 203.965C62.3368 204.633 64.0401 204.759 65.6412 204.32C67.2423 203.881 68.6438 202.904 69.6106 201.555C70.5775 200.205 71.0509 198.563 70.9514 196.906C70.8519 195.248 70.1856 193.676 69.0643 192.451C67.943 191.227 66.4348 190.425 64.7927 190.181C63.1506 189.937 61.4745 190.265 60.0455 191.11C58.6164 191.955 57.5214 193.266 56.944 194.823L61.4626 198.499L56.4824 197.348C56.4857 198.498 56.7639 199.63 57.2938 200.65Z" fill="#57B894"/>
<path d="M60.8681 186.595C62.6425 186.675 64.3844 186.1 65.7625 184.98C67.1406 183.859 68.0587 182.27 68.342 180.517C68.6253 178.763 68.2541 176.966 67.2991 175.468C66.344 173.97 64.8717 172.876 63.1623 172.393L63.2008 175.373L61.5605 172.131H61.5431C60.5848 172.071 59.6241 172.203 58.7172 172.518C57.8102 172.833 56.975 173.326 56.2601 173.967C55.5453 174.608 54.9651 175.385 54.5533 176.252C54.1416 177.12 53.9065 178.061 53.8617 179.02C53.8169 179.979 53.9634 180.938 54.2926 181.84C54.6218 182.742 55.1271 183.57 55.7791 184.275C56.4311 184.98 57.2169 185.548 58.0905 185.946C58.9642 186.345 59.9084 186.565 60.8681 186.595Z" fill="#57B894"/>
<path d="M43.2973 174.901C45.2147 174.99 47.0888 174.313 48.5079 173.02C49.927 171.728 50.775 169.924 50.8656 168.007C50.9205 166.822 50.6801 165.643 50.1661 164.575C49.743 163.676 49.1392 162.875 48.3924 162.22C47.6457 161.565 46.7721 161.071 45.826 160.768C44.88 160.466 43.8818 160.362 42.8937 160.463C41.9057 160.563 40.9489 160.867 40.0832 161.353L41.3598 164.851L38.7298 162.326C37.6769 163.292 36.9333 164.548 36.5928 165.936C36.2522 167.324 36.3299 168.781 36.816 170.125C37.3022 171.469 38.175 172.639 39.3246 173.488C40.4742 174.336 41.8492 174.826 43.2763 174.894L43.2973 174.901Z" fill="#57B894"/>
<path opacity="0.1" d="M45.3608 153.581C47.029 153.766 48.6553 154.28 50.3305 154.389C52.0057 154.497 53.8489 154.092 54.9086 152.787C55.4786 152.087 55.7654 151.199 56.248 150.433C56.7054 149.719 57.3312 149.129 58.0702 148.715C58.5363 149.633 58.8014 150.639 58.8478 151.668C58.8942 152.696 58.7208 153.723 58.3393 154.679C57.9577 155.635 57.3768 156.498 56.6351 157.212C55.8935 157.926 55.0082 158.473 54.0383 158.818C53.0685 159.162 52.0363 159.296 51.0107 159.21C49.9851 159.124 48.9896 158.82 48.0907 158.319C47.1917 157.818 46.4099 157.131 45.7975 156.303C45.185 155.476 44.7559 154.528 44.5389 153.521C44.8117 153.532 45.088 153.553 45.3608 153.581Z" fill="black"/>
<path opacity="0.1" d="M43.2973 174.901C45.2147 174.99 47.0888 174.313 48.5079 173.02C49.927 171.728 50.775 169.924 50.8656 168.007C50.9205 166.823 50.6801 165.643 50.1661 164.575C49.5921 164.962 49.0981 165.456 48.7112 166.03C48.1971 166.81 47.8824 167.709 47.2773 168.423C46.1512 169.749 44.2241 170.172 42.4789 170.102C40.7338 170.032 39.0445 169.528 37.3063 169.367C37.065 169.346 36.8202 169.329 36.5754 169.322C36.935 170.857 37.7863 172.233 38.9997 173.241C40.2131 174.248 41.7221 174.831 43.2973 174.901Z" fill="black"/>
<path opacity="0.1" d="M60.8681 186.595C62.1034 186.653 63.3331 186.394 64.4397 185.842C65.5463 185.289 66.4929 184.463 67.1892 183.44C67.8855 182.418 68.3081 181.234 68.4169 180.002C68.5256 178.77 68.3168 177.53 67.8103 176.402C67.2152 176.795 66.6972 177.294 66.282 177.875C65.7189 178.669 65.3692 179.582 64.7082 180.323C63.4876 181.684 61.4346 182.163 59.5845 182.121C57.7939 182.079 56.0662 181.642 54.286 181.506C54.7272 182.928 55.5958 184.179 56.7735 185.09C57.9513 186.001 59.381 186.526 60.8681 186.595Z" fill="black"/>
<path opacity="0.1" d="M57.2938 200.65C58.1416 202.296 59.5878 203.555 61.335 204.168C63.0823 204.78 64.9977 204.7 66.6876 203.943C68.3774 203.187 69.7133 201.811 70.4204 200.1C71.1275 198.388 71.1521 196.471 70.4893 194.742C69.8937 195.129 69.3577 195.6 68.898 196.141C68.1985 196.981 67.7579 197.932 66.9605 198.716C65.4811 200.167 63.0924 200.766 60.966 200.815C59.7397 200.832 58.5135 200.777 57.2938 200.65Z" fill="black"/>
<path d="M75.3681 211.323C75.3681 211.323 69.6569 211.148 67.9327 209.923C66.2085 208.699 59.1474 207.234 58.7207 209.199C58.294 211.165 50.1347 218.994 56.5838 219.032C63.0329 219.071 71.57 218.028 73.2872 216.979C75.0044 215.93 75.3681 211.323 75.3681 211.323Z" fill="#656380"/>
<path opacity="0.2" d="M56.4824 218.343C62.9315 218.396 71.4686 217.339 73.1858 216.293C74.4938 215.496 75.0184 212.635 75.1897 211.316H75.3821C75.3821 211.316 75.0324 215.923 73.3012 216.969C71.57 218.014 63.0469 219.067 56.5978 219.022C54.7372 219.022 54.0937 218.343 54.1286 217.364C54.384 217.962 55.0834 218.333 56.4824 218.343Z" fill="black"/>
<path d="M301.214 197.152C301.155 197.299 301.117 197.453 301.102 197.61C300.546 201.273 297.346 203.977 296.177 207.492C295.429 209.778 295.576 212.262 296.59 214.443C296.772 214.748 296.881 215.092 296.908 215.447C296.908 215.797 296.629 216.178 296.275 216.147C295.429 216.091 294.761 215.447 294.055 214.992C293.171 214.448 292.403 213.734 291.795 212.893C291.494 212.471 291.28 211.992 291.165 211.486C291.05 210.98 291.037 210.456 291.127 209.945C291.547 208.035 293.005 206.331 293.46 204.428L294.653 199.492C294.815 198.562 295.147 197.669 295.632 196.858C295.819 196.538 296.11 196.291 296.457 196.159C296.661 196.109 296.871 196.093 297.08 196.11C298.461 196.169 299.899 196.687 301.214 197.152Z" fill="#FFC1C7"/>
<path d="M296.314 213.862C296.44 213.835 296.571 213.844 296.692 213.89C296.852 214 296.974 214.156 297.041 214.338C297.418 215.038 297.991 215.612 298.689 215.993C298.971 216.118 299.24 216.27 299.493 216.447C299.619 216.538 299.72 216.658 299.788 216.797C299.855 216.936 299.888 217.09 299.881 217.245C299.825 217.703 299.325 217.944 298.884 218.081C297.938 218.357 296.947 218.444 295.968 218.336C295.601 218.315 295.243 218.215 294.918 218.042C294.6 217.822 294.326 217.545 294.111 217.224C293.344 216.164 292.478 215.182 291.522 214.289C291.036 213.906 290.583 213.484 290.166 213.026C289.958 212.796 289.801 212.526 289.703 212.232C289.605 211.938 289.568 211.628 289.595 211.319C289.732 210.41 290.592 209.815 291.134 209.07C292.005 210.189 292.883 211.326 293.415 212.641C293.589 213.17 293.807 213.684 294.065 214.177C294.313 214.586 294.67 215.059 295.114 214.793C295.558 214.527 295.667 213.974 296.314 213.862Z" fill="#FF6584"/>
<path d="M306.827 170.312C307.088 170.969 307.195 171.678 307.138 172.383L307.107 177.605C307.127 178.621 307.073 179.637 306.946 180.645C306.67 182.461 305.925 184.178 305.599 185.987C305.292 187.683 305.351 189.446 304.851 191.097C304.075 193.654 302.018 195.68 301.294 198.254C301.267 198.41 301.196 198.555 301.088 198.67C301.003 198.738 300.902 198.782 300.794 198.796C300.215 198.85 299.632 198.741 299.112 198.481L295.352 197.005C295.093 197.117 294.915 196.82 294.929 196.533C294.973 196.252 295.104 195.991 295.303 195.788C295.761 195.204 296.166 194.58 296.513 193.924C297.563 191.822 298.159 189.523 298.262 187.176C298.357 184.842 298.288 182.504 298.056 180.18C297.927 178.496 297.799 176.815 297.671 175.136C297.611 174.335 297.566 173.467 298.021 172.799C298.475 172.131 299.248 171.855 299.993 171.624C302.217 170.94 304.508 170.5 306.827 170.312Z" fill="#3C354C"/>
<path opacity="0.1" d="M306.827 170.312C307.088 170.969 307.195 171.678 307.138 172.383L307.107 177.605C307.127 178.621 307.073 179.637 306.946 180.645C306.67 182.461 305.925 184.178 305.599 185.987C305.292 187.683 305.351 189.446 304.851 191.097C304.075 193.654 302.018 195.68 301.294 198.254C301.267 198.41 301.196 198.555 301.088 198.67C301.003 198.738 300.902 198.782 300.794 198.796C300.215 198.85 299.632 198.741 299.112 198.481L295.352 197.005C295.093 197.117 294.915 196.82 294.929 196.533C294.973 196.252 295.104 195.991 295.303 195.788C295.761 195.204 296.166 194.58 296.513 193.924C297.563 191.822 298.159 189.523 298.262 187.176C298.357 184.842 298.288 182.504 298.056 180.18C297.927 178.496 297.799 176.815 297.671 175.136C297.611 174.335 297.566 173.467 298.021 172.799C298.475 172.131 299.248 171.855 299.993 171.624C302.217 170.94 304.508 170.5 306.827 170.312Z" fill="black"/>
<path d="M315.06 178.224C314.542 178.974 314.12 179.786 313.804 180.642C313.612 181.285 313.471 181.942 313.381 182.607C312.891 185.696 312.398 188.813 312.587 191.933C312.282 192.006 311.964 192.004 311.66 191.929C311.356 191.853 311.074 191.706 310.838 191.499C310.368 191.083 309.98 190.581 309.695 190.02C309.34 189.414 309.025 188.785 308.754 188.138C308.154 186.684 307.851 185.125 307.862 183.552C307.852 183.424 307.874 183.295 307.925 183.178C307.974 183.094 308.037 183.02 308.11 182.957C310.163 181.012 311.346 178.343 312.475 175.751C312.88 174.904 313.194 174.017 313.412 173.103C313.598 172.18 313.612 171.158 314.196 170.42C314.72 169.763 315.595 169.486 316.413 169.371C317.008 169.265 317.619 169.29 318.204 169.444C318.84 169.64 320.348 170.385 320.435 171.137C320.523 171.889 319.18 172.851 318.742 173.352C317.4 174.886 316.169 176.514 315.06 178.224Z" fill="#FFC1C7"/>
<path d="M313.811 191.905C314.259 192.657 314.885 193.497 314.567 194.308C314.248 195.12 313.084 195.302 312.384 194.802C312.183 194.648 312 194.472 311.839 194.277C309.907 192.12 308.153 189.811 306.593 187.372C306.012 186.466 305.445 185.5 305.348 184.43C305.329 184.311 305.346 184.189 305.397 184.08C305.465 183.98 305.559 183.9 305.669 183.849C306.624 183.309 307.641 182.886 308.698 182.59C308.673 183.788 308.983 184.969 309.593 186.001C310.04 186.747 310.426 187.529 310.748 188.337C310.985 188.925 311.23 188.97 311.842 188.977C312.335 188.977 312.689 188.918 312.926 189.418C313.304 190.202 313.332 191.101 313.811 191.905Z" fill="#FF6584"/>
<path d="M300.703 161.472C305.201 161.542 309.691 161.857 314.178 162.172L317.095 162.378C317.955 162.404 318.808 162.53 319.638 162.756C320.428 163.042 321.184 163.416 321.89 163.872C322.132 163.995 322.347 164.166 322.52 164.376C322.654 164.589 322.744 164.827 322.785 165.075C322.951 165.597 323.006 166.147 322.95 166.691C322.863 167.081 322.718 167.455 322.52 167.8L320.477 171.837C319.823 171.624 319.316 171.197 318.676 170.945C317.905 170.685 317.103 170.532 316.291 170.49L314.164 170.28C314.095 170.152 314.073 170.003 314.105 169.861C312.237 170.511 310.377 171.116 308.509 171.767C305.082 172.96 301.647 174.156 298.346 175.667C297.856 175.891 297.297 176.126 296.797 175.937C296.616 175.86 296.452 175.751 296.31 175.615C295.493 174.837 294.963 173.805 294.807 172.687C294.651 171.578 294.668 170.451 294.855 169.346C295.17 167.069 295.859 164.687 297.601 163.186C298.521 162.371 299.486 161.441 300.703 161.472Z" fill="#3C354C"/>
<path opacity="0.1" d="M318.596 165.404C317.59 165.893 316.624 166.459 315.707 167.097C315.569 167.187 315.441 167.292 315.326 167.408C315.241 167.506 315.162 167.609 315.091 167.716C314.64 168.302 314.305 168.97 314.105 169.682" stroke="black" stroke-miterlimit="10"/>
<path d="M272.304 159.951C271.675 160.479 271.304 161.241 270.86 161.934C269.793 163.613 268.262 164.963 267.209 166.653C266.758 167.38 266.383 168.185 265.74 168.752C264.971 169.451 263.907 169.693 262.879 169.773C261.952 169.84 260.973 169.794 260.155 170.238C259.455 170.623 258.966 171.319 258.518 171.987V172.008C258.425 172.148 258.378 172.314 258.386 172.482C258.393 172.65 258.454 172.811 258.559 172.942C258.665 173.073 258.809 173.167 258.971 173.211C259.134 173.254 259.306 173.245 259.462 173.184C260.214 172.893 260.99 172.667 261.781 172.509C262.479 172.402 263.169 172.246 263.844 172.04C264.494 171.78 265.113 171.451 265.691 171.057C266.199 170.754 266.684 170.414 267.142 170.039C267.705 169.56 268.192 168.99 268.723 168.482C269.502 167.841 270.32 167.247 271.171 166.705C273.41 165.137 275.277 163.096 276.641 160.727C276.805 160.495 276.892 160.217 276.89 159.933C276.84 159.672 276.719 159.43 276.54 159.234C275.921 158.447 275.358 157.803 274.497 158.534C273.819 159.097 272.969 159.373 272.304 159.951Z" fill="#FFC1C7"/>
<path d="M289.9 142.905C289.907 143.129 289.985 143.344 290.124 143.521C290.354 143.755 290.736 143.706 291.064 143.685C291.513 143.64 291.967 143.693 292.393 143.841C292.82 143.989 293.209 144.228 293.533 144.542C294.132 145.168 294.366 146.053 294.506 146.91C294.664 147.622 294.642 148.363 294.443 149.065C294.111 149.876 293.471 150.523 292.663 150.863C291.863 151.198 291.016 151.406 290.152 151.479C289.434 151.604 288.7 151.604 287.983 151.479C287.133 151.283 286.395 150.779 285.629 150.356C285.093 150.1 284.576 149.808 284.08 149.481C283.58 149.148 283.221 148.642 283.069 148.061C283.025 147.914 283.026 147.757 283.071 147.611C283.117 147.464 283.205 147.335 283.325 147.239C283.449 147.181 283.581 147.141 283.716 147.12C284.001 147.048 284.262 146.901 284.471 146.695C284.681 146.49 284.832 146.232 284.909 145.948C285.143 145.042 284.58 144.129 284.524 143.195C284.496 142.924 284.554 142.652 284.689 142.415C284.892 142.157 285.165 141.963 285.476 141.855L287.224 141.072C287.751 140.781 288.302 140.537 288.872 140.341C289.428 140.197 289.466 140.582 289.571 141.04C289.7 141.667 289.816 142.286 289.9 142.905Z" fill="#FFC1C7"/>
<path opacity="0.1" d="M289.9 142.905C289.907 143.129 289.985 143.344 290.124 143.521C290.354 143.755 290.736 143.706 291.064 143.685C291.513 143.64 291.967 143.693 292.393 143.841C292.82 143.989 293.209 144.228 293.533 144.542C294.132 145.168 294.366 146.053 294.506 146.91C294.664 147.622 294.642 148.363 294.443 149.065C294.111 149.876 293.471 150.523 292.663 150.863C291.863 151.198 291.016 151.406 290.152 151.479C289.434 151.604 288.7 151.604 287.983 151.479C287.133 151.283 286.395 150.779 285.629 150.356C285.093 150.1 284.576 149.808 284.08 149.481C283.58 149.148 283.221 148.642 283.069 148.061C283.025 147.914 283.026 147.757 283.071 147.611C283.117 147.464 283.205 147.335 283.325 147.239C283.449 147.181 283.581 147.141 283.716 147.12C284.001 147.048 284.262 146.901 284.471 146.695C284.681 146.49 284.832 146.232 284.909 145.948C285.143 145.042 284.58 144.129 284.524 143.195C284.496 142.924 284.554 142.652 284.689 142.415C284.892 142.157 285.165 141.963 285.476 141.855L287.224 141.072C287.751 140.781 288.302 140.537 288.872 140.341C289.428 140.197 289.466 140.582 289.571 141.04C289.7 141.667 289.816 142.286 289.9 142.905Z" fill="black"/>
<path d="M285.35 144.367C287.758 144.367 289.711 142.414 289.711 140.005C289.711 137.596 287.758 135.643 285.35 135.643C282.941 135.643 280.988 137.596 280.988 140.005C280.988 142.414 282.941 144.367 285.35 144.367Z" fill="#FFC1C7"/>
<path d="M290.417 143.982C291.064 143.69 291.758 143.514 292.467 143.465C292.821 143.443 293.176 143.5 293.506 143.63C293.835 143.761 294.133 143.962 294.376 144.22C294.786 144.699 294.922 145.346 295.247 145.882C295.891 146.931 297.146 147.41 298.15 148.127C298.387 148.283 298.591 148.482 298.752 148.715C299.101 149.247 299.007 149.929 299 150.559C299.034 152.117 299.477 153.639 300.283 154.973C301.091 156.302 302.015 157.556 303.046 158.719C303.289 158.986 303.491 159.287 303.648 159.611C303.893 160.199 303.823 160.909 304.186 161.43C303.311 161.321 302.423 161.442 301.609 161.78C300.346 162.301 300.287 164.148 299.692 165.38C298.594 167.657 297.069 169.696 295.618 171.767C295.236 172.261 294.912 172.798 294.653 173.366C294.394 172.816 294.572 172.162 294.541 171.557C294.471 170.203 293.687 168.99 293.467 167.653C293.392 166.984 293.353 166.312 293.352 165.639C293.292 164.619 293.072 163.615 292.698 162.665C292.265 161.651 291.746 160.676 291.145 159.751C290.864 159.203 290.464 158.725 289.973 158.352C289.393 157.974 288.592 157.866 288.224 157.278C288.135 157.074 288.018 156.883 287.875 156.712C287.753 156.62 287.615 156.55 287.469 156.505C286.754 156.169 286.063 155.786 285.399 155.358C284.699 154.977 283.905 154.693 283.132 154.865C281.7 156.528 280.076 158.016 278.295 159.3C277.743 159.706 277.148 160.122 276.876 160.752C276.005 160.335 275.224 159.751 274.578 159.034C274.475 158.934 274.392 158.815 274.333 158.684C274.155 158.174 274.683 157.716 275.102 157.394C276.673 156.209 277.878 154.605 278.579 152.766C279.03 151.58 279.327 150.216 280.355 149.471C280.681 149.284 280.989 149.067 281.275 148.824C281.528 148.473 281.762 148.109 281.975 147.732C282.197 147.443 282.501 147.227 282.846 147.11C283.191 146.993 283.563 146.981 283.916 147.075C284.315 147.231 284.702 147.417 285.073 147.631C286.042 148.068 287.154 147.981 288.221 147.862L292.316 147.445C292.384 147.216 292.391 146.974 292.339 146.742C292.286 146.509 292.175 146.294 292.016 146.116C291.847 145.957 291.666 145.814 291.474 145.686C290.937 145.255 290.565 144.654 290.417 143.982Z" fill="#FF6584"/>
<path d="M287.658 132.467C288.154 132.651 288.605 132.937 288.983 133.307C289.361 133.677 289.656 134.123 289.851 134.615C289.974 135.035 290.128 135.445 290.312 135.842C290.639 136.309 291.021 136.734 291.449 137.109C291.841 137.525 292.176 138.067 292.086 138.63C292.051 138.84 291.96 139.036 291.932 139.242C291.809 140.148 292.838 140.771 293.152 141.628C293.561 142.754 292.67 144.098 293.215 145.161C293.422 145.56 293.796 145.861 294.03 146.211C294.264 146.56 294.289 147.19 293.894 147.403C293.278 147.736 292.565 146.763 291.911 147.019C291.743 147.085 291.613 147.228 291.449 147.302C290.991 147.508 290.456 147.103 290.305 146.623C290.21 146.13 290.219 145.622 290.333 145.133C290.389 144.888 290.393 144.635 290.345 144.388C290.296 144.142 290.197 143.908 290.054 143.702C289.788 143.398 289.354 143.279 289.078 143.003C288.574 142.492 288.669 141.67 288.728 140.956C288.837 139.515 288.578 137.938 287.546 136.923C287.524 136.894 287.496 136.871 287.464 136.853C287.432 136.836 287.397 136.825 287.361 136.822C287.286 136.835 287.22 136.877 287.175 136.937C286.705 137.43 286.18 137.865 285.608 138.235C285.447 138.359 285.252 138.43 285.049 138.438C284.85 138.438 284.65 138.235 284.699 138.043C284.204 138.272 283.759 138.598 283.391 139.001C283.311 138.811 283.275 138.605 283.286 138.399C283.094 138.782 282.86 139.141 282.587 139.47C282.308 139.769 282.051 140.087 281.817 140.421C281.702 140.589 281.624 140.781 281.59 140.982C281.557 141.183 281.567 141.389 281.621 141.586C282.013 142.709 284.01 142.45 284.444 143.559C284.538 143.807 284.535 144.08 284.633 144.325C284.825 144.801 285.332 145.025 285.752 145.34C286.172 145.654 286.535 146.19 286.283 146.634C286.063 147.015 285.549 147.057 285.122 147.155C284.757 147.245 284.415 147.409 284.114 147.635C283.814 147.861 283.562 148.145 283.374 148.47C283.274 148.709 283.119 148.921 282.923 149.089C282.746 149.18 282.551 149.228 282.352 149.229C281.758 149.278 281.076 149.292 280.667 148.88C280.118 148.302 280.376 147.253 279.817 146.686C279.687 146.56 279.527 146.469 279.404 146.336C279.277 146.172 279.184 145.983 279.13 145.782C279.077 145.581 279.064 145.371 279.093 145.165C279.149 144 279.579 142.859 279.513 141.695C279.409 140.924 279.261 140.16 279.068 139.407C278.897 138.528 278.92 137.622 279.135 136.753C279.35 135.883 279.752 135.071 280.313 134.373C281.265 133.257 282.506 132.82 283.912 132.624C285.164 132.439 286.374 132.002 287.658 132.467Z" fill="#3C354C"/>
</g>
<defs>
<clipPath id="clip0">
<rect width="411.639" height="225" fill="white"/>
</clipPath>
</defs>
</svg>
