<svg width="272" height="225" viewBox="0 0 272 225" fill="none" xmlns="http://www.w3.org/2000/svg">
<g clip-path="url(#clip0)">
<path opacity="0.1" d="M253.506 124.328C243.081 141.185 245.034 164.152 249.613 182.26C251.145 188.323 252.91 194.723 251.601 201.509C249.998 209.806 244.157 216.321 238.246 220.052C227.469 226.838 215.163 226.65 206.202 219.555C198.464 213.427 193.368 202.739 185.466 196.94C172.255 187.233 154.114 193.116 138.362 202.189C127.223 208.592 114.962 216.74 104.665 212.126C97.4217 208.887 92.9046 199.747 90.7965 189.801C89.779 184.999 89.1634 179.754 86.8304 176.095C85.4418 173.921 83.5332 172.465 81.5544 171.271C63.4945 160.387 39.0597 169.487 21.6435 157.161C9.88007 148.839 3.19302 131.649 0.994922 113.269C-1.20318 94.8879 0.60421 75.2204 2.86696 55.8562C4.47758 42.0889 6.65601 27.3607 13.8856 16.1642C21.5339 4.32152 33.5897 -0.974685 44.0686 0.149177C54.5476 1.27304 63.6463 7.90945 71.4887 16.0209C81.2901 26.1582 90.1303 39.105 102.816 42.3755C111.456 44.6035 120.892 42.0243 130.081 40.5661C145.423 38.1273 160.551 38.8269 175.572 39.7428C189.953 40.6194 204.42 41.7096 217.82 46.767C227.301 50.3493 234.578 57.8061 243.427 62.6556C249.194 65.8164 255.702 66.2182 261.076 70.4327C267.696 75.6249 273.424 85.2087 270.773 97.3239C268.247 108.849 259.038 115.382 253.506 124.328Z" fill="#00B0FF"/>
<path d="M186.779 86.2227C186.779 86.2227 215.169 62.4446 221.482 50.4558C227.795 38.467 235.832 28.1359 235.832 28.1359" stroke="#535461" stroke-width="2" stroke-miterlimit="10"/>
<path d="M232.099 54.9372L219.818 52.1697C219.818 52.1697 222.716 65.1166 232.099 54.9372Z" fill="#00B0FF"/>
<path d="M213.334 41.7206L220.4 52.2989C220.4 52.2989 206.585 53.2964 213.334 41.7206Z" fill="#00B0FF"/>
<path d="M236.931 44.9938L225.707 43.027C225.707 43.027 232.757 53.7459 236.931 44.9938Z" fill="#00B0FF"/>
<path d="M220.321 35.5394L225.85 42.777C225.85 42.777 216.063 43.7042 220.321 35.5394Z" fill="#00B0FF"/>
<path d="M231.511 34.098C231.511 34.098 241.068 34.5531 242.193 35.4663C243.317 36.3794 240.768 41.7318 237.133 40.858C233.499 39.9842 231.511 34.098 231.511 34.098Z" fill="#00B0FF"/>
<path d="M227.691 25.5594C227.691 25.5594 231.596 32.6707 231.45 34.0249C231.303 35.3792 225.499 36.8992 224.327 31.7772C223.155 26.6552 227.691 25.5594 227.691 25.5594Z" fill="#00B0FF"/>
<path d="M239.833 30.9906C240.275 29.5916 239.499 28.0994 238.099 27.6576C236.699 27.2159 235.207 27.9918 234.765 29.3908C234.323 30.7897 235.099 32.282 236.499 32.7237C237.898 33.1655 239.391 32.3896 239.833 30.9906Z" fill="#FFD037"/>
<path d="M235.673 28.257C236.115 26.858 235.338 25.3658 233.939 24.9241C232.539 24.4823 231.046 25.2582 230.604 26.6572C230.162 28.0562 230.939 29.5484 232.338 29.9902C233.738 30.4319 235.231 29.656 235.673 28.257Z" fill="#FFD037"/>
<path d="M98.2286 179.433C98.2286 179.433 102.785 165.885 73.9005 149.552C73.9005 149.552 44.5719 141.003 47.5711 111.642C47.5711 111.642 13.762 136.4 36.6396 167.939C59.5173 199.477 79.2636 192.593 79.2636 192.593L98.2286 179.433Z" fill="#00B0FF"/>
<path d="M89.4221 185.552C89.4221 185.552 75.3284 170.327 61.8194 164.441C59.1208 163.227 56.6411 161.576 54.4802 159.555C45.8678 151.688 42.1124 139.817 44.333 128.368L47.5796 111.642" stroke="#535461" stroke-width="2" stroke-miterlimit="10"/>
<path d="M214.66 9.32806H54.2694V195.476H214.66V9.32806Z" fill="url(#paint0_linear)"/>
<path d="M212.794 11.4943H56.1387V193.304H212.794V11.4943Z" fill="#F7F7FD"/>
<path d="M105.202 31.9879H65.6V35.1403H105.202V31.9879Z" fill="#E2E2EC"/>
<path d="M133.238 39.6948H65.6V42.8473H133.238V39.6948Z" fill="#E2E2EC"/>
<path d="M205.292 28.976H177.186V53.2177H205.292V28.976Z" fill="white"/>
<path d="M205.143 29.1165V53.0772H177.315V29.1165H205.143ZM205.424 28.8355H177.034V53.3582H205.424V28.8355Z" fill="#E2E2EC"/>
<path d="M176.905 28.976H148.799V53.2177H176.905V28.976Z" fill="white"/>
<path d="M176.753 29.1165V53.0772H148.925V29.1165H176.753ZM177.034 28.8355H148.644V53.3582H177.034V28.8355Z" fill="#E2E2EC"/>
<path d="M205.292 53.4987H177.186V77.7404H205.292V53.4987Z" fill="white"/>
<path d="M205.143 53.6391V77.5999H177.315V53.6391H205.143ZM205.424 53.3582H177.034V77.8808H205.424V53.3582Z" fill="#E2E2EC"/>
<path d="M176.905 53.4987H148.799V77.7404H176.905V53.4987Z" fill="white"/>
<path d="M176.753 53.6391V77.5999H148.925V53.6391H176.753ZM177.034 53.3582H148.644V77.8808H177.034V53.3582Z" fill="#E2E2EC"/>
<path d="M148.518 53.4987H120.412V77.7404H148.518V53.4987Z" fill="white"/>
<path d="M148.377 53.6391V77.5999H120.55V53.6391H148.377ZM148.658 53.3582H120.269V77.8808H148.658V53.3582Z" fill="#E2E2EC"/>
<path d="M120.131 53.4987H92.025V77.7404H120.131V53.4987Z" fill="white"/>
<path d="M119.99 53.6391V77.5999H92.1627V53.6391H119.99ZM120.271 53.3582H91.8817V77.8808H120.271V53.3582Z" fill="#E2E2EC"/>
<path d="M91.7439 53.4987H63.638V77.7404H91.7439V53.4987Z" fill="white"/>
<path d="M91.6034 53.6391V77.5999H63.7758V53.6391H91.6034ZM91.8844 53.3582H63.4947V77.8808H91.8844V53.3582Z" fill="#E2E2EC"/>
<path d="M205.292 78.0185H177.186V102.26H205.292V78.0185Z" fill="white"/>
<path d="M205.143 78.1618V102.123H177.315V78.1618H205.143ZM205.424 77.8809H177.034V102.404H205.424V77.8809Z" fill="#E2E2EC"/>
<path d="M176.905 78.0185H148.799V102.26H176.905V78.0185Z" fill="white"/>
<path d="M176.753 78.1618V102.123H148.925V78.1618H176.753ZM177.034 77.8809H148.644V102.404H177.034V77.8809Z" fill="#E2E2EC"/>
<path d="M148.518 78.0185H120.412V102.26H148.518V78.0185Z" fill="white"/>
<path d="M148.377 78.1618V102.123H120.55V78.1618H148.377ZM148.658 77.8809H120.269V102.404H148.658V77.8809Z" fill="#E2E2EC"/>
<path d="M120.131 78.0185H92.025V102.26H120.131V78.0185Z" fill="white"/>
<path d="M119.99 78.1618V102.123H92.1627V78.1618H119.99ZM120.271 77.8809H91.8817V102.404H120.271V77.8809Z" fill="#E2E2EC"/>
<path d="M91.7439 78.0185H63.638V102.26H91.7439V78.0185Z" fill="white"/>
<path d="M91.6034 78.1618V102.123H63.7758V78.1618H91.6034ZM91.8844 77.8809H63.4947V102.404H91.8844V77.8809Z" fill="#E2E2EC"/>
<path d="M205.292 102.541H177.186V126.783H205.292V102.541Z" fill="white"/>
<path d="M205.143 102.682V126.642H177.315V102.682H205.143ZM205.424 102.401H177.034V126.923H205.424V102.401Z" fill="#E2E2EC"/>
<path d="M176.905 102.541H148.799V126.783H176.905V102.541Z" fill="white"/>
<path d="M176.753 102.682V126.642H148.925V102.682H176.753ZM177.034 102.401H148.644V126.923H177.034V102.401Z" fill="#E2E2EC"/>
<path d="M148.518 102.541H120.412V126.783H148.518V102.541Z" fill="white"/>
<path d="M148.377 102.682V126.642H120.55V102.682H148.377ZM148.658 102.401H120.269V126.923H148.658V102.401Z" fill="#E2E2EC"/>
<path d="M120.131 102.541H92.025V126.783H120.131V102.541Z" fill="white"/>
<path d="M119.99 102.682V126.642H92.1627V102.682H119.99ZM120.271 102.401H91.8817V126.923H120.271V102.401Z" fill="#E2E2EC"/>
<path d="M91.7439 102.541H63.638V126.783H91.7439V102.541Z" fill="white"/>
<path d="M91.6034 102.682V126.642H63.7758V102.682H91.6034ZM91.8844 102.401H63.4947V126.923H91.8844V102.401Z" fill="#E2E2EC"/>
<path d="M205.292 127.061H177.186V151.303H205.292V127.061Z" fill="white"/>
<path d="M205.143 127.204V151.162H177.315V127.204H205.143ZM205.424 126.923H177.034V151.443H205.424V126.923Z" fill="#E2E2EC"/>
<path d="M176.905 127.061H148.799V151.303H176.905V127.061Z" fill="white"/>
<path d="M176.753 127.204V151.162H148.925V127.204H176.753ZM177.034 126.923H148.644V151.443H177.034V126.923Z" fill="#E2E2EC"/>
<path d="M148.518 127.061H120.412V151.303H148.518V127.061Z" fill="white"/>
<path d="M148.377 127.204V151.162H120.55V127.204H148.377ZM148.658 126.923H120.269V151.443H148.658V126.923Z" fill="#E2E2EC"/>
<path d="M120.131 127.061H92.025V151.303H120.131V127.061Z" fill="white"/>
<path d="M119.99 127.204V151.162H92.1627V127.204H119.99ZM120.271 126.923H91.8817V151.443H120.271V126.923Z" fill="#E2E2EC"/>
<path d="M91.7439 127.061H63.638V151.303H91.7439V127.061Z" fill="white"/>
<path d="M91.6034 127.204V151.162H63.7758V127.204H91.6034ZM91.8844 126.923H63.4947V151.443H91.8844V126.923Z" fill="#E2E2EC"/>
<path d="M205.292 151.584H177.186V175.825H205.292V151.584Z" fill="white"/>
<path d="M205.143 151.724V175.685H177.315V151.724H205.143ZM205.424 151.443H177.034V175.966H205.424V151.443Z" fill="#E2E2EC"/>
<path d="M176.905 151.584H148.799V175.825H176.905V151.584Z" fill="white"/>
<path d="M176.753 151.724V175.685H148.925V151.724H176.753ZM177.034 151.443H148.644V175.966H177.034V151.443Z" fill="#E2E2EC"/>
<path d="M148.518 151.584H120.412V175.825H148.518V151.584Z" fill="white"/>
<path d="M148.377 151.724V175.685H120.55V151.724H148.377ZM148.658 151.443H120.269V175.966H148.658V151.443Z" fill="#E2E2EC"/>
<path d="M120.131 151.584H92.025V175.825H120.131V151.584Z" fill="white"/>
<path d="M119.99 151.724V175.685H92.1627V151.724H119.99ZM120.271 151.443H91.8817V175.966H120.271V151.443Z" fill="#E2E2EC"/>
<path d="M91.7439 151.584H63.638V175.825H91.7439V151.584Z" fill="white"/>
<path d="M91.6034 151.724V175.685H63.7758V151.724H91.6034ZM91.8844 151.443H63.4947V175.966H91.8844V151.443Z" fill="#E2E2EC"/>
<path d="M122.672 198.05C123.476 197.44 124.232 196.721 124.465 195.844C124.585 195.38 124.522 194.888 124.288 194.47C124.055 194.051 123.669 193.739 123.212 193.596C122.062 193.237 120.834 193.877 119.9 194.543C118.967 195.209 117.902 195.948 116.682 195.81C117.944 194.897 118.546 193.417 118.197 192.071C118.137 191.781 117.99 191.516 117.775 191.312C117.137 190.75 115.979 190.995 115.215 191.433C112.783 192.838 112.106 195.521 112.092 197.946C111.847 197.072 112.052 196.162 112.047 195.263C112.041 194.364 111.74 193.372 110.813 192.888C110.219 192.631 109.576 192.507 108.93 192.526C107.836 192.492 106.619 192.582 105.874 193.234C104.947 194.043 105.188 195.403 105.995 196.294C106.802 197.184 108.03 197.744 109.157 198.359C110.017 198.828 110.889 199.376 111.406 200.118C111.474 200.216 111.53 200.322 111.575 200.432H118.425C119.934 199.817 121.36 199.017 122.672 198.05Z" fill="#00B0FF"/>
<path d="M67.3455 58.7864C68.2304 58.7864 68.9477 58.0694 68.9477 57.1849C68.9477 56.3004 68.2304 55.5834 67.3455 55.5834C66.4607 55.5834 65.7433 56.3004 65.7433 57.1849C65.7433 58.0694 66.4607 58.7864 67.3455 58.7864Z" fill="#FC6681"/>
<path d="M71.3482 58.7864C72.2331 58.7864 72.9504 58.0694 72.9504 57.1849C72.9504 56.3004 72.2331 55.5834 71.3482 55.5834C70.4634 55.5834 69.746 56.3004 69.746 57.1849C69.746 58.0694 70.4634 58.7864 71.3482 58.7864Z" fill="#FFD037"/>
<path d="M123.923 82.528C124.808 82.528 125.525 81.811 125.525 80.9265C125.525 80.042 124.808 79.325 123.923 79.325C123.038 79.325 122.321 80.042 122.321 80.9265C122.321 81.811 123.038 82.528 123.923 82.528Z" fill="#00B0FF"/>
<path d="M127.928 82.528C128.813 82.528 129.53 81.811 129.53 80.9265C129.53 80.042 128.813 79.325 127.928 79.325C127.043 79.325 126.326 80.042 126.326 80.9265C126.326 81.811 127.043 82.528 127.928 82.528Z" fill="#00B0FF"/>
<path d="M209.59 128.41C210.474 128.41 211.192 127.693 211.192 126.808C211.192 125.924 210.474 125.207 209.59 125.207C208.705 125.207 207.987 125.924 207.987 126.808C207.987 127.693 208.705 128.41 209.59 128.41Z" fill="#00B0FF"/>
<path d="M210.391 126.544C211.275 126.544 211.993 125.827 211.993 124.943C211.993 124.058 211.275 123.341 210.391 123.341C209.506 123.341 208.788 124.058 208.788 124.943C208.788 125.827 209.506 126.544 210.391 126.544Z" fill="#00B0FF"/>
<path d="M211.192 124.943C212.077 124.943 212.794 124.226 212.794 123.341C212.794 122.457 212.077 121.74 211.192 121.74C210.307 121.74 209.59 122.457 209.59 123.341C209.59 124.226 210.307 124.943 211.192 124.943Z" fill="#00B0FF"/>
<path d="M181.301 58.7864C182.186 58.7864 182.903 58.0694 182.903 57.1849C182.903 56.3004 182.186 55.5834 181.301 55.5834C180.416 55.5834 179.699 56.3004 179.699 57.1849C179.699 58.0694 180.416 58.7864 181.301 58.7864Z" fill="#00B0FF"/>
<path d="M185.304 58.7864C186.188 58.7864 186.906 58.0694 186.906 57.1849C186.906 56.3004 186.188 55.5834 185.304 55.5834C184.419 55.5834 183.701 56.3004 183.701 57.1849C183.701 58.0694 184.419 58.7864 185.304 58.7864Z" fill="#00B0FF"/>
<path d="M189.309 58.7864C190.194 58.7864 190.911 58.0694 190.911 57.1849C190.911 56.3004 190.194 55.5834 189.309 55.5834C188.424 55.5834 187.707 56.3004 187.707 57.1849C187.707 58.0694 188.424 58.7864 189.309 58.7864Z" fill="#00B0FF"/>
<path d="M193.312 58.7864C194.197 58.7864 194.914 58.0694 194.914 57.1849C194.914 56.3004 194.197 55.5834 193.312 55.5834C192.427 55.5834 191.71 56.3004 191.71 57.1849C191.71 58.0694 192.427 58.7864 193.312 58.7864Z" fill="#00B0FF"/>
<path d="M181.301 108.402C182.186 108.402 182.903 107.685 182.903 106.801C182.903 105.916 182.186 105.199 181.301 105.199C180.416 105.199 179.699 105.916 179.699 106.801C179.699 107.685 180.416 108.402 181.301 108.402Z" fill="#00B0FF"/>
<path d="M185.304 108.402C186.188 108.402 186.906 107.685 186.906 106.801C186.906 105.916 186.188 105.199 185.304 105.199C184.419 105.199 183.701 105.916 183.701 106.801C183.701 107.685 184.419 108.402 185.304 108.402Z" fill="#00B0FF"/>
<path d="M189.309 108.402C190.194 108.402 190.911 107.685 190.911 106.801C190.911 105.916 190.194 105.199 189.309 105.199C188.424 105.199 187.707 105.916 187.707 106.801C187.707 107.685 188.424 108.402 189.309 108.402Z" fill="#00B0FF"/>
<path d="M193.312 108.402C194.197 108.402 194.914 107.685 194.914 106.801C194.914 105.916 194.197 105.199 193.312 105.199C192.427 105.199 191.71 105.916 191.71 106.801C191.71 107.685 192.427 108.402 193.312 108.402Z" fill="#00B0FF"/>
<path d="M95.6341 82.528C96.519 82.528 97.2363 81.811 97.2363 80.9265C97.2363 80.042 96.519 79.325 95.6341 79.325C94.7493 79.325 94.0319 80.042 94.0319 80.9265C94.0319 81.811 94.7493 82.528 95.6341 82.528Z" fill="#FFD037"/>
<path d="M67.3455 106.803C68.2304 106.803 68.9477 106.086 68.9477 105.202C68.9477 104.317 68.2304 103.6 67.3455 103.6C66.4607 103.6 65.7433 104.317 65.7433 105.202C65.7433 106.086 66.4607 106.803 67.3455 106.803Z" fill="#FC6681"/>
<path d="M208.207 130.826C209.963 131.863 212.704 132.537 216.175 130.309L216.142 135.243C216.389 138.614 220.574 150.952 220.574 150.952L223.526 161.094C225.641 168.26 226.733 175.688 226.77 183.159C226.77 185.634 227 188.185 227.711 190.104C229.282 194.349 227.093 199.82 226.143 201.857C224.543 202.397 222.918 202.854 221.271 203.228C221.123 203.262 220.978 203.306 220.836 203.36L220.816 203.332C220.816 203.332 216.386 205.088 214.419 204.846C212.951 204.667 212.032 206.496 213.182 207.841C212.097 208.122 210.984 208.322 210.233 208.229C208.266 207.988 207.279 211.37 210.972 212.337C214.666 213.303 235.593 212.337 235.593 212.337C236.181 212.043 236.656 211.561 236.94 210.968C237.225 210.375 237.305 209.704 237.167 209.061C238.775 208.999 239.778 208.951 239.778 208.951C239.778 208.951 243.472 207.265 239.778 202.666L239.581 202.815L238.792 200.491V197.353C238.792 197.353 243.469 174.876 241.993 172.218C240.517 169.56 239.778 156.026 239.778 156.026L240.279 141.284C241.614 138.53 242.297 134.214 242.643 130.84C243.145 129.23 243.462 127.568 243.587 125.887C243.646 125.094 243.694 124.263 243.725 123.4C243.737 121.508 243.427 119.628 242.808 117.84C244.214 115.817 246.499 112.69 248.385 110.841C251.339 107.941 250.6 104.556 250.6 104.556L249.369 96.3375L246.415 82.3201C246.786 78.4315 245.973 76.1922 245.077 74.9279C245.29 73.672 245.49 72.416 245.639 71.1545C246.294 65.6685 246.002 60.1109 244.776 54.7236C244.349 52.844 243.767 50.9166 242.449 49.4921C240.956 47.8793 238.533 46.8959 237.976 44.7831C237.839 44.2577 237.833 43.6986 237.634 43.1928C237.094 41.8105 235.385 41.3075 233.889 41.1277C231.225 40.8046 227.371 40.5658 224.81 41.6054C223.023 42.3359 220.56 44.3476 219.582 46.5054C219.02 47.4972 218.759 48.5396 218.997 49.5202C219.092 49.8815 219.235 50.2283 219.422 50.5513C219.04 51.5848 218.846 52.678 218.849 53.7796C218.857 55.6732 219.436 57.5203 220.51 59.0804C221.584 60.6404 223.103 61.8411 224.869 62.5261C224.928 62.7115 224.982 62.8941 225.027 63.0739C225.139 63.5069 225.219 63.9472 225.269 64.3917C225.221 65.2346 225.167 66.1027 225.128 66.9597C225.1 67.0777 225.07 67.1938 225.038 67.3081C222.921 68.2451 220.856 69.2975 218.854 70.4605C220.333 72.6352 218.607 81.82 218.607 81.82C214.913 83.9946 211.22 89.5549 215.161 95.3541C219.102 101.153 216.884 107.436 216.884 107.436L216.268 116.884V116.901L216.144 118.792H216.192L216.144 119.509L216.251 119.528V120.298C214.523 120.933 211.996 122.214 210.489 124.583C209.777 125.748 208.909 126.811 207.911 127.744C207.682 127.942 207.504 128.192 207.391 128.474C207.278 128.755 207.234 129.059 207.263 129.361C207.292 129.663 207.393 129.953 207.557 130.208C207.721 130.463 207.944 130.675 208.207 130.826ZM237.934 105.719C237.786 104.084 238.088 102.44 238.808 100.965C239.388 100.976 239.968 100.983 240.548 100.985C240.607 101.392 240.678 101.78 240.762 102.134C241.262 104.263 239.264 105.283 237.932 105.716L237.934 105.719Z" fill="url(#paint1_linear)"/>
<path d="M238.421 199.39L239.368 202.231L236.276 205.321L226.089 207.69L218.745 206.979L219.22 204.374C219.36 203.814 219.652 203.304 220.063 202.899C220.475 202.494 220.99 202.21 221.553 202.079C224.571 201.371 230.328 199.752 231.537 197.508L238.421 199.39Z" fill="#DB8B8B"/>
<path opacity="0.1" d="M238.421 199.39L239.368 202.231L236.276 205.321L226.089 207.69L218.745 206.979L219.22 204.374C219.36 203.814 219.652 203.304 220.063 202.899C220.475 202.494 220.99 202.21 221.553 202.079C224.571 201.371 230.328 199.752 231.537 197.508L238.421 199.39Z" fill="black"/>
<path d="M221.125 206.257L222.548 204.363L221.125 202.169C221.125 202.169 216.861 203.888 214.967 203.652C213.072 203.416 212.125 206.743 215.678 207.678C219.231 208.614 239.368 207.678 239.368 207.678C239.368 207.678 242.921 206.021 239.368 201.523L236.276 203.891C236.276 203.891 231.065 206.732 228.459 206.26L221.125 206.257Z" fill="#2E3037"/>
<path d="M214.728 210.277L222.073 210.988L232.259 208.62L235.351 205.529L235.101 204.776L234.747 203.72L234.393 202.691L227.523 200.798C227.172 201.37 226.69 201.852 226.117 202.202C223.886 203.728 219.877 204.829 217.525 205.38C217.429 205.404 217.335 205.433 217.244 205.467C216.745 205.635 216.297 205.925 215.941 206.311C215.584 206.696 215.33 207.166 215.203 207.676L214.728 210.277Z" fill="#DB8B8B"/>
<path opacity="0.1" d="M214.728 210.277L222.073 210.988L232.259 208.62L235.351 205.529L235.101 204.776L232.273 206.951C232.273 206.951 227.062 209.791 224.456 209.319H217.097L218.52 207.426L217.244 205.459C216.745 205.626 216.297 205.916 215.941 206.302C215.584 206.688 215.33 207.158 215.203 207.667L214.728 210.277Z" fill="black"/>
<path d="M217.097 209.572L218.52 207.678L217.097 205.484C217.097 205.484 212.833 207.204 210.939 206.968C209.044 206.732 208.097 210.058 211.65 210.994C215.203 211.929 235.34 210.994 235.34 210.994C235.34 210.994 238.893 209.336 235.34 204.838L232.248 207.206C232.248 207.206 227.037 210.047 224.431 209.575L217.097 209.572Z" fill="#2E3037"/>
<path d="M223.02 72.2278C223.02 72.2278 234.393 73.4106 232.734 68.6764C232.27 67.3338 232.15 65.8967 232.383 64.4956C232.678 62.7585 233.365 61.1116 234.393 59.6799L223.731 61.3376C224.37 62.4054 224.856 63.5573 225.176 64.7597C226.446 69.7806 223.02 72.2278 223.02 72.2278Z" fill="#DB8B8B"/>
<path d="M242.446 126.218C242.446 126.218 242.21 136.4 239.84 141.373L239.365 155.818C239.365 155.818 240.076 169.079 241.499 171.684C242.921 174.289 238.407 196.311 238.407 196.311V200.101C238.407 200.101 230.817 202.941 228.692 199.626L230.826 171.445L229.878 132.374L242.446 126.218Z" fill="#474463"/>
<path opacity="0.1" d="M242.446 126.218C242.446 126.218 242.21 136.4 239.84 141.373L239.365 155.818C239.365 155.818 240.076 169.079 241.499 171.684C242.921 174.289 238.407 196.311 238.407 196.311V200.101C238.407 200.101 230.817 202.941 228.692 199.626L230.826 171.445L229.878 132.374L242.446 126.218Z" fill="black"/>
<path d="M247.185 93.5391L248.607 97.3293L249.79 105.382C249.95 106.503 249.84 107.647 249.469 108.718C249.098 109.788 248.477 110.755 247.657 111.538C244.815 114.378 241.023 120.298 241.023 120.298L236.526 106.812C236.526 106.812 241.023 106.101 240.318 103.022C239.612 99.9423 239.84 94.2387 239.84 94.2387L247.185 93.5391Z" fill="#FC6681"/>
<path opacity="0.05" d="M247.185 93.5391L248.607 97.3293L249.79 105.382C249.95 106.503 249.84 107.647 249.469 108.718C249.098 109.788 248.477 110.755 247.657 111.538C244.815 114.378 241.023 120.298 241.023 120.298L236.526 106.812C236.526 106.812 241.023 106.101 240.318 103.022C239.612 99.9423 239.84 94.2387 239.84 94.2387L247.185 93.5391Z" fill="black"/>
<path opacity="0.1" d="M226.129 202.205C229.167 206.982 233.898 204.276 234.735 203.737L234.393 202.691L227.523 200.798C227.175 201.37 226.698 201.852 226.129 202.205Z" fill="black"/>
<path d="M216.625 135.454C216.861 138.769 220.889 150.845 220.889 150.845L223.731 160.783C225.767 167.809 226.818 175.085 226.854 182.4C226.854 184.825 227.076 187.325 227.762 189.205C229.656 194.414 225.867 201.52 225.867 201.52C229.184 207.44 234.862 203.413 234.862 203.413V199.626C234.862 199.626 239.359 179.023 238.179 174.999C236.998 170.976 236.52 160.08 236.52 160.08V140.413C240.315 136.633 242.623 131.614 243.022 126.274C243.078 125.499 243.123 124.684 243.154 123.838C243.345 118.5 239.691 112.232 238.263 110.001C237.92 109.461 237.701 109.158 237.701 109.158L216.783 117.452L216.735 117.472V118.281V120.071L216.625 135.454Z" fill="#474463"/>
<path opacity="0.1" d="M223.731 61.3348C224.37 62.4026 224.856 63.5545 225.176 64.7569C226.334 65.1961 227.568 65.399 228.806 65.3537C230.044 65.3083 231.26 65.0156 232.383 64.4928C232.678 62.7567 233.366 61.1107 234.393 59.6799L223.731 61.3348Z" fill="black"/>
<path d="M228.47 64.8834C233.573 64.8834 237.709 60.7486 237.709 55.6481C237.709 50.5475 233.573 46.4127 228.47 46.4127C223.367 46.4127 219.231 50.5475 219.231 55.6481C219.231 60.7486 223.367 64.8834 228.47 64.8834Z" fill="#DB8B8B"/>
<path opacity="0.1" d="M216.625 120.062L216.726 120.082C226.66 122.124 239.132 111.774 239.132 111.774C238.798 111.21 238.509 110.621 238.269 110.012C237.926 109.473 237.707 109.169 237.707 109.169L216.788 117.463L216.735 118.292L216.625 120.062Z" fill="black"/>
<path d="M219.231 71.989C219.231 71.989 232.498 63.9365 236.762 67.2519L242.685 74.838C242.685 74.838 246.476 76.0208 245.777 83.5985L248.607 97.3293L240.079 99.4618C240.079 99.4618 235.104 104.199 239.132 111.066C239.132 111.066 226.576 121.484 216.625 119.354L217.336 108.225C217.336 108.225 219.47 102.069 215.678 96.3852C211.886 90.7013 215.442 85.2562 218.995 83.1236C218.995 83.1208 220.65 74.1215 219.231 71.989Z" fill="#FC6681"/>
<path d="M218.52 120.298C218.52 120.298 213.544 121.245 211.175 125.035C210.491 126.172 209.657 127.212 208.696 128.126C208.479 128.322 208.312 128.566 208.206 128.838C208.1 129.11 208.059 129.403 208.087 129.694C208.114 129.984 208.209 130.265 208.363 130.512C208.518 130.76 208.728 130.969 208.977 131.121C210.857 132.245 213.924 132.944 217.797 129.764C224.442 124.324 218.52 120.298 218.52 120.298Z" fill="#DB8B8B"/>
<path opacity="0.1" d="M225.864 76.49C225.864 76.49 230.604 76.0152 231.787 88.3299C232.97 100.645 234.879 103.485 234.879 103.485C234.879 103.485 236.062 109.88 233.22 113.667C230.379 117.455 224.928 125.507 224.928 125.507C224.928 125.507 219.006 127.165 217.823 121.245L225.167 107.511C225.167 107.511 226.351 102.774 223.509 99.459C220.667 96.1436 218.52 74.1215 225.864 76.49Z" fill="black"/>
<path d="M225.381 75.7792C225.381 75.7792 230.12 75.3043 231.303 87.6191C232.487 99.9338 234.395 102.774 234.395 102.774C234.395 102.774 235.579 109.169 232.737 112.957C229.895 116.744 224.445 124.796 224.445 124.796C224.445 124.796 218.522 126.454 217.339 120.534L224.684 106.801C224.684 106.801 225.867 102.063 223.025 98.7481C220.184 95.4327 218.045 73.4106 225.381 75.7792Z" fill="#FC6681"/>
<path opacity="0.1" d="M221.479 84.6577C221.479 84.6577 221.007 91.9909 223.132 96.0256C225.257 100.06 225.266 105.261 223.132 108.107" fill="black"/>
<path opacity="0.1" d="M220.296 75.6612C220.296 75.6612 222.191 73.7675 227.641 73.5287C233.091 73.2899 235.458 71.635 235.458 71.635" fill="black"/>
<path opacity="0.1" d="M233.473 43.7154C234.913 43.8924 236.565 44.3869 237.077 45.7384C237.268 46.2357 237.274 46.7836 237.406 47.2977C237.943 49.3656 240.273 50.3294 241.709 51.9112C242.977 53.316 243.536 55.1957 243.958 57.036C245.141 62.3133 245.426 67.7521 244.801 73.1241C244.34 77.0576 243.396 80.9181 243.132 84.8628C242.867 88.8076 243.351 92.9574 245.507 96.2728C246.434 97.6973 247.66 98.9504 248.318 100.518C246.96 101.62 245.085 101.777 243.334 101.836C241.297 101.905 239.259 101.905 237.22 101.836C236.152 101.799 235.036 101.729 234.114 101.19C233.432 100.753 232.871 100.151 232.484 99.4393C231.318 97.4725 231.025 95.0843 231.079 92.7917C231.132 90.499 231.492 88.2175 231.534 85.922C231.556 84.6718 231.458 83.3428 230.738 82.3201C230.218 81.5811 229.429 81.0838 228.754 80.4854C226.224 78.2376 225.347 74.6357 225.263 71.25C225.179 67.8644 225.738 64.4731 225.451 61.0988C225.339 59.7782 224.844 58.1908 223.545 57.9351C223.135 57.8536 222.702 57.9351 222.309 57.7777C221.266 57.376 221.367 55.9065 221.069 54.8304C220.735 53.6223 219.703 52.6895 219.413 51.4588C218.73 48.593 222.379 45.1736 224.771 44.1762C227.202 43.1591 230.91 43.4007 233.473 43.7154Z" fill="black"/>
<path d="M233.71 43.2434C235.149 43.4204 236.802 43.9149 237.313 45.2663C237.504 45.7637 237.51 46.3115 237.642 46.8257C238.179 48.8936 240.509 49.8573 241.945 51.4392C243.213 52.844 243.772 54.7236 244.194 56.564C245.377 61.8413 245.662 67.2801 245.037 72.6521C244.576 76.5856 243.632 80.446 243.368 84.3908C243.103 88.3356 243.587 92.4854 245.743 95.8008C246.67 97.2253 247.896 98.4784 248.554 100.046C247.196 101.148 245.321 101.305 243.57 101.364C241.533 101.433 239.495 101.433 237.456 101.364C236.388 101.327 235.272 101.257 234.35 100.718C233.668 100.281 233.107 99.6791 232.72 98.9673C231.554 97.0005 231.261 94.6123 231.315 92.3196C231.368 90.027 231.728 87.7455 231.77 85.45C231.793 84.1997 231.694 82.8708 230.975 81.8481C230.455 81.1091 229.665 80.6118 228.99 80.0134C226.46 77.7656 225.583 74.1636 225.499 70.778C225.415 67.3924 225.974 64.0011 225.687 60.6267C225.575 59.3062 225.08 57.7187 223.782 57.4631C223.371 57.3816 222.938 57.4631 222.545 57.3057C221.502 56.9039 221.603 55.4345 221.305 54.3584C220.971 53.1502 219.939 52.2174 219.65 50.9868C218.967 48.121 222.615 44.7016 225.007 43.7042C227.439 42.6843 231.146 42.9259 233.71 43.2434Z" fill="#472727"/>
</g>
<defs>
<linearGradient id="paint0_linear" x1="134.466" y1="195.473" x2="134.466" y2="9.32806" gradientUnits="userSpaceOnUse">
<stop stop-color="#808080" stop-opacity="0.25"/>
<stop offset="0.54" stop-color="#808080" stop-opacity="0.12"/>
<stop offset="1" stop-color="#808080" stop-opacity="0.1"/>
</linearGradient>
<linearGradient id="paint1_linear" x1="-79151.1" y1="138754" x2="-79151.1" y2="33560.8" gradientUnits="userSpaceOnUse">
<stop stop-color="#808080" stop-opacity="0.25"/>
<stop offset="0.54" stop-color="#808080" stop-opacity="0.12"/>
<stop offset="1" stop-color="#808080" stop-opacity="0.1"/>
</linearGradient>
<clipPath id="clip0">
<rect width="271.429" height="225" fill="white"/>
</clipPath>
</defs>
</svg>
