<svg width="394" height="225" viewBox="0 0 394 225" fill="none" xmlns="http://www.w3.org/2000/svg">
<g clip-path="url(#clip0)">
<path opacity="0.1" d="M236.704 162.171C244.311 161.736 253.748 156.568 261.087 154.281C269.772 151.583 278.491 148.986 287.245 146.492C317.719 137.805 348.52 130.403 379.649 124.286C382.554 123.713 385.463 123.155 388.377 122.61C383.838 112.783 376.805 104.322 367.981 98.0694C368.207 95.9182 368.322 93.7568 368.325 91.5937C368.325 57.4086 341.055 29.6956 307.404 29.6956C297.043 29.6846 286.857 32.3636 277.838 37.4713C254.02 21.7752 222.933 12.2755 188.921 12.2755C140.59 12.2755 98.1621 31.4576 74.1207 60.343L187.11 79.4665L256.409 91.1903C177.408 93.5523 98.1621 95.9005 19.3881 90.3558C8.98948 100.436 2.40791 113.821 0.768144 128.223C-0.871625 142.626 2.53219 157.152 10.3979 169.319C10.3979 170.557 10.4495 171.784 10.5424 173.002C12.5491 173.577 14.4868 174.136 16.225 174.502C44.1294 180.407 72.2127 185.349 100.475 189.329C79.6483 202.194 54.2852 204.014 30.2609 209.462C41.8944 219.083 57.6926 224.979 75.1016 224.979H334.316C362.384 224.979 385.135 205.404 385.135 181.253C389.347 174.295 392.154 166.575 393.395 158.533C341.458 163.557 288.873 159.195 236.704 162.171Z" fill="#00B0FF"/>
<path opacity="0.1" d="M393.75 148.247C393.778 138.294 391.416 128.48 386.863 119.632C382.311 110.785 375.701 103.165 367.592 97.4143C367.816 95.2641 367.931 93.1039 367.936 90.942C367.936 56.7569 340.652 29.0543 307.015 29.0543C296.654 29.0432 286.467 31.7208 277.446 36.8265C253.628 21.1235 222.538 11.6203 188.525 11.6203C133.2 11.6203 85.5787 36.7747 64.4593 72.846C63.2857 72.7771 62.1051 72.7391 60.9142 72.7391C27.2734 72.7391 -0.00688483 100.452 -0.00688483 134.637C-0.0304643 146.712 3.45186 158.533 10.0158 168.66C10.0158 199.418 38.9929 224.352 74.723 224.352H333.944C362.009 224.352 384.76 204.773 384.76 180.622C390.662 170.86 393.773 159.66 393.75 148.247Z" fill="#00B0FF"/>
<path d="M321.567 110.324C321.075 109.946 320.499 109.693 319.887 109.586C319.244 109.438 318.586 109.345 317.932 109.241L309.459 108.017C308.603 107.858 307.731 107.812 306.863 107.879C306.428 107.915 306.005 108.037 305.617 108.239C305.229 108.44 304.886 108.716 304.606 109.052C304.353 109.364 304.215 109.753 304.213 110.155C304.26 110.56 304.392 110.95 304.599 111.3C304.681 111.464 304.751 111.633 304.809 111.807C304.89 112.197 304.991 112.582 305.112 112.962C305.149 113.044 305.198 113.121 305.256 113.19C305.258 113.209 305.258 113.229 305.256 113.248C305.163 113.724 305.463 114.221 305.328 114.679C305.211 115.072 304.829 115.31 304.588 115.638C304.428 115.87 304.339 116.145 304.333 116.427C304.326 116.71 304.403 116.988 304.554 117.227C304.812 117.627 305.28 117.9 305.414 118.358C305.59 118.962 305.115 119.545 304.692 120.01C303.913 120.867 303.193 121.776 302.537 122.731C302.353 122.966 302.234 123.245 302.193 123.541C302.155 124.141 302.73 124.669 302.63 125.265C302.551 125.734 302.093 126.02 301.697 126.3C300.234 127.265 299.061 128.817 298.944 130.572C298.568 127.779 297.413 125.15 295.612 122.986C295.12 122.393 294.579 121.796 294.376 121.045C294.301 120.745 294.287 120.424 294.184 120.134C293.839 119.22 292.745 118.827 292.266 117.986C291.922 117.393 291.922 116.631 291.495 116.11C291.069 115.59 290.398 115.472 290.029 114.969C289.845 114.628 289.689 114.273 289.561 113.907C289.407 113.608 289.189 113.347 288.924 113.141C288.874 113.101 288.821 113.063 288.766 113.028C288.823 112.976 288.869 112.914 288.9 112.844C288.932 112.773 288.948 112.698 288.949 112.621C288.949 112.217 288.549 111.952 288.202 111.752C287.754 111.497 287.317 111.221 286.89 110.935C287.356 110.717 287.759 110.387 288.064 109.972C288.446 109.355 288.604 108.624 288.511 107.904C288.488 107.322 288.271 106.765 287.895 106.321C287.678 106.09 287.407 105.924 287.179 105.707C286.591 105.131 286.391 104.28 286.147 103.493C285.823 102.459 285.317 101.373 284.374 100.824C283.92 100.559 283.39 100.435 282.946 100.156C282.502 99.8762 282.13 99.3487 282.285 98.8418C282.388 98.497 282.708 98.259 282.925 97.966C283.184 97.587 283.283 97.121 283.202 96.6691C283.12 96.2173 282.863 95.816 282.488 95.5522C282.233 95.3902 281.92 95.2488 281.869 94.9522C281.669 94.9004 281.489 94.7933 281.347 94.6433C281.206 94.4932 281.11 94.3063 281.07 94.104C280.993 93.6985 280.993 93.282 281.07 92.8765C281.16 92.2351 281.248 91.596 281.335 90.9593C281.487 91.0224 281.649 91.055 281.814 91.055C281.978 91.055 282.14 91.0224 282.292 90.9593C282.59 91.4435 282.936 91.8964 283.324 92.311C284.373 93.5509 285.189 94.9702 285.734 96.5005C285.93 97.0522 286.13 97.6694 286.639 97.9625C286.815 98.0625 287.014 98.1142 287.186 98.2211C287.398 98.3693 287.581 98.5565 287.723 98.7728C288.136 99.3211 288.549 99.8659 288.959 100.414L288.979 100.497C288.991 100.545 289.009 100.592 289.035 100.635C289.111 100.721 289.216 100.775 289.331 100.787C290.597 101.08 292.019 101.349 293.117 100.656C294.108 100.035 294.542 98.8073 295.381 97.9866C295.977 97.4039 296.82 96.9522 296.989 96.1315C296.788 96.0694 296.59 95.9969 296.397 95.9143C296.569 95.7419 296.741 95.5419 296.975 95.3143C297.315 94.9808 297.622 94.6147 297.89 94.2212C298.181 93.7359 298.412 93.2172 298.579 92.6765C299.242 90.7823 299.907 88.8869 300.575 86.9904C300.892 86.0939 301.208 85.1905 301.608 84.3181C302.021 83.3733 302.509 82.4664 302.96 81.5389C304.124 79.1266 305.022 76.5945 305.638 73.9874C305.747 73.6317 305.784 73.2575 305.745 72.8874C305.648 72.2909 305.198 71.8219 304.767 71.3978C304.335 70.9286 303.842 70.5192 303.301 70.1806C303.03 70.0115 302.727 69.8982 302.412 69.8473C302.096 69.7964 301.774 69.8089 301.463 69.8841C300.582 70.1427 300.028 71.0461 299.825 71.953C299.622 72.8598 299.697 73.7943 299.611 74.7115C299.488 76.039 299.033 77.3218 298.923 78.6528C298.865 79.4217 298.923 80.201 298.83 80.9699C298.661 81.9762 298.311 82.9435 297.798 83.825C296.681 85.9272 295.17 87.7936 293.347 89.3214C293.137 89.4972 292.92 89.6662 292.714 89.8559C292.714 89.7076 292.738 89.5559 292.759 89.4076C292.609 89.4467 292.463 89.4986 292.322 89.5628C292.339 89.3886 292.321 89.2128 292.27 89.0455C291.995 88.2214 290.769 88.0111 290.549 87.1732C290.512 86.966 290.493 86.7561 290.49 86.5456C290.418 85.8112 289.919 85.1905 289.747 84.4767C289.589 83.8181 289.709 83.0974 289.403 82.4871C289.142 82.1055 288.834 81.758 288.487 81.4527C288.074 80.9794 287.776 80.4163 287.617 79.8079C287.572 79.6389 287.53 79.4631 287.482 79.2941C287.535 78.9115 287.492 78.5219 287.358 78.1597C287.045 77.3804 286.236 76.8804 285.944 76.0908C285.717 75.477 285.816 74.7115 285.386 74.2356C285.158 74.0083 284.878 73.8392 284.57 73.7426C282.995 73.128 281.342 72.7368 279.659 72.5805C278.716 72.4943 277.676 72.4461 277.002 71.7806C276.214 71.0082 276.176 69.6186 275.253 69.022C274.441 68.4944 273.291 68.8841 272.662 69.6255C272.567 69.7345 272.48 69.8497 272.4 69.9703C272.285 69.5081 272.26 69.028 272.328 68.5565C272.328 68.4393 272.352 68.3186 272.362 68.2117C273.916 67.7029 275.239 66.6566 276.093 65.2601C276.093 65.2601 276.093 65.2601 276.093 65.2808L276.134 65.3876C276.234 65.6394 276.393 65.8807 276.627 65.9083C276.782 65.9064 276.933 65.8517 277.053 65.7532C277.261 65.6086 277.453 65.4421 277.625 65.2566C277.712 65.1601 277.795 65.0601 277.873 64.9566C278.031 64.7413 278.167 64.5102 278.279 64.267C278.45 63.9011 278.566 63.5118 278.623 63.1119C278.685 62.7119 278.692 62.3015 278.761 61.9016C278.825 61.5919 278.909 61.2867 279.012 60.9878C279.046 60.8878 279.081 60.7878 279.112 60.6878C279.143 60.5878 279.187 60.4533 279.222 60.343C279.437 59.6338 279.553 58.898 279.566 58.1568C279.566 58.0327 279.566 57.9086 279.566 57.7844C279.553 57.3007 279.445 56.8244 279.246 56.3832C279.048 55.9421 278.763 55.5452 278.409 55.2155C277.817 54.7294 277.033 54.5259 276.599 53.8673C276.317 53.4259 276.255 52.857 276.09 52.3398C275.911 51.7208 275.563 51.1643 275.085 50.7334C274.607 50.3025 274.018 50.0145 273.384 49.9019C272.622 49.8181 271.856 50.029 271.244 50.4916L271.195 50.5295C270.854 50.7906 270.565 51.1134 270.342 51.4812C269.887 51.3557 269.471 51.1187 269.13 50.7915C268.786 50.4709 268.521 50.0674 268.173 49.7571C267.848 49.459 267.45 49.2538 267.019 49.1628C266.588 49.0718 266.14 49.0985 265.723 49.2399C265.293 49.4124 264.91 49.6845 264.605 50.0339C264.301 50.3834 264.083 50.8002 263.971 51.2501C263.782 51.9605 263.816 52.7777 263.42 53.3708C263.114 53.8328 262.611 54.0604 262.26 54.4811C262.042 54.7475 261.893 55.0637 261.827 55.4017C261.785 55.5908 261.765 55.784 261.768 55.9776C261.768 56.0638 261.768 56.15 261.789 56.2328C261.789 56.2328 261.789 56.2603 261.789 56.2741C261.801 56.3686 261.82 56.462 261.847 56.5534C261.945 56.903 262.12 57.2259 262.36 57.4982C262.587 57.759 262.871 57.9642 263.19 58.0982C263.32 58.149 263.453 58.1916 263.589 58.2258L263.998 58.3189L264.143 58.3534C263.649 59.2831 263.374 60.3142 263.341 61.367C263.307 62.4199 263.516 63.4663 263.95 64.4256C263.95 64.5222 263.926 64.6187 263.916 64.7153C263.86 66.073 263.92 67.4331 264.095 68.7806C264.143 69.3151 264.17 69.9048 263.843 70.3289C263.695 70.4957 263.527 70.6449 263.344 70.7737C263.53 70.5323 263.72 70.2944 263.912 70.0565C263.427 69.5668 262.659 69.5048 261.971 69.553C260.639 69.6527 259.346 70.0485 258.185 70.7116C257.414 71.1564 256.622 71.7461 255.741 71.6426C255.222 71.584 254.709 71.2978 254.203 71.4357C253.918 71.5523 253.653 71.7103 253.415 71.9047C253.226 72.04 252.999 72.1102 252.768 72.1047C252.227 71.4392 251.391 70.9875 250.744 70.4461C250.007 69.7894 249.333 69.0656 248.73 68.2841C247.615 66.9359 246.503 65.5842 245.409 64.2222C244.486 63.0774 243.54 61.8395 243.378 60.374C243.362 60.2286 243.354 60.0824 243.354 59.9361C243.376 59.2398 243.464 58.5471 243.616 57.8672C243.656 57.703 243.656 57.5314 243.616 57.3672C243.512 57.0224 243.117 56.8948 242.776 56.8189C242.821 56.5534 242.852 56.281 242.869 56.0224C243.061 53.057 242.852 50.0433 243.478 47.1399C243.715 46.0227 244.104 44.8917 244.906 44.0814C246.163 42.809 248.266 42.5021 249.229 40.9953C250.035 39.7402 249.715 37.9644 248.703 36.8575C247.691 35.7506 246.132 35.2989 244.648 35.3541C244.232 35.3398 243.821 35.4502 243.468 35.6713C243.137 35.9651 242.89 36.341 242.752 36.7609L241.275 40.3574C240.847 41.2937 240.486 42.2593 240.194 43.247C239.781 44.7572 239.688 46.3503 239.361 47.8744C239.361 49.0468 238.608 50.5088 238.195 51.5881C237.733 52.8018 237.234 54.0018 236.818 55.2397C236.715 55.55 236.353 56.4707 236.13 57.3086C236.045 57.3579 235.966 57.4169 235.895 57.4844C235.716 57.7152 235.552 57.9583 235.407 58.212C235.094 58.6258 234.584 58.8465 234.24 59.2465C233.896 59.6464 233.823 60.3809 234.302 60.5809C234.399 60.6136 234.499 60.6356 234.601 60.6464C234.664 60.6517 234.726 60.6621 234.787 60.6774C235.303 60.8223 235.507 61.474 235.431 62.0119C235.355 62.5498 235.087 63.0463 235.042 63.5843C234.949 64.536 235.507 65.4221 236.043 66.2221C236.599 67.0893 237.213 67.9176 237.881 68.7013C238.367 69.2462 238.914 69.7358 239.403 70.2599C241.265 72.1771 242.745 74.4184 244.418 76.5011C245.019 77.2872 245.704 78.0062 246.459 78.6459C246.952 79.0322 247.468 79.388 248.004 79.7113L250.881 81.5389C251.208 81.7785 251.577 81.9529 251.969 82.0527C252.097 82.0699 252.227 82.0699 252.355 82.0527C252.372 82.1389 252.386 82.2216 252.406 82.3078C252.63 83.2112 253.122 84.0319 253.177 84.9526C253.232 85.8732 253.15 86.8146 253.215 87.7456C253.277 88.6042 253.466 89.4697 253.514 90.3145C253.611 91.942 253.212 93.5488 252.826 95.1419C252.244 97.4729 251.893 99.8521 250.761 101.966C250.444 102.549 250.073 103.142 250.073 103.807C250.073 103.886 250.073 103.969 250.093 104.049L249.577 104.342C249.425 104.428 249.274 104.514 249.136 104.604C248.482 105.031 247.784 105.504 247.515 106.242C247.298 106.838 247.398 107.521 247.137 108.1C247.124 108.126 247.11 108.151 247.095 108.176C246.82 108.714 246.273 109.114 246.149 109.704C246.056 110.155 246.235 110.635 246.149 111.083C246.149 111.083 246.149 111.083 246.149 111.1C246.07 111.325 246.008 111.556 245.963 111.79C245.959 111.866 245.966 111.943 245.984 112.017C246.049 112.279 246.193 112.513 246.397 112.69C246.521 112.809 246.655 112.916 246.799 113.01C246.946 113.107 247.098 113.197 247.254 113.279L247.343 113.328C247.474 113.397 247.605 113.462 247.739 113.524L247.828 113.562C247.983 113.631 248.142 113.693 248.3 113.748L248.41 113.783C248.534 113.824 248.661 113.862 248.789 113.893L248.875 113.921L248.954 113.938L249.298 114.01L249.425 114.034C249.577 114.06 249.732 114.08 249.89 114.096H250.028C250.145 114.096 250.258 114.114 250.372 114.117H250.534C250.654 114.117 250.771 114.117 250.878 114.117H251.002C251.164 114.117 251.325 114.093 251.487 114.072H251.539C251.683 114.052 251.828 114.028 251.972 113.996L252.083 113.972C252.217 113.941 252.351 113.91 252.485 113.869L252.558 113.848C252.719 113.8 252.881 113.748 253.039 113.686C253.587 113.461 254.119 113.197 254.63 112.897C254.974 112.707 255.318 112.514 255.662 112.338C255.917 112.209 256.179 112.094 256.447 111.993C257.098 111.715 257.806 111.596 258.512 111.648C258.86 111.696 259.205 111.766 259.545 111.859C259.545 111.897 259.545 111.934 259.545 111.972C259.825 113.628 260.101 115.283 260.374 116.938C260.825 116.613 261.301 116.326 261.799 116.079C261.706 116.329 261.645 116.59 261.617 116.855C261.596 117.06 261.596 117.267 261.617 117.472C261.648 117.8 261.716 118.162 261.52 118.421C261.4 118.579 261.176 118.669 261.111 118.848C261.063 119.031 261.051 119.222 261.076 119.41C261.062 119.624 260.972 119.827 260.821 119.98C260.671 120.133 260.471 120.227 260.257 120.245C260.356 120.522 260.358 120.825 260.264 121.104C260.169 121.383 259.984 121.622 259.737 121.782C259.593 121.852 259.459 121.94 259.338 122.045C259.22 122.197 259.141 122.376 259.107 122.565C258.653 124.273 257.717 125.813 256.412 127.003C255.923 127.388 255.476 127.825 255.08 128.306C254.836 128.679 254.634 129.078 254.478 129.496C253.56 131.744 252.629 133.994 251.683 136.244C251.16 137.503 250.651 138.782 250.486 140.137C250.073 143.854 246.768 147.006 247.388 150.695C247.513 151.617 247.884 152.488 248.462 153.216C249.15 154.047 250.183 154.523 251.215 154.909C253.869 155.943 256.667 156.509 259.455 157.078L263.833 157.978C264.692 158.176 265.564 158.314 266.442 158.392C267.499 158.464 268.583 158.364 269.612 158.633C270.249 158.799 270.858 159.105 271.515 159.14C272.08 159.171 272.775 159.05 273.109 159.512C273.443 159.974 273.185 160.585 273.501 160.995C274.011 161.647 275.253 160.995 275.807 161.609C275.959 161.845 276.075 162.101 276.152 162.371C276.236 162.538 276.353 162.685 276.496 162.805C276.529 163 276.543 163.198 276.537 163.395C276.465 164.196 276.299 164.985 276.041 165.747C275.628 167.147 275.217 168.548 274.806 169.95C274.649 170.445 274.534 170.953 274.462 171.467C274.436 171.717 274.436 171.969 274.462 172.219C274.534 172.981 274.971 173.767 275.697 174.015C276.261 174.165 276.86 174.09 277.37 173.808C277.862 173.551 278.324 173.239 278.747 172.877C279.509 172.3 280.179 171.609 280.733 170.829C282.454 168.25 281.896 164.76 283.104 161.909C283.906 160.005 285.469 158.461 285.988 156.454C286.11 156.072 286.124 155.664 286.03 155.275C285.813 154.585 285.08 154.192 284.395 153.944H284.364C283.801 153.743 283.226 153.578 282.643 153.45C282.498 153.419 282.35 153.395 282.202 153.371C281.875 153.104 281.614 152.764 281.442 152.378C281.415 152.173 281.36 151.972 281.28 151.782C281.225 151.699 281.152 151.631 281.066 151.583C280.979 151.535 280.883 151.509 280.784 151.506C280.44 151.471 279.979 151.595 279.604 151.568C278.836 151.513 278.327 150.757 277.639 150.409C276.95 150.061 276.203 150.147 275.47 150.199C275.208 150.235 274.941 150.218 274.685 150.151C274.38 150.01 274.1 149.817 273.859 149.582C273.436 149.251 272.941 149.024 272.415 148.918C271.889 148.812 271.345 148.831 270.827 148.971C270.498 149.105 270.149 149.184 269.794 149.206C269.123 149.168 268.648 148.568 268.153 148.113C266.797 146.868 264.866 146.54 263.221 145.723C262.969 145.629 262.759 145.448 262.628 145.213C262.439 144.744 262.866 144.275 263.251 143.954L266.081 141.599C269.178 139.02 273.05 137.079 274.489 133.296C274.639 132.789 274.872 132.31 275.178 131.879C275.289 131.747 275.417 131.631 275.56 131.534C276.186 131.128 276.944 130.979 277.676 131.12C278.569 131.32 279.415 131.69 280.168 132.21C281.4 132.957 282.599 133.761 283.765 134.623C284.92 135.45 286.018 136.353 287.052 137.327C288.859 139.051 290.363 141.096 292.046 142.954C293.729 144.813 295.653 146.547 297.99 147.437C300.327 148.326 303.153 148.289 305.16 146.795C307.476 145.071 308.22 141.989 308.805 139.161C310.095 137.913 310.484 136.013 311.114 134.334C311.51 133.268 312.016 132.265 312.443 131.203C312.952 129.955 313.351 128.665 313.751 127.379C314.203 126.087 314.51 124.749 314.666 123.389C314.831 121.241 314.257 118.955 314.859 116.938C315.654 116.762 316.377 116.314 317.158 116.052C318.321 115.669 319.567 115.731 320.8 115.738H320.879C321.303 115.783 321.731 115.682 322.09 115.452C322.503 115.107 322.569 114.517 322.589 113.983C322.638 112.662 322.555 111.179 321.567 110.324ZM271.698 51.5053C271.413 51.5758 271.119 51.5969 270.827 51.5674L271.698 51.5053Z" fill="url(#paint0_linear)"/>
<path d="M273.054 73.3184C272.637 73.673 272.149 73.933 271.622 74.0805L269.182 74.9563C267.857 75.4322 266.473 75.9115 265.076 75.739C264.294 75.6425 260.945 75.1494 260.439 74.5391C259.668 73.5943 262.37 72.2047 263.293 71.4081C263.502 71.2575 263.696 71.0866 263.871 70.8978C264.215 70.4771 264.17 69.8875 264.122 69.3565C263.947 68.0112 263.887 66.6534 263.943 65.298C263.97 64.9748 264.016 64.6536 264.081 64.3359C264.425 62.7498 265.898 63.3291 267.062 63.7498C268.462 64.2055 269.816 64.7932 271.106 65.5049C271.499 65.7078 271.84 65.9979 272.104 66.3531C272.613 67.1255 272.41 68.1393 272.328 69.1117C272.255 69.8668 272.259 70.5909 272.73 71.1392C272.968 71.3488 273.185 71.5796 273.381 71.8288C273.491 72.0798 273.519 72.3593 273.46 72.6271C273.401 72.8948 273.259 73.1369 273.054 73.3184Z" fill="#BE6F72"/>
<path d="M239.344 48.4675C239.688 46.9399 239.764 45.3641 240.177 43.8504C240.469 42.8662 240.83 41.904 241.258 40.9712L242.776 37.423C242.915 37.004 243.162 36.6293 243.492 36.3368C243.846 36.1173 244.256 36.0069 244.672 36.0196C246.156 35.9644 247.715 36.4265 248.727 37.5195C249.739 38.6126 250.059 40.3815 249.253 41.6332C248.29 43.1401 246.187 43.4435 244.93 44.7124C244.128 45.5227 243.74 46.6503 243.502 47.7641C242.876 50.6605 243.086 53.6639 242.893 56.6224C242.831 57.5431 242.652 58.5947 241.86 59.0706C241.382 59.3055 240.85 59.409 240.318 59.3706L238.06 59.4085C237.682 59.4085 236.309 59.6464 236.057 59.3602C235.617 58.8603 236.622 56.3707 236.804 55.8155C237.21 54.5845 237.709 53.3846 238.181 52.1743C238.59 51.095 239.344 49.6364 239.344 48.4675Z" fill="#BE6F72"/>
<path d="M285.964 156.795C285.445 158.788 283.882 160.34 283.08 162.24C281.872 165.085 282.416 168.564 280.709 171.136C280.155 171.917 279.485 172.609 278.723 173.188C278.3 173.548 277.838 173.859 277.346 174.115C276.836 174.397 276.237 174.471 275.673 174.322C274.947 174.074 274.51 173.288 274.438 172.529C274.412 172.28 274.412 172.03 274.438 171.781C274.51 171.268 274.625 170.761 274.782 170.267C275.195 168.872 275.607 167.474 276.017 166.074C276.274 165.315 276.441 164.528 276.513 163.729C276.558 162.861 276.007 161.73 276.241 160.919C276.348 160.554 276.747 160.23 276.929 159.923C277.188 159.481 277.387 159.007 277.521 158.512C277.804 157.55 277.996 156.523 278.588 155.712C278.975 155.232 279.427 154.808 279.931 154.454C280.303 154.127 280.739 153.882 281.211 153.733C281.669 153.653 282.14 153.675 282.588 153.799C283.172 153.924 283.747 154.087 284.309 154.288H284.34C285.028 154.537 285.758 154.919 285.975 155.616C286.08 156.002 286.076 156.411 285.964 156.795Z" fill="#3F3D56"/>
<path d="M322.586 114.403C322.565 114.938 322.5 115.534 322.087 115.869C321.727 116.099 321.3 116.2 320.875 116.155H320.782C319.554 116.155 318.304 116.086 317.141 116.469C316.256 116.762 315.444 117.3 314.522 117.407C313.252 117.552 312.057 116.855 310.932 116.248C309.872 115.676 308.784 115.158 307.672 114.696C306.943 114.396 305.452 114.203 305.101 113.403C304.981 113.025 304.88 112.64 304.798 112.252C304.741 112.078 304.67 111.909 304.588 111.745C304.382 111.395 304.251 111.007 304.203 110.603C304.204 110.202 304.343 109.812 304.595 109.5C304.876 109.167 305.22 108.893 305.607 108.694C305.994 108.494 306.416 108.373 306.85 108.338C307.717 108.271 308.589 108.317 309.445 108.476L317.919 109.697C318.573 109.79 319.23 109.883 319.874 110.041C320.485 110.148 321.061 110.401 321.553 110.779C322.555 111.621 322.637 113.1 322.586 114.403Z" fill="#3F3D56"/>
<path d="M315.138 116.61C314.105 118.793 314.849 121.376 314.663 123.789C314.507 125.146 314.2 126.481 313.747 127.769C313.348 129.051 312.949 130.337 312.439 131.582C312.013 132.617 311.507 133.651 311.111 134.706C310.481 136.389 310.078 138.282 308.801 139.534C308.216 142.354 307.473 145.437 305.156 147.147C303.143 148.637 300.338 148.689 297.987 147.789C295.636 146.889 293.726 145.165 292.043 143.306C290.36 141.447 288.856 139.423 287.049 137.692C286.013 136.719 284.913 135.817 283.755 134.992C282.589 134.144 281.39 133.347 280.158 132.599C279.404 132.082 278.558 131.714 277.666 131.513C276.934 131.373 276.175 131.521 275.549 131.927C275.407 132.024 275.279 132.14 275.167 132.272C274.861 132.701 274.628 133.179 274.479 133.686C273.033 137.458 269.154 139.396 266.057 141.968L263.227 144.316C262.842 144.637 262.415 145.106 262.604 145.571C262.735 145.807 262.945 145.988 263.196 146.082C264.842 146.896 266.773 147.223 268.129 148.464C268.624 148.92 269.099 149.52 269.77 149.554C270.125 149.533 270.473 149.455 270.803 149.323C271.321 149.183 271.864 149.164 272.39 149.27C272.916 149.375 273.411 149.601 273.835 149.93C274.076 150.165 274.356 150.358 274.661 150.499C274.917 150.567 275.184 150.583 275.446 150.547C276.179 150.495 276.957 150.43 277.614 150.757C278.272 151.085 278.812 151.857 279.58 151.913C279.955 151.94 280.402 151.816 280.76 151.851C280.859 151.854 280.955 151.88 281.041 151.928C281.128 151.976 281.201 152.044 281.256 152.126C281.336 152.316 281.391 152.515 281.418 152.72C281.559 153.206 282.034 153.502 282.344 153.902C282.819 154.516 282.887 155.35 282.839 156.126C282.683 158.552 281.604 160.826 279.824 162.478C279.319 162.995 278.674 163.355 277.969 163.512C277.616 163.586 277.248 163.547 276.918 163.401C276.589 163.254 276.313 163.007 276.131 162.695C276.054 162.427 275.938 162.171 275.787 161.936C275.233 161.326 273.99 161.974 273.481 161.323C273.164 160.916 273.391 160.264 273.088 159.843C272.785 159.423 272.056 159.499 271.495 159.474C270.837 159.44 270.228 159.13 269.591 158.968C268.559 158.699 267.478 158.799 266.421 158.726C265.543 158.649 264.672 158.51 263.813 158.312L259.434 157.416C256.647 156.847 253.848 156.271 251.195 155.254C250.179 154.868 249.157 154.392 248.441 153.564C247.864 152.837 247.493 151.968 247.367 151.047C246.744 147.368 250.048 144.223 250.465 140.516C250.613 139.165 251.153 137.889 251.663 136.634C252.597 134.39 253.528 132.145 254.457 129.899C254.608 129.481 254.804 129.081 255.043 128.706C255.439 128.226 255.885 127.791 256.375 127.406C257.679 126.221 258.615 124.684 259.07 122.979C259.103 122.789 259.183 122.611 259.3 122.458C259.422 122.356 259.556 122.269 259.699 122.2C259.945 122.039 260.13 121.801 260.224 121.523C260.319 121.244 260.317 120.942 260.219 120.665C260.433 120.648 260.633 120.554 260.783 120.4C260.934 120.247 261.024 120.045 261.038 119.831C261.013 119.644 261.025 119.454 261.073 119.272C261.155 119.093 261.362 119.003 261.482 118.845C261.679 118.586 261.61 118.224 261.579 117.9C261.558 117.695 261.558 117.488 261.579 117.283C261.654 116.553 261.98 115.871 262.501 115.355C263.324 114.545 264.494 114.755 265.63 114.562C266.763 114.317 267.869 113.963 268.934 113.503C271.921 112.325 275.065 111.596 278.265 111.341C281.481 111.088 284.711 111.603 287.689 112.845C288.122 113.021 288.531 113.253 288.904 113.534C289.169 113.739 289.386 113.999 289.541 114.297C289.668 114.662 289.824 115.016 290.009 115.355C290.377 115.859 291.072 116.021 291.475 116.496C291.878 116.972 291.912 117.776 292.246 118.365C292.724 119.207 293.833 119.596 294.163 120.51C294.266 120.8 294.28 121.117 294.356 121.417C294.542 122.169 295.099 122.762 295.591 123.355C297.396 125.517 298.551 128.147 298.923 130.941C299.033 129.193 300.207 127.644 301.677 126.679C302.072 126.42 302.53 126.134 302.609 125.665C302.709 125.072 302.134 124.544 302.172 123.941C302.214 123.646 302.333 123.368 302.516 123.134C303.172 122.182 303.892 121.275 304.671 120.42C305.094 119.955 305.569 119.386 305.394 118.772C305.26 118.314 304.791 118.045 304.533 117.645C304.383 117.406 304.306 117.129 304.312 116.846C304.318 116.564 304.407 116.29 304.568 116.059C304.809 115.731 305.191 115.493 305.308 115.103C305.442 114.645 305.143 114.148 305.235 113.676C305.361 113.298 305.611 112.973 305.945 112.755C306.401 112.339 306.92 111.997 307.483 111.741C308.392 111.397 309.404 111.524 310.367 111.659C311.978 111.883 313.785 112.228 314.694 113.579C315.275 114.424 315.571 115.707 315.138 116.61Z" fill="#65617D"/>
<path opacity="0.1" d="M322.586 114.403C322.565 114.938 322.5 115.534 322.087 115.869C321.727 116.099 321.3 116.2 320.875 116.155H320.782C320.923 115.438 321.794 115.027 321.946 114.3C321.972 114.076 321.951 113.85 321.886 113.635C321.821 113.419 321.713 113.22 321.567 113.048C320.831 112.052 319.647 111.5 318.469 111.097C315.144 109.954 311.581 109.687 308.123 110.321C307.183 110.474 306.268 110.756 305.404 111.159C305.118 111.338 304.842 111.534 304.578 111.745C304.372 111.395 304.24 111.007 304.193 110.603C304.194 110.202 304.332 109.812 304.585 109.5C304.866 109.167 305.209 108.893 305.596 108.694C305.983 108.494 306.406 108.373 306.839 108.338C307.707 108.271 308.579 108.317 309.435 108.476L317.908 109.697C318.562 109.79 319.22 109.883 319.863 110.041C320.475 110.148 321.051 110.401 321.543 110.779C322.555 111.621 322.638 113.1 322.586 114.403Z" fill="black"/>
<path opacity="0.1" d="M285.964 156.795C285.445 158.788 283.882 160.34 283.08 162.24C281.872 165.085 282.416 168.564 280.709 171.136C280.155 171.917 279.485 172.609 278.723 173.188C278.3 173.548 277.838 173.859 277.346 174.115C276.836 174.397 276.237 174.471 275.673 174.322C274.947 174.074 274.51 173.288 274.438 172.529C274.412 172.28 274.412 172.03 274.438 171.781L274.458 171.836C274.758 172.56 275.246 173.319 276.017 173.446C276.307 173.467 276.597 173.428 276.871 173.331C277.145 173.235 277.395 173.083 277.607 172.884C278.743 171.971 279.404 170.609 280.034 169.295C280.527 168.347 280.917 167.35 281.197 166.319C281.335 165.733 281.4 165.133 281.542 164.547C282.196 161.698 284.422 159.374 284.915 156.488C284.955 156.29 284.964 156.086 284.942 155.885C284.877 155.622 284.778 155.369 284.646 155.133C284.527 154.866 284.439 154.586 284.385 154.299C285.073 154.547 285.803 154.93 286.019 155.626C286.108 156.014 286.089 156.418 285.964 156.795Z" fill="black"/>
<path opacity="0.1" d="M280.767 151.85C280.449 152.685 279.913 153.418 279.215 153.975C278.235 154.722 277.088 155.22 275.873 155.423C275.307 155.567 274.714 155.56 274.152 155.402C273.388 155.137 272.837 154.419 272.056 154.212C271.498 154.061 270.899 154.195 270.335 154.112C269.319 153.971 268.531 153.195 267.712 152.575C265.203 150.685 261.909 150.075 259.4 148.185C259.288 148.116 259.196 148.02 259.132 147.906C259.083 147.782 259.066 147.648 259.08 147.516C259.089 146.37 259.346 145.239 259.834 144.202C260.233 143.479 260.708 142.8 261.252 142.178C263.499 139.42 265.757 136.641 268.449 134.313C269.578 133.337 270.81 132.427 272.235 131.986C273.026 131.741 274.589 131.51 275.553 131.924C275.411 132.021 275.282 132.137 275.171 132.268C274.864 132.698 274.632 133.176 274.482 133.682C273.033 137.458 269.154 139.396 266.057 141.968L263.227 144.316C262.842 144.637 262.415 145.106 262.604 145.571C262.735 145.807 262.945 145.988 263.196 146.082C264.842 146.895 266.773 147.223 268.129 148.464C268.624 148.92 269.099 149.52 269.77 149.554C270.125 149.533 270.473 149.455 270.803 149.323C271.321 149.183 271.864 149.164 272.39 149.27C272.916 149.375 273.411 149.601 273.835 149.93C274.076 150.165 274.356 150.358 274.661 150.499C274.917 150.567 275.184 150.583 275.446 150.547C276.179 150.495 276.957 150.43 277.614 150.757C278.272 151.085 278.812 151.857 279.58 151.913C279.962 151.94 280.409 151.809 280.767 151.85Z" fill="black"/>
<path d="M249.112 105.052C248.458 105.473 247.763 105.948 247.495 106.679C247.274 107.276 247.378 107.959 247.113 108.538C246.848 109.117 246.252 109.521 246.121 110.141C246.028 110.593 246.211 111.069 246.121 111.521C246.043 111.756 245.98 111.995 245.932 112.238C245.898 112.752 246.338 113.169 246.768 113.455C247.684 114.052 248.727 114.425 249.813 114.545C250.9 114.665 251.999 114.528 253.022 114.145C253.941 113.8 254.771 113.238 255.652 112.797C256.511 112.301 257.494 112.062 258.484 112.107C259.052 112.169 259.596 112.376 260.164 112.452C260.445 112.507 260.734 112.494 261.008 112.412C261.282 112.33 261.533 112.183 261.737 111.983C261.912 111.74 262.03 111.461 262.081 111.166C262.56 109.273 262.343 107.266 261.888 105.362C261.434 103.459 260.746 101.628 260.26 99.7349C259.916 98.3315 259.651 96.8936 259.076 95.566C258.502 94.2385 257.535 93.004 256.182 92.4971C256.075 92.4447 255.954 92.4289 255.838 92.4523C255.751 92.4887 255.674 92.5454 255.614 92.6178C254.544 93.7538 253.738 95.1126 253.253 96.597C252.712 98.2487 252.564 100 252.069 101.659C251.855 102.349 251.58 103.273 251.036 103.8C250.492 104.328 249.728 104.655 249.112 105.052Z" fill="#3F3D56"/>
<path opacity="0.1" d="M262.092 111.155C262.034 111.451 261.91 111.731 261.73 111.972C261.526 112.173 261.276 112.321 261.002 112.402C260.727 112.483 260.437 112.495 260.157 112.438C259.593 112.369 259.049 112.159 258.481 112.093C257.49 112.047 256.507 112.286 255.648 112.783C254.767 113.224 253.927 113.772 253.015 114.128C251.681 114.634 250.223 114.717 248.84 114.365C248.106 114.18 247.408 113.873 246.775 113.455C246.342 113.172 245.904 112.765 245.939 112.238C245.987 111.996 246.05 111.758 246.128 111.524C246.218 111.072 246.039 110.597 246.128 110.145C246.259 109.524 246.858 109.11 247.119 108.538C247.381 107.966 247.281 107.279 247.498 106.683C247.766 105.948 248.465 105.476 249.119 105.052C249.773 104.628 250.551 104.304 251.074 103.79C251.142 103.71 251.203 103.625 251.257 103.535C251.634 102.952 251.911 102.31 252.076 101.635C252.582 99.9728 252.719 98.2246 253.256 96.5694C253.743 95.0862 254.551 93.7288 255.621 92.5937C255.678 92.5197 255.754 92.4625 255.841 92.4282C255.957 92.4045 256.078 92.419 256.185 92.4696C257.534 92.9799 258.502 94.2143 259.08 95.5419C259.658 96.8694 259.902 98.3004 260.264 99.7073C260.746 101.6 261.438 103.438 261.892 105.338C262.346 107.238 262.57 109.259 262.092 111.155Z" fill="black"/>
<path opacity="0.1" d="M272.328 69.1013C270.709 69.6165 268.958 69.5142 267.41 68.814C265.862 68.1139 264.628 66.8653 263.943 65.3084C263.97 64.9852 264.016 64.664 264.081 64.3463C264.425 62.7602 265.898 63.3395 267.062 63.7601C268.462 64.2159 269.816 64.8035 271.106 65.5152C271.499 65.7181 271.84 66.0083 272.104 66.3635C272.613 67.1255 272.41 68.1393 272.328 69.1013Z" fill="black"/>
<path d="M270.249 69.0807C274.051 69.0807 277.133 65.9931 277.133 62.1843C277.133 58.3756 274.051 55.288 270.249 55.288C266.447 55.288 263.365 58.3756 263.365 62.1843C263.365 65.9931 266.447 69.0807 270.249 69.0807Z" fill="#BE6F72"/>
<path opacity="0.1" d="M288.928 113.721C288.928 114.293 288.153 114.476 287.579 114.445C285.513 114.324 283.493 113.755 281.449 113.928C278.864 114.162 276.489 115.593 273.897 115.724C272.899 115.776 271.884 115.628 270.899 115.81C269.626 116.048 268.49 116.824 267.192 116.934C266.067 117.031 264.955 116.607 263.83 116.652C263.043 116.699 262.276 116.918 261.582 117.293C261.658 116.563 261.984 115.882 262.505 115.365C263.327 114.555 264.497 114.765 265.633 114.572C266.766 114.327 267.873 113.973 268.937 113.514C271.924 112.335 275.068 111.606 278.268 111.352C281.482 111.096 284.711 111.607 287.689 112.845C288.122 113.021 288.53 113.253 288.904 113.534C288.922 113.595 288.931 113.658 288.928 113.721Z" fill="black"/>
<path d="M267.065 74.777L264.277 73.7425L263.1 73.3081C262.62 73.1067 262.115 72.9721 261.599 72.9081C260.25 72.8046 258.98 73.7046 258.261 74.8528C257.541 76.0011 257.27 77.37 257.039 78.7044C256.722 80.5297 256.454 82.3618 256.234 84.2008C255.996 85.8615 255.876 87.5368 255.872 89.2145C255.951 93.4833 256.853 97.6935 257.844 101.849C258.33 103.691 258.697 105.562 258.942 107.452C259.025 108.231 259.063 109.014 259.145 109.797C259.235 110.676 259.379 111.545 259.524 112.417L260.353 117.372C261.386 116.638 262.56 115.993 263.83 115.955C264.955 115.914 266.07 116.334 267.192 116.238C268.483 116.131 269.626 115.355 270.899 115.117C271.884 114.934 272.899 115.079 273.901 115.031C276.489 114.9 278.867 113.465 281.449 113.234C283.497 113.048 285.531 113.628 287.582 113.748C288.153 113.783 288.928 113.6 288.928 113.024C288.928 112.624 288.529 112.359 288.181 112.159C286.542 111.17 284.983 110.055 283.517 108.824C282.161 107.748 280.784 106.645 279.852 105.19C277.604 101.69 278.375 96.9556 276.458 93.2626C274.899 90.2627 276.458 86.3318 276.458 82.9491C276.458 81.263 276.458 79.5561 276.062 77.9183C275.815 77.0022 275.507 76.1037 275.14 75.2287L273.801 71.8322C273.773 71.733 273.718 71.6434 273.642 71.5736C273.552 71.5115 273.445 71.479 273.336 71.4805C272.532 71.4322 271.739 71.6868 271.113 72.1943C270.483 72.7081 270.08 73.446 269.461 73.9805C268.783 74.5701 267.908 75.0873 267.065 74.777Z" fill="#E3E8F4"/>
<path d="M271.564 72.8185C271.784 71.8737 272.021 70.8909 272.651 70.153C273.281 69.4151 274.431 69.0255 275.243 69.553C276.165 70.153 276.203 71.5392 276.991 72.3116C277.68 72.9736 278.712 73.0253 279.649 73.1115C281.332 73.265 282.985 73.655 284.56 74.2701C284.867 74.3655 285.147 74.5334 285.376 74.7598C285.806 75.2494 285.72 76.0011 285.933 76.6114C286.226 77.3976 287.035 77.8976 287.348 78.6803C287.692 79.5493 287.348 80.5217 287.059 81.4147C286.539 83.0181 286.212 84.6836 285.706 86.2939C285.2 87.9042 284.481 89.4903 283.297 90.7041C282.774 91.242 281.996 91.7385 281.308 91.4179L281.042 93.3316C280.965 93.736 280.965 94.1513 281.042 94.5557C281.082 94.758 281.179 94.9449 281.32 95.095C281.461 95.245 281.642 95.3521 281.841 95.404C281.893 95.7005 282.206 95.8419 282.461 96.0039C282.649 96.1327 282.809 96.2977 282.933 96.4891C283.057 96.6806 283.142 96.8948 283.182 97.1193C283.223 97.3438 283.219 97.5742 283.17 97.7971C283.121 98.02 283.029 98.2309 282.898 98.4177C282.681 98.7108 282.361 98.9418 282.257 99.29C282.103 99.7935 282.471 100.324 282.918 100.6C283.366 100.876 283.892 101.004 284.347 101.269C285.29 101.814 285.796 102.886 286.119 103.928C286.36 104.714 286.56 105.566 287.152 106.138C287.379 106.355 287.651 106.521 287.868 106.748C288.243 107.193 288.46 107.75 288.484 108.331C288.578 109.052 288.42 109.783 288.036 110.4C287.348 111.386 286.064 111.679 284.939 112.124C283.111 112.876 281.607 114.221 279.996 115.365C279.34 115.895 278.567 116.259 277.742 116.427C276.627 116.576 275.529 116.083 274.407 116.038C273.735 116.044 273.067 116.132 272.417 116.3L270.352 116.748C270.462 115.145 269.581 113.538 269.089 112.01C268.16 109.135 267.987 106.059 268.208 103.045C268.428 100.031 269.041 97.0591 269.646 94.1006C270.07 92.0317 270.028 89.8696 270.679 87.8594C271.288 85.9249 272.159 84.0664 272.479 82.0526C273.002 78.7941 270.827 76.0321 271.564 72.8185Z" fill="#3F3D56"/>
<path d="M287.221 79.1941C287.411 79.5445 287.544 79.9227 287.616 80.3148C287.776 80.9222 288.074 81.4841 288.487 81.9561C288.834 82.2621 289.141 82.6095 289.403 82.9906C289.719 83.5905 289.599 84.3215 289.747 84.9767C289.919 85.6905 290.418 86.3111 290.49 87.0456C290.493 87.2561 290.512 87.466 290.549 87.6732C290.773 88.5076 291.998 88.7076 292.27 89.5421C292.452 90.0835 292.139 90.6731 292.198 91.242C292.24 91.418 292.251 91.6002 292.229 91.7799C292.151 91.9832 292.014 92.1584 291.836 92.2834C290.697 93.3736 289.909 94.7795 289.571 96.3212C289.24 97.8545 289.066 99.4177 289.052 100.987L287.706 99.2039C287.563 98.9876 287.381 98.8004 287.169 98.6521C286.997 98.5487 286.797 98.497 286.622 98.3935C286.112 98.1039 285.913 97.4901 285.717 96.9384C285.172 95.4112 284.355 93.9953 283.307 92.7592C282.76 92.1144 282.123 91.4662 282.003 90.6283C281.967 90.2434 281.988 89.8553 282.065 89.4766C282.409 87.218 282.777 84.9043 283.875 82.9009C284.388 81.963 285.052 81.1148 285.544 80.1631C285.875 79.532 286.34 77.8907 287.221 79.1941Z" fill="#3F3D56"/>
<path d="M253.267 81.363C253.273 81.6533 253.199 81.9397 253.053 82.1906C252.922 82.3433 252.75 82.4564 252.558 82.5173C252.366 82.5782 252.161 82.5844 251.966 82.5354C251.574 82.4368 251.204 82.2636 250.878 82.0251C249.919 81.4182 248.96 80.8101 248.001 80.201C247.465 79.8776 246.949 79.523 246.455 79.1389C245.7 78.5005 245.016 77.7826 244.414 76.9976C242.741 74.9287 241.261 72.684 239.399 70.7909C238.893 70.2737 238.367 69.7772 237.878 69.2358C237.21 68.4533 236.596 67.6261 236.04 66.76C235.503 65.9635 234.946 65.0807 235.038 64.129C235.094 63.5911 235.352 63.0946 235.427 62.5601C235.503 62.0257 235.3 61.374 234.784 61.2291C234.723 61.2138 234.661 61.2034 234.598 61.1981C234.496 61.1873 234.396 61.1653 234.298 61.1326C233.82 60.9326 233.892 60.1912 234.236 59.8016C234.581 59.412 235.09 59.1947 235.403 58.7671C235.549 58.5134 235.712 58.2703 235.892 58.0396C236.123 57.8416 236.398 57.7031 236.694 57.6361C238.679 57.05 240.779 56.9706 242.803 57.4051C243.147 57.481 243.54 57.6189 243.643 57.9534C243.684 58.1163 243.684 58.287 243.643 58.4499C243.491 59.1298 243.404 59.8225 243.382 60.5188C243.381 60.664 243.389 60.8091 243.406 60.9533C243.567 62.4153 244.514 63.6532 245.436 64.7945C246.531 66.1531 247.643 67.5014 248.758 68.8461C249.361 69.6254 250.035 70.3469 250.771 71.0013C251.46 71.5736 252.351 72.0357 252.888 72.7702C253.325 73.3632 253.184 74.1736 253.232 74.8873C253.392 77.0425 253.404 79.2062 253.267 81.363Z" fill="#3F3D56"/>
<path d="M296.978 95.7488C297.318 95.4177 297.625 95.0539 297.894 94.6626C298.183 94.1778 298.414 93.6605 298.582 93.1213L300.579 87.4491C300.895 86.5525 301.212 85.6526 301.611 84.7802C302.024 83.8388 302.513 82.9319 302.964 82.0216C304.123 79.626 305.02 77.1114 305.638 74.5219C305.747 74.1661 305.783 73.792 305.745 73.4219C305.648 72.8254 305.198 72.3598 304.767 71.9357C304.335 71.4676 303.842 71.0594 303.301 70.722C303.03 70.5529 302.727 70.4396 302.412 70.3887C302.096 70.3378 301.774 70.3503 301.463 70.4254C300.582 70.684 300.028 71.5875 299.825 72.4943C299.622 73.4012 299.697 74.3288 299.611 75.2529C299.488 76.577 299.033 77.8562 298.923 79.1838C298.865 79.9527 298.923 80.7286 298.83 81.4941C298.661 82.4993 298.311 83.4655 297.798 84.3457C296.679 86.4426 295.168 88.304 293.347 89.8283C292.848 90.1972 292.399 90.6296 292.012 91.1145C291.688 91.5994 291.469 92.1467 291.368 92.7213C291.14 93.5963 291.239 94.5249 291.647 95.3316C292.208 96.2902 293.285 96.7108 294.314 96.9246C295.705 97.2143 296.025 96.7384 296.978 95.7488Z" fill="#BE6F72"/>
<path d="M270.29 52.1915C270.586 51.6337 271.04 51.1756 271.595 50.8746C272.149 50.5735 272.78 50.4427 273.408 50.4985C274.041 50.6107 274.63 50.8983 275.108 51.3285C275.586 51.7588 275.935 52.3145 276.114 52.9329C276.276 53.4466 276.341 54.0156 276.623 54.457C277.05 55.1225 277.842 55.3156 278.434 55.7983C278.787 56.1273 279.071 56.5236 279.27 56.9642C279.469 57.4047 279.577 57.8805 279.59 58.3637C279.623 59.3507 279.468 60.335 279.132 61.2637C278.99 61.6599 278.875 62.0654 278.788 62.4774C278.719 62.8774 278.712 63.2843 278.65 63.6843C278.574 64.2029 278.395 64.701 278.124 65.1493C277.852 65.5976 277.494 65.987 277.071 66.2945C276.95 66.3931 276.799 66.4478 276.644 66.4497C276.375 66.4187 276.21 66.1049 276.11 65.8221C275.563 64.2394 275.694 62.305 274.685 61.043C274.227 60.5339 273.672 60.1203 273.054 59.8258C272.802 59.6628 272.518 59.5558 272.221 59.512C271.784 59.5355 271.365 59.6892 271.016 59.9533C270.29 60.4415 269.484 60.7986 268.635 61.0085C268.211 61.1091 267.77 61.1136 267.344 61.0217C266.918 60.9298 266.519 60.7439 266.174 60.4775C265.699 60.0844 265.351 59.4947 264.824 59.1879C264.298 58.881 263.747 58.8982 263.227 58.6879C262.896 58.5467 262.601 58.3317 262.366 58.0592C262.13 57.7867 261.96 57.4639 261.867 57.1153C261.775 56.7668 261.763 56.4018 261.833 56.048C261.903 55.6943 262.053 55.3612 262.271 55.0742C262.615 54.6604 263.124 54.4259 263.43 53.9673C263.826 53.3742 263.792 52.5605 263.981 51.8501C264.093 51.4007 264.311 50.9846 264.615 50.6362C264.92 50.2878 265.303 50.0171 265.733 49.8468C266.15 49.7049 266.597 49.6777 267.028 49.7681C267.46 49.8585 267.858 50.0631 268.184 50.3605C268.528 50.6709 268.803 51.0709 269.141 51.395C269.474 51.7143 269.881 51.9448 270.326 52.0653C270.771 52.1858 271.239 52.1925 271.687 52.0846" fill="#3F3D56"/>
<path opacity="0.1" d="M275.949 102.945C275.748 103.124 275.606 103.359 275.541 103.62C275.476 103.881 275.491 104.155 275.584 104.407C275.659 104.569 279.211 103.883 279.587 103.831C280.523 103.697 282.165 103.762 282.794 102.904C283.916 101.383 280.44 101.721 279.803 101.776C278.592 101.88 276.871 102.045 275.949 102.945Z" fill="black"/>
<path d="M243.636 58.4637C243.484 59.1436 243.397 59.8363 243.375 60.5326C242.342 60.7429 241.268 60.3981 240.277 60.0533L237.431 59.0809C237.257 58.9701 237.049 58.9294 236.847 58.9672C236.645 59.005 236.465 59.1184 236.343 59.2844C235.885 59.7602 235.255 60.6636 234.622 61.1981C234.52 61.1873 234.42 61.1653 234.323 61.1326C233.844 60.9326 233.916 60.1912 234.261 59.8016C234.605 59.412 235.114 59.1947 235.427 58.7671C235.573 58.5134 235.736 58.2703 235.916 58.0396C236.147 57.8416 236.422 57.7031 236.718 57.6361C238.703 57.05 240.804 56.9706 242.827 57.4051C243.172 57.481 243.564 57.6189 243.667 57.9534C243.701 58.1233 243.69 58.2991 243.636 58.4637Z" fill="#3F3D56"/>
<path opacity="0.1" d="M243.636 58.4637C243.484 59.1436 243.397 59.8363 243.375 60.5326C242.342 60.7429 241.268 60.3981 240.277 60.0533L237.431 59.0809C237.257 58.9701 237.049 58.9294 236.847 58.9672C236.645 59.005 236.465 59.1184 236.343 59.2844C235.885 59.7602 235.255 60.6636 234.622 61.1981C234.52 61.1873 234.42 61.1653 234.323 61.1326C233.844 60.9326 233.916 60.1912 234.261 59.8016C234.605 59.412 235.114 59.1947 235.427 58.7671C235.573 58.5134 235.736 58.2703 235.916 58.0396C236.147 57.8416 236.422 57.7031 236.718 57.6361C238.703 57.05 240.804 56.9706 242.827 57.4051C243.172 57.481 243.564 57.6189 243.667 57.9534C243.701 58.1233 243.69 58.2991 243.636 58.4637Z" fill="black"/>
<path opacity="0.1" d="M269.674 123.927C270.17 124.093 270.707 124.334 270.875 124.831L266.89 123.817L264.824 123.289C264.46 123.196 263.152 123.089 262.911 122.803C262.567 122.382 263.788 122.672 264.009 122.703C264.676 122.803 265.344 122.907 266.008 123.027C267.261 123.251 268.466 123.62 269.674 123.927Z" fill="black"/>
<path opacity="0.1" d="M271.219 127.462C270.875 127.231 269.887 127.258 269.464 127.158C268.845 127.01 268.235 126.813 267.626 126.624C266.39 126.22 265.165 125.762 263.895 125.465C263.661 125.413 262.863 125.4 262.9 125.103C262.938 124.807 263.699 124.703 263.888 124.689C265.014 124.607 266.418 125.134 267.464 125.51C268.798 125.988 270.061 126.645 271.219 127.462Z" fill="black"/>
<path opacity="0.1" d="M268.693 120.776C267.43 120.431 266.284 119.645 264.983 119.493C264.644 119.506 264.31 119.404 264.036 119.203C263.883 119.053 263.777 118.861 263.73 118.652C264.601 118.607 265.613 118.976 266.404 119.324C266.84 119.511 267.259 119.735 267.657 119.993C267.946 120.169 268.38 120.676 268.693 120.776Z" fill="black"/>
<path d="M292.772 89.9007C292.559 91.3343 292.868 92.797 293.643 94.021C294.418 95.245 295.607 96.1485 296.992 96.566C296.823 97.3832 295.98 97.8349 295.385 98.4177C294.545 99.2349 294.111 100.459 293.12 101.08C292.015 101.769 290.594 101.5 289.334 101.211C289.219 101.198 289.114 101.143 289.038 101.056C289.012 101.014 288.993 100.969 288.983 100.921C288.566 99.3935 288.295 97.7625 288.721 96.2315C289.066 94.9281 289.892 93.8178 290.552 92.6661C291.213 91.5144 291.275 90.28 292.772 89.9007Z" fill="#3F3D56"/>
<path d="M261.999 70.1289C260.666 70.226 259.373 70.6207 258.213 71.284C257.442 71.7254 256.65 72.3185 255.769 72.2116C255.249 72.153 254.736 71.8668 254.23 72.0047C253.945 72.1199 253.679 72.278 253.442 72.4736C253.322 72.5697 253.179 72.6328 253.027 72.657C252.875 72.6812 252.719 72.6655 252.575 72.6116L252.231 77.3838C252.1 79.1976 251.972 81.0492 252.406 82.8181C252.63 83.7216 253.122 84.5422 253.177 85.4594C253.232 86.3766 253.15 87.318 253.215 88.2456C253.277 89.1041 253.466 89.9489 253.514 90.8075C253.611 92.4282 253.212 94.035 252.826 95.6108C252.244 97.9349 251.893 100.311 250.761 102.414C250.444 102.997 250.073 103.59 250.073 104.252C250.073 104.335 250.073 104.414 250.093 104.493C249.749 104.683 249.429 104.862 249.136 105.048C248.482 105.473 247.784 105.945 247.515 106.679C247.298 107.276 247.398 107.959 247.137 108.535C246.875 109.11 246.276 109.521 246.145 110.141C246.052 110.593 246.231 111.069 246.145 111.521C246.067 111.754 246.004 111.993 245.956 112.234C245.922 112.752 246.359 113.169 246.792 113.452C247.425 113.869 248.123 114.177 248.858 114.362L250.912 106.19C252.786 102.72 254.344 99.0879 255.569 95.3384C255.92 94.1128 256.37 92.9181 256.915 91.7661C257.305 91.1145 257.65 90.4371 257.948 89.7386C258.261 88.8697 258.292 87.9283 258.443 87.0111C258.623 85.9406 258.894 84.8874 259.252 83.8629C259.624 82.7561 260.054 81.6527 260.13 80.4906C260.243 78.8286 259.641 77.0735 260.281 75.5356C260.553 74.96 260.906 74.4269 261.331 73.9529C262.219 72.8633 263.028 71.7219 263.916 70.6323C263.455 70.1392 262.687 70.0875 261.999 70.1289Z" fill="#3F3D56"/>
<g opacity="0.1">
<path opacity="0.1" d="M271.698 51.0571L271.268 51.0881L271.219 51.1226C271.381 51.116 271.541 51.0941 271.698 51.0571Z" fill="black"/>
<path opacity="0.1" d="M279.573 58.2155C279.501 58.901 279.353 59.5764 279.132 60.2292C278.99 60.6254 278.875 61.031 278.788 61.4429C278.719 61.8429 278.712 62.2498 278.65 62.6498C278.574 63.1685 278.395 63.6666 278.124 64.1148C277.852 64.5631 277.494 64.9525 277.071 65.2601C276.95 65.3587 276.8 65.4134 276.644 65.4152C276.375 65.3842 276.21 65.0704 276.11 64.7877C275.563 63.205 275.694 61.2705 274.685 60.0085C274.227 59.4994 273.672 59.0858 273.054 58.7913C272.802 58.6284 272.518 58.5214 272.221 58.4775C271.785 58.501 271.365 58.6547 271.016 58.9189C270.29 59.4071 269.484 59.7642 268.635 59.974C268.211 60.0746 267.77 60.0791 267.344 59.9873C266.918 59.8954 266.519 59.7095 266.174 59.443C265.699 59.0499 265.351 58.4603 264.824 58.1534C264.298 57.8465 263.747 57.8637 263.227 57.6534C262.903 57.5145 262.613 57.3041 262.381 57.0379C262.149 56.7716 261.979 56.4564 261.885 56.1155C261.873 56.0725 261.864 56.0287 261.858 55.9845C261.771 56.3694 261.781 56.7696 261.885 57.15C261.979 57.4908 262.149 57.8061 262.381 58.0723C262.613 58.3386 262.903 58.5489 263.227 58.6879C263.747 58.8982 264.332 58.9017 264.824 59.1879C265.317 59.474 265.699 60.0844 266.174 60.4775C266.519 60.7439 266.918 60.9298 267.344 61.0217C267.77 61.1136 268.211 61.1091 268.635 61.0085C269.484 60.7986 270.29 60.4415 271.016 59.9533C271.365 59.6892 271.785 59.5355 272.221 59.512C272.518 59.5558 272.802 59.6628 273.054 59.8258C273.665 60.126 274.211 60.543 274.661 61.0533C275.67 62.3153 275.539 64.2498 276.086 65.8325C276.186 66.1187 276.351 66.429 276.62 66.46C276.785 66.4609 276.945 66.4021 277.071 66.2945C277.496 65.9861 277.856 65.5952 278.128 65.1451C278.4 64.6949 278.578 64.1947 278.654 63.6739C278.716 63.2739 278.723 62.867 278.792 62.4671C278.879 62.0551 278.994 61.6495 279.136 61.2533C279.471 60.3246 279.626 59.3404 279.594 58.3534C279.587 58.312 279.58 58.2637 279.573 58.2155Z" fill="black"/>
</g>
<path d="M257.796 85.8835L257.562 89.0317C257.528 89.4593 256.712 99.6383 250.696 111.534C245.533 121.738 235.486 135.027 216.518 142.496C215.038 143.082 213.502 143.629 211.909 144.137L210.133 138.551C214.592 137.145 218.887 135.263 222.944 132.937C232.612 127.344 240.129 119.362 245.371 109.09C248.152 103.621 250.134 97.7795 251.257 91.7454H229.676V85.8835H257.796Z" fill="#00B0FF"/>
<path opacity="0.1" d="M214.195 142.499C233.159 135.03 243.209 121.745 248.369 111.541C254.385 99.6453 255.204 89.4732 255.235 89.0387L255.469 85.8905H257.879L257.645 89.0387C257.614 89.4663 256.795 99.6453 250.778 111.541C245.615 121.745 235.569 135.03 216.604 142.499C215.124 143.085 213.586 143.634 211.992 144.144L211.758 143.409C212.588 143.113 213.401 142.809 214.195 142.499Z" fill="white"/>
<path d="M176.224 138.551L174.448 144.137C172.853 143.627 171.316 143.078 169.836 142.492C150.871 135.023 140.821 121.738 135.661 111.534C129.645 99.6383 128.826 89.4662 128.795 89.0317L128.561 85.8835H156.667V91.7454H135.083C136.211 97.7803 138.199 103.621 140.986 109.09C146.228 119.362 153.741 127.344 163.41 132.934C167.467 135.262 171.763 137.145 176.224 138.551Z" fill="#00B0FF"/>
<path opacity="0.1" d="M172.155 142.499C153.191 135.03 143.141 121.745 137.981 111.541C131.965 99.6453 131.146 89.4732 131.115 89.0387L130.881 85.8905H128.471L128.705 89.0387C128.736 89.4663 129.555 99.6453 135.572 111.541C140.735 121.745 150.781 135.03 169.746 142.499C171.226 143.085 172.764 143.634 174.358 144.144L174.592 143.409C173.764 143.113 172.952 142.809 172.155 142.499Z" fill="white"/>
<path d="M225.646 192.549V224.159H160.708V192.549L162.773 189.791C183.817 182.308 188.081 162.795 188.931 155.075C189.058 154.008 189.13 152.935 189.148 151.861H197.178C197.196 152.935 197.268 154.008 197.395 155.075C198.259 162.795 202.523 182.315 223.553 189.791L225.646 192.549Z" fill="#00B0FF"/>
<path opacity="0.1" d="M225.646 192.549H160.708V196.515H225.646V192.549Z" fill="black"/>
<path opacity="0.1" d="M166.215 189.791C187.258 182.308 191.523 162.795 192.373 155.075C192.5 154.008 192.572 152.935 192.59 151.861H189.148C189.13 152.935 189.058 154.008 188.931 155.075C188.067 162.795 183.803 182.315 162.773 189.791L160.708 192.549V224.159H164.15V192.549L166.215 189.791Z" fill="white"/>
<path opacity="0.1" d="M150.843 85.8835H156.667V91.7454H151.36C151.151 89.8145 150.979 87.8605 150.843 85.8835Z" fill="black"/>
<path opacity="0.1" d="M176.224 138.551L174.448 144.137C172.853 143.627 171.316 143.078 169.836 142.492C167.401 139.514 165.25 136.314 163.41 132.934C167.467 135.262 171.763 137.145 176.224 138.551Z" fill="black"/>
<path opacity="0.1" d="M210.13 138.551C214.588 137.145 218.883 135.263 222.94 132.937C221.099 136.317 218.948 139.519 216.514 142.499C215.034 143.085 213.498 143.632 211.906 144.14L210.13 138.551Z" fill="black"/>
<path opacity="0.1" d="M235.507 85.8835C235.371 87.8605 235.199 89.8145 234.99 91.7454H229.686V85.8835H235.507Z" fill="black"/>
<path opacity="0.1" d="M197.408 155.075C194.613 155.617 191.74 155.617 188.945 155.075C189.071 154.008 189.144 152.935 189.162 151.861H197.192C197.21 152.935 197.282 154.008 197.408 155.075Z" fill="black"/>
<path d="M151.532 76.1735C151.68 119.641 170.266 154.792 193.178 154.792C216.091 154.792 234.674 119.641 234.825 76.1735H151.532Z" fill="#00B0FF"/>
<path opacity="0.1" d="M158.932 76.1735H151.532C151.68 119.641 170.266 154.792 193.178 154.792C194.418 154.79 195.656 154.685 196.878 154.478C175.697 150.933 159.073 117.276 158.932 76.1735Z" fill="white"/>
<path d="M215.261 204.649H171.092V216.028H215.261V204.649Z" fill="#3F3D56"/>
<path opacity="0.1" d="M173.157 206.201H215.261V204.649H171.092V216.028H173.157V206.201Z" fill="white"/>
<path d="M127.976 118.141C127.181 117.876 122.5 114.165 122.145 112.486C121.791 110.807 124.62 95.1626 124.62 95.1626C124.62 95.1626 124.358 95.1626 123.931 95.1109V94.8592L124.513 74.3081C124.513 74.3081 126.898 60.5154 122.393 61.3188C117.888 62.1222 120.713 74.3081 120.713 74.3081C120.713 74.3081 120.2 80.4941 119.839 82.3492C119.495 84.1388 117.918 91.4282 118.992 93.6937C119.032 93.7742 119.075 93.8524 119.123 93.9282C119.123 93.9282 119.302 101.704 117.357 102.766C115.502 103.776 114.731 108.862 114.666 109.317L114.566 109.276C114.012 108.929 113.526 108.484 113.131 107.962C113.09 107.91 113.059 107.855 113.021 107.8C114.287 106.373 114.97 104.52 114.932 102.61C114.894 100.701 114.139 98.8765 112.818 97.5005C112.203 96.861 111.482 96.3336 110.687 95.9419C110.664 95.283 110.508 94.6356 110.229 94.0385C109.334 92.1213 104.378 89.6145 100.857 89.5559C99.2326 89.5076 97.9006 89.9697 97.4153 91.242C97.1674 91.8868 97.2432 92.6213 97.1399 93.2902C96.9334 94.6695 96.0488 95.7488 94.913 96.6074C94.4544 96.0945 93.9586 95.6162 93.4296 95.1764C92.28 94.2937 89.9877 91.3834 89.9877 91.3834C89.9877 91.3834 82.8321 83.9595 82.302 81.9251C81.772 79.8907 74.6232 67.6738 73.0331 69.8013C71.4429 71.9288 78.5091 81.201 78.5091 81.201C78.5091 81.201 79.8514 84.5698 80.884 85.7077C81.9165 86.8456 89.8328 98.3625 89.8328 98.3625L90.2114 99.1487C88.5387 100.031 87.0105 101.156 86.4701 102.907C85.6785 105.486 87.4098 108.079 88.6075 110.493C90.9411 115.203 91.275 121.21 88.2633 125.513C85.5649 129.313 80.884 131.12 76.5025 132.699C78.6185 134.364 81.2473 135.238 83.9369 135.172C82.925 138.11 79.3386 139.082 76.2822 139.627C77.8861 141.172 80.1818 141.734 82.3846 142.075C83.4635 142.259 84.5566 142.345 85.651 142.334H85.9194L86.1879 142.313C86.561 142.288 86.9322 142.241 87.2996 142.172C88.8898 141.847 90.4351 140.978 91.2474 139.572C91.9358 138.368 92.1767 136.727 93.4261 136.123C93.7515 135.976 94.102 135.893 94.4587 135.879H94.4208C94.6549 135.879 94.8958 135.879 95.1299 135.879L100.337 135.93C100.554 135.93 100.778 135.93 101.002 135.93C102.471 135.896 104.041 135.641 104.788 134.423C105.095 133.832 105.257 133.176 105.259 132.51C105.369 130.858 105.259 129.158 105.304 127.493C105.748 130.524 106.213 135.248 105.108 136.992C104.21 138.314 103.122 139.496 101.879 140.499C101.567 140.762 101.281 141.056 101.026 141.375C100.857 141.496 100.757 141.561 100.757 141.561L100.651 141.882C100.258 142.478 99.974 143.139 99.8108 143.834C99.7507 144.012 99.7285 144.201 99.7454 144.389C99.8659 144.633 98.8849 145.644 99.1706 146.068C96.72 148.947 96.2554 153.309 96.2554 153.309L91.7809 160.116C89.4818 166.167 86.0399 166.788 86.0399 166.788C86.0399 166.788 77.9549 161.354 77.7347 161.088C77.5144 160.823 74.4236 159.495 74.4236 159.495C74.0592 158.855 73.5028 158.346 72.8334 158.04C71.7733 157.599 71.6839 155.971 71.6839 155.971C71.5531 152.126 69.2986 151.833 69.2986 151.833C67.4813 151.678 66.0943 152.002 65.0273 152.595L64.7037 152.619C63.1411 152.747 61.2619 152.888 59.1967 153.026C53.4523 153.406 52.0858 157.133 52.0858 157.133C52.0858 157.133 51.3803 157.93 52.3061 158.792C53.232 159.654 59.1589 158.792 59.4101 158.771C58.9584 158.82 58.5017 158.788 58.0609 158.678C58.9937 158.643 60.2775 158.609 61.372 158.609H61.637C61.5681 159.19 61.5348 159.775 61.5372 160.361C61.5372 161.464 64.5833 162.171 64.5833 162.171L73.8591 170.446C73.8591 170.446 79.6896 173.057 83.4 176.812C87.1103 180.567 90.3904 177.326 90.3904 177.326C94.3176 176.353 105.617 162.667 105.628 162.654C105.628 163.054 105.865 176.364 106.316 179.036C106.334 179.171 106.367 179.305 106.416 179.432C106.946 180.581 106.237 183.719 105.93 185.043C105.735 186.151 105.66 187.277 105.707 188.401C105.707 188.401 101.47 204.608 101.821 206.032C102.172 207.456 99.5251 214.073 99.5251 214.073V219.59L99.9863 219.566C99.9264 219.655 99.8712 219.747 99.8211 219.842L99.7901 219.9C99.7901 219.9 102.616 220.517 104.516 220.342C106.416 220.166 109.679 221.807 109.679 221.807C109.679 221.807 110.783 222.331 114.184 222.552C117.585 222.772 117.585 221.048 117.585 221.048C117.196 218.7 111.823 217.914 111.658 217.89C111.224 217.617 110.818 217.321 110.484 217.066L110.415 217.011C110.438 216.959 110.457 216.906 110.474 216.852C111.049 214.507 107.868 213.49 107.868 213.49V212.918C109.933 211.856 110.343 204.566 110.343 204.566C110.343 204.566 113.441 195.553 113.874 194.049C114.308 192.546 113.874 190.294 113.874 190.294L114.184 188.349C114.184 188.349 114.848 187.025 114.848 186.76C114.934 186.087 115.193 185.448 115.599 184.905C116.084 184.329 115.069 182.96 115.069 182.96L115.953 180.663V178.143L118.018 168.998C118.018 168.998 120.183 158.347 119.433 154.861C118.683 151.375 120.317 149.602 120.317 149.602C120.17 149.68 120.018 149.749 119.863 149.809C120.07 149.331 120.248 148.84 120.397 148.34L125.043 148.916V148.985H126.719C126.719 148.985 126.189 142.434 126.189 139.792C126.189 137.151 127.976 127.672 127.976 127.672C127.976 127.672 128.771 118.407 127.976 118.141ZM107.349 110.493C107.349 110.752 107.324 111.021 107.307 111.297L107.214 111.438L107.042 111.293L106.832 111.621L106.77 111.652C106.316 111.417 106.082 110.076 105.755 110.366L105.71 110.404C105.638 110.321 105.566 110.297 105.49 110.366L105.421 110.424C105.421 110.324 105.421 110.221 105.421 110.117C106.051 110.28 106.698 110.362 107.349 110.362C107.352 110.407 107.349 110.452 107.349 110.493ZM122.802 141.003H122.902L122.737 141.437C122.758 141.292 122.778 141.151 122.802 141.003ZM105.838 219.197L105.204 219.038L105.548 218.979L105.868 219.19L105.906 219.217L105.838 219.197ZM112.308 218.269C112.098 218.159 111.885 218.031 111.678 217.9C111.747 217.938 112.019 218.08 112.308 218.269Z" fill="url(#paint1_linear)"/>
<path d="M125.088 134.489L120.92 145.371H121.932L118.011 148.502L125.088 149.385V134.489Z" fill="#F86D70"/>
<path opacity="0.1" d="M125.088 134.489L120.92 145.371L119.87 145.089L118.011 148.502L125.088 149.385V134.489Z" fill="black"/>
<path d="M118.552 141.451H125.088L127.487 121.676H118.552V141.451Z" fill="#F86D70"/>
<path opacity="0.1" d="M118.552 141.451H125.088L127.487 121.676H118.552V141.451Z" fill="black"/>
<path d="M105.786 126.358L107.197 126.12L110.439 125.568C110.439 125.568 120.176 123.369 122.186 123.189C123.404 123.028 124.592 122.689 125.711 122.182C126.237 121.955 126.571 121.782 126.571 121.782L123.064 115.365L117.622 111.324C117.622 111.324 114.181 110.59 112.725 108.583C112.4 108.151 112.188 107.644 112.109 107.109C112.031 106.574 112.087 106.028 112.274 105.521C113.162 102.762 106.97 108.159 106.97 108.159C106.97 108.159 107.028 109.452 106.97 111.1C106.97 111.424 106.939 111.762 106.915 112.107C106.915 112.334 106.884 112.562 106.86 112.796C106.708 114.434 106.399 116.121 105.786 117.127C104.289 119.589 105.786 126.358 105.786 126.358Z" fill="#FBBEBE"/>
<path opacity="0.1" d="M106.97 111.238H107.108C107.355 111.238 107.555 110.71 107.796 110.686C109.734 110.5 111.503 110.093 112.732 108.717C112.408 108.286 112.197 107.78 112.118 107.246C112.039 106.711 112.095 106.166 112.281 105.659C113.169 102.9 106.977 108.293 106.977 108.293C106.977 108.293 107.042 109.59 106.97 111.238Z" fill="black"/>
<path d="M99.4322 103.417C99.4317 104.41 99.6266 105.393 100.006 106.31C100.385 107.228 100.94 108.061 101.641 108.763C102.342 109.465 103.173 110.022 104.089 110.401C105.005 110.781 105.986 110.976 106.977 110.976C107.225 110.976 107.469 110.976 107.713 110.941C109.167 110.799 110.548 110.236 111.689 109.322C112.83 108.408 113.681 107.182 114.14 105.793C114.598 104.403 114.645 102.91 114.273 101.495C113.901 100.08 113.127 98.8033 112.045 97.8202C110.963 96.8372 109.619 96.1899 108.177 95.957C106.735 95.7242 105.257 95.9157 103.921 96.5084C102.586 97.101 101.451 98.0694 100.654 99.2958C99.8568 100.522 99.4325 101.954 99.4322 103.417Z" fill="#FBBEBE"/>
<path d="M97.1158 91.9454C96.868 92.5868 96.9437 93.304 96.8439 93.9833C96.4756 96.4349 93.9872 97.9039 91.7362 98.9314C89.4852 99.959 86.9451 101.176 86.2292 103.545C85.4444 106.107 87.1585 108.676 88.3494 111.079C90.6692 115.762 90.9996 121.734 88.0052 126.017C85.3446 129.81 80.7084 131.61 76.3441 133.189C78.4446 134.844 81.0552 135.715 83.7269 135.651C82.7254 138.572 79.163 139.541 76.1273 140.078C77.7209 141.616 80.0028 142.175 82.1884 142.513C83.782 142.761 85.4169 142.923 87.007 142.603C88.5972 142.282 90.1047 141.416 90.9239 140.016C91.6123 138.82 91.8463 137.189 93.0888 136.585C93.6497 136.364 94.2539 136.276 94.8545 136.327L100.017 136.382C101.625 136.382 103.528 136.258 104.358 134.882C104.663 134.294 104.824 133.642 104.826 132.979C105.049 129.586 104.399 126 105.793 122.903C106.213 121.969 103.518 120.489 103.8 119.5C104.771 116.096 105.015 113.417 105.005 109.876C105.005 107.135 106.784 104.773 108.254 102.459C109.723 100.145 110.952 97.2246 109.792 94.7419C108.484 91.973 98.6612 87.949 97.1158 91.9454Z" fill="#3F3D56"/>
<path d="M103.989 218.204L105.304 219.076L105.507 219.21L105.545 219.235L107.104 220.269L110.746 220.883L113.947 220.662C113.947 220.662 114.869 218.731 113.42 218.776C112.956 218.752 112.504 218.621 112.098 218.393L111.899 218.293C111.689 218.183 111.479 218.059 111.272 217.928C110.842 217.655 110.436 217.359 110.109 217.107C109.627 216.735 109.307 216.452 109.307 216.452L103.989 218.204Z" fill="#FBBEBE"/>
<path opacity="0.1" d="M105.321 219.076L105.524 219.211L105.562 219.235L107.121 220.269L110.763 220.883L113.964 220.662C113.964 220.662 114.886 218.731 113.437 218.776C112.973 218.752 112.521 218.621 112.115 218.393C112.37 218.593 112.584 218.811 112.604 218.993C112.663 219.486 110.236 220.373 110.236 220.373L106.815 219.466C106.815 219.466 106.233 219.3 105.438 219.093L105.363 219.073L105.321 219.076Z" fill="black"/>
<path d="M99.4701 219.917C99.4701 219.917 102.275 220.531 104.161 220.355C106.047 220.179 109.297 221.807 109.297 221.807C109.297 221.807 110.395 222.324 113.771 222.545C117.148 222.766 117.148 221.048 117.148 221.048C116.762 218.714 111.427 217.945 111.262 217.911C111.327 217.945 111.606 218.086 111.888 218.276C112.267 218.524 112.677 218.848 112.708 219.11C112.766 219.6 110.339 220.49 110.339 220.49L106.918 219.586C106.918 219.586 106.337 219.417 105.542 219.21H105.466C104.287 218.889 103.089 218.641 101.879 218.469C100.406 218.311 99.6525 219.566 99.4976 219.848C99.4864 219.871 99.4771 219.894 99.4701 219.917Z" fill="#3F3D56"/>
<path d="M55.2558 157.909L56.7461 159.054C56.7461 159.054 57.1798 159.033 57.8269 159.012H58.0334C58.9593 158.978 60.2362 158.943 61.3204 158.943C62.0212 158.912 62.7235 158.951 63.4165 159.061C64.1599 159.323 65.4816 154.799 65.4816 154.799L63.9878 154.454L63.4922 154.337L63.148 154.254L61.933 153.968L58.2502 154.388L55.6619 156.057L55.2558 157.909Z" fill="#FBBEBE"/>
<path opacity="0.1" d="M55.2558 157.909L56.7461 159.054C56.7461 159.054 57.1798 159.033 57.8269 159.012C57.5299 158.898 57.2851 158.678 57.1385 158.395C56.1748 155.716 60.9555 154.571 60.9555 154.571L63.1824 154.475L63.6161 154.454H63.9603L63.4647 154.337L63.1205 154.254L61.9055 153.968L58.2227 154.388L55.6344 156.057L55.2558 157.909Z" fill="black"/>
<path d="M52.3164 159.119C53.2182 159.954 59.1245 159.119 59.3723 159.099C58.924 159.149 58.4703 159.118 58.0334 159.005C57.817 158.967 57.6121 158.88 57.4335 158.752C57.2548 158.623 57.107 158.457 57.0008 158.264C56.0371 155.581 60.8179 154.44 60.8179 154.44L63.0447 154.344L63.475 154.323L68.889 154.088L69.1506 152.595C69.1506 152.595 67.3918 152.761 64.6314 152.982C63.0792 153.109 61.1896 153.25 59.1486 153.385C53.4454 153.764 52.0893 157.471 52.0893 157.471C52.0893 157.471 51.3975 158.264 52.3164 159.119Z" fill="#3F3D56"/>
<path d="M118.555 94.3971C118.592 94.479 118.636 94.5574 118.686 94.6316L120.001 96.5626L123.422 96.9074L123.46 95.5488L124.035 75.108C124.035 75.108 126.403 61.3981 121.928 62.1878C117.454 62.9774 120.262 75.108 120.262 75.108C120.262 75.108 119.753 81.2596 119.395 83.1078C119.047 84.894 117.488 92.1558 118.555 94.3971Z" fill="#FBBEBE"/>
<path d="M110.876 145.168L111.85 146.837L114.029 150.571C114.029 150.571 117.98 152.023 118.992 150.916C119.547 150.313 120.145 148.206 120.565 146.433C120.909 144.999 121.14 143.789 121.14 143.789L110.876 145.168Z" fill="#FBBEBE"/>
<path opacity="0.1" d="M110.876 145.168L111.85 146.837C111.912 146.784 111.967 146.725 112.016 146.661C113.117 145.254 117.967 146.361 120.565 146.451C120.909 145.016 121.14 143.806 121.14 143.806L110.876 145.168Z" fill="black"/>
<path opacity="0.1" d="M61.3204 158.937C62.0212 158.905 62.7235 158.944 63.4165 159.054C64.1599 159.316 65.4816 154.792 65.4816 154.792L63.4922 154.323L68.9062 154.088L69.1678 152.595C69.1678 152.595 67.409 152.761 64.6487 152.982C64.0783 153.311 63.5693 153.736 63.1446 154.24L63.062 154.344C61.9089 155.761 61.4821 157.588 61.3204 158.937Z" fill="black"/>
<path opacity="0.1" d="M103.989 218.204L105.507 219.21C107.772 218.8 109.84 218.155 110.085 217.142C110.086 217.126 110.086 217.109 110.085 217.093C109.603 216.721 109.283 216.438 109.283 216.438L103.989 218.204Z" fill="black"/>
<path opacity="0.1" d="M99.501 219.859C101.501 219.759 103.494 219.545 105.469 219.217C104.289 218.893 103.09 218.643 101.879 218.469C100.41 218.311 99.6559 219.566 99.501 219.859Z" fill="black"/>
<path d="M61.4856 160.678C61.4856 161.778 64.511 162.481 64.511 162.481L73.7249 170.698C73.7249 170.698 79.5141 173.291 83.1969 177.026C86.8797 180.76 90.1288 177.553 90.1288 177.553C94.0319 176.588 105.273 162.964 105.273 162.964C105.273 162.964 105.535 178.522 106.061 179.663C106.588 180.805 105.886 183.925 105.579 185.246C105.386 186.347 105.312 187.467 105.359 188.584C105.359 188.584 101.15 204.711 101.501 206.118C101.852 207.525 99.2188 214.118 99.2188 214.118V219.611C99.2188 219.611 109.527 219.214 110.095 216.886C110.663 214.559 107.51 213.545 107.51 213.545V212.973C109.575 211.918 109.964 204.67 109.964 204.67C109.964 204.67 113.038 195.704 113.475 194.211C113.912 192.718 113.475 190.473 113.475 190.473L113.781 188.543C113.781 188.543 114.439 187.222 114.439 186.96C114.525 186.291 114.782 185.655 115.186 185.115C115.667 184.543 114.659 183.181 114.659 183.181L115.537 180.894V178.391L117.602 169.295C117.602 169.295 119.753 158.702 119.006 155.23C118.259 151.757 119.884 150.002 119.884 150.002C116.363 151.851 114.587 147.737 114.005 145.968C113.857 145.513 113.785 145.209 113.785 145.209C113.785 145.209 108.949 143.423 104.447 143.851C103.533 143.925 102.632 144.116 101.766 144.42C96.7647 146.223 95.9766 153.692 95.9766 153.692L91.5469 160.461C89.2649 166.481 85.8437 167.095 85.8437 167.095C85.8437 167.095 77.8172 161.692 77.5832 161.426C77.3492 161.161 74.2928 159.843 74.2928 159.843C73.9314 159.206 73.3785 158.699 72.713 158.395C71.6597 157.954 71.5737 156.326 71.5737 156.326C71.4429 152.502 69.2057 152.188 69.2057 152.188C61.4408 151.54 61.4856 159.581 61.4856 160.678Z" fill="#3F3D56"/>
<path d="M106.14 139.192H110.876V124.472H106.14V139.192Z" fill="#F86D70"/>
<path opacity="0.1" d="M106.14 139.192H110.876V124.472H106.14V139.192Z" fill="black"/>
<path opacity="0.1" d="M118.552 94.3661C118.551 94.3764 118.551 94.3868 118.552 94.3971C118.588 94.479 118.632 94.5574 118.683 94.6316L119.997 96.5626L123.419 96.9074L123.456 95.5488C122.389 95.466 119.96 95.173 118.552 94.3661Z" fill="black"/>
<path d="M118.686 94.6316C118.686 94.6316 118.862 102.362 116.931 103.418C115 104.473 114.249 109.969 114.249 109.969C114.249 109.969 120.101 113.824 121.405 115.521C122.71 117.217 125.704 121.258 125.088 122.224C124.472 123.189 126.582 127.586 126.582 127.586C126.582 127.586 122.72 135.496 123.598 138.485C124.475 141.475 124.561 149.382 124.561 149.382H126.231C126.231 149.382 125.704 142.878 125.704 140.241C125.704 137.603 127.456 128.2 127.456 128.2C127.456 128.2 128.248 118.972 127.456 118.71C126.664 118.448 122.018 114.755 121.667 113.083C121.316 111.41 124.124 95.8419 124.124 95.8419C124.124 95.8419 120.527 95.6867 118.686 94.6316Z" fill="#F86D70"/>
<path opacity="0.1" d="M106.051 123.107C106.211 124.182 106.602 125.211 107.197 126.12L110.439 125.569C110.439 125.569 120.176 123.369 122.186 123.189C123.404 123.028 124.592 122.689 125.711 122.182C124.939 119.444 123.434 116.969 121.357 115.028L120.121 113.879C118.3 112.186 116.19 110.834 113.891 109.89C114.036 110.01 124.252 118.748 122.014 120.462C119.777 122.176 113.754 118.003 113.754 118.003L106.904 112.107L106.657 111.893L106.261 112.51C106.462 112.593 106.659 112.688 106.849 112.793C109.184 114.077 110.916 116.234 111.668 118.793C113.076 123.534 106.051 123.107 106.051 123.107Z" fill="black"/>
<path d="M103.944 145.078C103.944 145.078 110.436 148.682 112.012 146.661C112.356 146.216 113.083 146.023 113.988 145.971C113.84 145.516 113.768 145.213 113.768 145.213C113.768 145.213 108.932 143.427 104.43 143.854C104.134 144.599 103.944 145.078 103.944 145.078Z" fill="#444053"/>
<path d="M106.932 111.9L114.029 118.017C114.029 118.017 120.028 122.203 122.29 120.476C124.551 118.748 114.163 109.9 114.163 109.9C116.457 110.847 118.565 112.195 120.39 113.879L121.625 115.028C124.875 118.045 125.608 118.045 125.718 122.479C125.745 123.572 125.374 125.141 125.088 125.424C124.035 126.458 123.298 133.972 123.46 134.851C123.622 135.73 121.498 143.32 122.186 145.43C122.875 147.54 113.582 144.375 112.009 146.399C110.436 148.423 103.944 144.816 103.944 144.816C103.944 144.816 107.541 135.585 108.419 134.972C109.297 134.358 110.35 129.61 108.419 127.413C106.488 125.217 106.316 123.107 106.316 123.107C106.316 123.107 113.337 123.541 111.93 118.8C111.534 117.426 110.847 116.153 109.915 115.069C108.984 113.985 107.83 113.114 106.533 112.517L106.932 111.9Z" fill="#E8E8F0"/>
<path opacity="0.1" d="M116.404 127.458C116.404 127.458 113.682 132.599 110.161 133.934C110.047 133.975 109.937 134.013 109.816 134.048C106.14 135.168 116.679 129.051 116.404 127.458Z" fill="black"/>
<path d="M78.3301 81.9733C78.3301 81.9733 79.6449 85.3146 80.6981 86.456C81.7513 87.5973 89.5575 99.0245 89.5575 99.0245L90.2183 100.404L90.7862 101.58L95.7872 101.052L96.1314 99.0314L95.9387 98.797C95.4362 98.1935 94.0663 96.5729 93.1473 95.866C92.0081 94.9902 89.7261 92.0903 89.7261 92.0903C89.7261 92.0903 82.6221 84.7043 82.0955 82.6837C81.5689 80.663 74.4614 68.5462 72.885 70.6426C71.3087 72.7391 78.3301 81.9733 78.3301 81.9733Z" fill="#FBBEBE"/>
<g opacity="0.1">
<path opacity="0.1" d="M92.841 136.327C92.2407 136.275 91.6365 136.362 91.0753 136.582C89.8362 137.185 89.6022 138.816 88.9138 140.013C88.1084 141.413 86.5734 142.278 84.9935 142.599C84.6795 142.66 84.3624 142.704 84.0436 142.73C85.0498 142.828 86.0647 142.784 87.0587 142.599C88.6385 142.278 90.1736 141.413 90.9789 140.013C91.6673 138.816 91.9014 137.185 93.1404 136.582C93.4658 136.435 93.8165 136.353 94.173 136.341L92.841 136.327Z" fill="black"/>
<path opacity="0.1" d="M105.067 109.876C105.067 107.135 106.846 104.773 108.312 102.459C109.778 100.145 111.011 97.2246 109.851 94.742C108.859 92.6213 102.884 89.7766 99.4356 90.3387C102.812 90.7766 106.973 93.0041 107.786 94.742C108.946 97.2246 107.713 100.145 106.247 102.459C104.781 104.773 102.995 107.135 103.001 109.876C103.001 113.414 102.764 116.083 101.793 119.5C101.515 120.483 104.203 121.969 103.79 122.9C102.392 126.003 103.046 129.582 102.822 132.975C102.818 133.638 102.656 134.291 102.351 134.879C101.663 136.013 100.251 136.306 98.8781 136.368H100.079C101.683 136.368 103.587 136.244 104.416 134.868C104.721 134.28 104.883 133.628 104.888 132.965C105.111 129.572 104.457 125.989 105.855 122.889C106.275 121.958 103.58 120.476 103.858 119.489C104.829 116.096 105.073 113.414 105.067 109.876Z" fill="black"/>
</g>
<path opacity="0.1" d="M90.2183 100.397L90.7862 101.573L95.7873 101.045L96.1315 99.0246L95.9387 98.7901C95.4052 99.0522 91.4092 100.98 90.2183 100.397Z" fill="black"/>
<path opacity="0.1" d="M108.684 113.614C108.684 113.614 107.455 111.683 106.753 112.207C106.051 112.731 105.779 110.624 105.376 110.976C104.974 111.328 103.8 112.307 103.311 110.938C102.929 109.848 98.7714 102.955 97.0848 100.183C96.6512 99.4659 96.3793 99.0245 96.3793 99.0245C96.3793 99.0245 91.6433 101.397 90.504 100.607V102.276L91.4677 102.366L96.6305 112.021C96.6305 112.021 98.2551 114.61 98.1449 115.514C98.0348 116.417 100.227 120.372 100.578 120.634C100.929 120.896 104.709 125.293 104.709 125.293C104.709 125.293 106.639 134.786 104.97 137.423C103.301 140.061 100.41 141.992 100.41 141.992C100.41 141.992 99.5389 144.54 99.6662 144.806C99.7936 145.071 98.6543 146.213 99.1809 146.564C99.7075 146.916 100.41 149.375 100.41 149.375C100.41 149.375 102.867 145.42 104.196 144.806C105.524 144.192 107.225 136.103 107.225 136.103C107.225 136.103 107.71 131.337 107.748 128.262C107.786 125.186 107.631 113.614 108.684 113.614Z" fill="black"/>
<path d="M108.419 113.614C108.419 113.614 107.194 111.683 106.491 112.207C105.789 112.731 105.514 110.624 105.115 110.976C104.715 111.328 103.542 112.307 103.05 110.938C102.664 109.848 98.5063 102.955 96.8233 100.183L96.1177 99.0245C96.1177 99.0245 91.3817 101.397 90.239 100.607V102.276L91.2061 102.366L96.3689 112.021C96.3689 112.021 97.9969 114.61 97.8834 115.514C97.7698 116.417 99.9485 120.372 100.317 120.634C100.685 120.896 104.447 125.293 104.447 125.293C104.447 125.293 106.378 134.786 104.712 137.423C103.832 138.748 102.762 139.936 101.535 140.947C100.505 141.799 99.7801 142.963 99.4701 144.265C99.4103 144.442 99.3892 144.63 99.4081 144.816C99.5355 145.078 98.3962 146.223 98.9228 146.575C99.4494 146.927 100.158 149.395 100.158 149.395C100.158 149.395 102.616 145.44 103.944 144.827C105.273 144.213 106.977 136.123 106.977 136.123C106.977 136.123 107.459 131.358 107.5 128.282C107.541 125.206 107.386 113.614 108.419 113.614Z" fill="#F86D70"/>
<path opacity="0.1" d="M96.3999 153.606C96.3999 153.606 100.086 154.295 101.563 155.361C103.039 156.426 95.949 153.692 95.949 153.692L96.3999 153.606Z" fill="black"/>
<path opacity="0.1" d="M105.263 162.964C105.263 162.964 109.107 166.174 108.419 169.074C107.731 171.974 105.955 179.27 105.955 179.27L105.263 162.964Z" fill="black"/>
<path opacity="0.1" d="M71.6391 156.792C71.6391 156.792 66.2216 157.385 66.5726 158.088C66.9237 158.792 71.6391 157.44 71.6391 157.44V156.792Z" fill="black"/>
<path opacity="0.1" d="M113.238 183.487C113.238 183.487 113.582 183.925 111.572 183.487C109.562 183.05 111.045 181.698 111.045 181.698L113.238 183.487Z" fill="black"/>
<path opacity="0.1" d="M112.549 189.553C112.549 189.553 109.796 189.991 108.319 189.553C106.843 189.115 112.549 189.553 112.549 189.553Z" fill="black"/>
<path opacity="0.1" d="M106.884 213.283C106.884 213.283 106.402 212.756 103.989 213.721C101.576 214.687 100.613 214.731 99.9106 214.411C99.2085 214.09 106.884 213.283 106.884 213.283Z" fill="black"/>
<path opacity="0.1" d="M109.562 156.044L106.14 160.812C106.14 160.812 107.982 156.637 109.562 156.044Z" fill="black"/>
<path opacity="0.1" d="M102.912 112.207C102.912 112.207 102.764 113.79 100.558 114.407C98.3515 115.024 97.9315 115.524 97.9315 115.524" fill="black"/>
<path opacity="0.1" d="M97.1778 100.735C97.1778 100.735 94.2659 102.804 91.2268 102.366L97.1778 100.735Z" fill="black"/>
<path opacity="0.1" d="M99.3943 145.033C99.3943 145.033 100.244 145.568 102.286 143.23L99.3943 145.033Z" fill="black"/>
<path opacity="0.1" d="M120.593 120.245C120.675 119.817 120.379 119.42 120.101 119.086L119.529 118.396C119.418 118.255 119.292 118.126 119.154 118.01C118.81 117.745 118.369 117.665 118.011 117.427" fill="black"/>
<path opacity="0.1" d="M305.394 0.0379253C305.394 0.0379253 276.417 -1.71374 279.824 18.6305C279.824 18.6305 279.136 22.2269 282.399 23.8579C282.399 23.8579 282.45 22.351 285.372 22.8648C286.413 23.0376 287.47 23.0885 288.522 23.0165C289.943 22.9182 291.294 22.359 292.37 21.4235C292.37 21.4235 300.517 18.0512 303.683 4.71365C303.683 4.71365 306.027 1.80339 305.934 1.05514L301.043 3.14817C301.043 3.14817 302.716 6.68255 301.387 9.62039C301.387 9.62039 301.229 3.27576 300.289 3.41368C300.1 3.44472 297.749 4.63779 297.749 4.63779C297.749 4.63779 300.623 10.7928 298.455 15.2685C298.455 15.2685 299.278 7.68252 296.851 5.0826L293.409 7.09633C293.409 7.09633 296.768 13.4548 294.49 18.6443C294.49 18.6443 295.075 10.6859 292.683 7.58597L289.565 10.0238C289.565 10.0238 292.721 16.2926 290.797 20.5959C290.797 20.5959 290.546 11.3307 288.89 10.6307C288.89 10.6307 286.161 13.0444 285.744 14.0306C285.744 14.0306 287.906 18.5822 286.563 20.9821C286.563 20.9821 285.741 14.8099 285.066 14.7754C285.066 14.7754 282.347 18.8649 282.065 21.6717C282.065 21.6717 282.182 17.5029 284.409 14.3892C284.409 14.3892 281.779 14.8409 280.244 16.5478C280.244 16.5478 280.667 13.6582 285.08 13.4065C285.08 13.4065 287.327 10.3031 287.926 10.1135C287.926 10.1135 283.541 9.74797 280.881 10.9272C280.881 10.9272 283.221 8.19974 288.732 9.44108L291.812 6.92047C291.812 6.92047 286.037 6.13084 283.586 7.00323C283.586 7.00323 286.405 4.58951 292.642 6.34807L295.994 4.34124C295.994 4.34124 291.069 3.27921 288.136 3.65161C288.136 3.65161 291.234 1.97925 296.978 3.79298L299.388 2.71371C299.388 2.71371 295.781 2.00338 294.724 1.88959C293.667 1.7758 293.612 1.48616 293.612 1.48616C295.897 1.10439 298.244 1.36582 300.389 2.24131C300.389 2.24131 305.483 0.358605 305.394 0.0379253Z" fill="#00B0FF"/>
<path opacity="0.1" d="M269.653 5.21365C269.653 5.21365 256.574 4.42057 258.106 13.6134C258.106 13.6134 257.8 15.2409 259.266 15.9788C259.266 15.9788 259.29 15.2892 260.612 15.5271C261.081 15.6063 261.558 15.6294 262.033 15.5961C262.675 15.5523 263.286 15.2992 263.771 14.8754C263.771 14.8754 267.454 13.3548 268.886 7.32738C268.886 7.32738 269.942 6.01017 269.901 5.67225L267.692 6.61705C267.692 6.61705 268.449 8.217 267.853 9.54455C267.853 9.54455 267.781 6.67567 267.358 6.74463C267.272 6.74463 266.208 7.29634 266.208 7.29634C266.208 7.29634 267.509 10.079 266.528 12.1031C266.528 12.1031 266.9 8.67561 265.802 7.49978L264.246 8.4101C264.246 8.4101 265.768 11.2824 264.735 13.6272C264.735 13.6272 265 10.0307 263.919 8.63078L262.512 9.74454C262.512 9.74454 263.936 12.5789 263.069 14.5203C263.069 14.5203 262.955 10.3342 262.205 10.0204C262.205 10.0204 260.973 11.11 260.784 11.5583C260.784 11.5583 261.761 13.6272 261.155 14.6961C261.155 14.6961 260.784 11.9065 260.467 11.8962C260.467 11.8962 259.242 13.7444 259.111 14.9996C259.172 13.8282 259.538 12.6931 260.171 11.7066C259.462 11.8411 258.808 12.1803 258.288 12.6824C258.288 12.6824 258.481 11.379 260.474 11.2617C260.474 11.2617 261.506 9.86178 261.761 9.77557C261.761 9.77557 259.779 9.61006 258.577 10.1445C258.577 10.1445 259.634 8.91008 262.126 9.4549L263.503 8.317C263.503 8.317 260.894 7.97218 259.786 8.35493C259.786 8.35493 261.059 7.26531 263.878 8.05839L265.392 7.15152C265.392 7.15152 263.169 6.66877 261.84 6.84463C261.84 6.84463 263.241 6.08603 265.836 6.9067L266.921 6.4205C266.921 6.4205 265.289 6.09638 264.811 6.0481C264.332 5.99983 264.308 5.86535 264.308 5.86535C265.341 5.69315 266.402 5.81255 267.371 6.21017C267.371 6.21017 269.695 5.35847 269.653 5.21365Z" fill="#00B0FF"/>
<path d="M315.341 224.393C322.984 224.393 329.181 223.343 329.181 222.048C329.181 220.753 322.984 219.704 315.341 219.704C307.697 219.704 301.501 220.753 301.501 222.048C301.501 223.343 307.697 224.393 315.341 224.393Z" fill="#00B0FF"/>
<path d="M321.065 218.214C321.697 217.698 322.156 217.002 322.383 216.218C322.555 215.428 322.218 214.493 321.46 214.187C320.614 213.862 319.709 214.452 319.024 215.045C318.339 215.638 317.551 216.318 316.656 216.19C317.117 215.77 317.462 215.238 317.657 214.646C317.853 214.053 317.892 213.42 317.771 212.807C317.732 212.554 317.625 212.315 317.461 212.118C316.989 211.614 316.139 211.828 315.575 212.225C313.785 213.487 313.286 215.924 313.276 218.114C313.097 217.324 313.248 216.5 313.245 215.7C313.241 214.9 313.018 213.976 312.333 213.552C311.91 213.324 311.435 213.213 310.956 213.228C310.154 213.197 309.256 213.28 308.708 213.869C308.02 214.6 308.202 215.828 308.794 216.628C309.386 217.428 310.292 217.942 311.125 218.497C311.791 218.895 312.359 219.438 312.787 220.086C312.839 220.177 312.88 220.273 312.911 220.373H317.957C319.085 219.797 320.131 219.071 321.065 218.214Z" fill="#00B0FF"/>
</g>
<defs>
<linearGradient id="paint0_linear" x1="278.279" y1="174.108" x2="278.279" y2="35.3886" gradientUnits="userSpaceOnUse">
<stop stop-color="#808080" stop-opacity="0.25"/>
<stop offset="0.54" stop-color="#808080" stop-opacity="0.12"/>
<stop offset="1" stop-color="#808080" stop-opacity="0.1"/>
</linearGradient>
<linearGradient id="paint1_linear" x1="13716.3" y1="86405.9" x2="30716.3" y2="86405.9" gradientUnits="userSpaceOnUse">
<stop stop-color="#808080" stop-opacity="0.25"/>
<stop offset="0.54" stop-color="#808080" stop-opacity="0.12"/>
<stop offset="1" stop-color="#808080" stop-opacity="0.1"/>
</linearGradient>
<clipPath id="clip0">
<rect width="393.75" height="225" fill="white"/>
</clipPath>
</defs>
</svg>
