<svg width="430" height="292" viewBox="0 0 430 292" fill="none" xmlns="http://www.w3.org/2000/svg">
<g clip-path="url(#clip0)">
<path opacity="0.1" d="M232.651 42.6748C206.226 42.633 180.765 34.4176 156.405 25.275C132.046 16.1324 107.88 5.93719 81.9331 1.56348C65.2251 -1.24846 46.2767 -1.05846 33.2634 8.92772C20.7438 18.5377 17.1591 34.486 15.4428 49.2373C14.1555 60.3254 13.5783 71.9722 18.5451 82.1331C21.9969 89.1896 27.8826 95.0111 32.0483 101.741C46.5425 125.148 37.9416 154.94 23.9828 178.811C17.4325 189.986 9.75824 200.713 4.81798 212.554C-0.122284 224.394 -2.12345 237.831 2.98009 249.546C8.04566 261.162 19.4375 269.633 31.623 275.412C56.4154 287.192 85.2253 289.783 113.264 290.836C175.342 293.169 237.515 289.012 299.525 284.832C322.472 283.289 345.521 281.731 367.986 277.122C380.46 274.565 393.299 270.753 402.123 262.333C413.325 251.647 415.573 234.149 407.367 221.545C393.599 200.383 357.464 196.294 347.553 173.426C342.096 160.837 346.729 146.447 353.575 134.34C368.267 108.391 393.614 85.1807 393.959 56.1037C394.195 36.1313 380.923 16.6112 361.162 7.87135C340.444 -1.30165 312.253 0.955496 297.812 17.8575C282.942 35.2612 255.985 42.7128 232.651 42.6748Z" fill="#00B0FF"/>
<path d="M364.098 237.875C364.098 237.875 359.431 234.793 354.806 236.986C354.806 236.986 356.23 239.733 362.086 239.471L364.098 237.875Z" fill="#00B0FF"/>
<path d="M364.672 238.042C364.672 238.042 366.092 243.453 362.534 247.135C362.534 247.135 360.392 244.901 362.534 239.437L364.672 238.042Z" fill="#00B0FF"/>
<path d="M370.493 232.848C370.493 232.848 370.147 228.242 359.766 229.77C359.766 229.77 359.716 232.741 363.362 234.147C367.007 235.553 368.674 234.368 370.493 232.848Z" fill="#00B0FF"/>
<path d="M371.131 232.813C371.131 232.813 375.524 234.227 371.609 243.974C371.609 243.974 368.712 243.324 368.192 239.448C367.671 235.572 369.228 234.227 371.131 232.813Z" fill="#00B0FF"/>
<path d="M377.013 226.285C377.013 226.285 377.605 218.712 366.992 219.491C366.992 219.491 366.232 226.331 375.137 228.105L377.013 226.285Z" fill="#00B0FF"/>
<path d="M384.026 217.735C384.026 217.735 382.568 209.155 371.962 211.712C371.962 211.712 371.921 219.134 382.291 219.783L384.026 217.735Z" fill="#00B0FF"/>
<path d="M389.149 208.897C389.149 208.897 386.715 200.537 376.204 203.041C376.204 203.041 378.703 210.557 388.45 210.443L389.149 208.897Z" fill="#00B0FF"/>
<path d="M394.017 200.267C394.017 200.267 391.636 191.592 381.486 194.187C381.486 194.187 384.873 202.429 393.349 201.738L394.017 200.267Z" fill="#00B0FF"/>
<path d="M397.157 192.067C397.157 192.067 395.327 181.473 385.876 183.806C385.876 183.806 388.625 193.458 396.47 193.61L397.157 192.067Z" fill="#00B0FF"/>
<path d="M400.096 182.16C400.096 182.16 397.902 171.464 388.325 174.561C388.325 174.561 392.08 184.665 399.421 183.62L400.096 182.16Z" fill="#00B0FF"/>
<path d="M401.919 172.938C401.919 172.938 398.429 162.245 391.028 162.534C391.028 162.534 394.598 173.831 401.281 175.074L401.919 172.938Z" fill="#00B0FF"/>
<path d="M403.077 163.944C403.077 163.944 399.28 151.07 393.257 152.061C393.257 152.061 395.885 161.903 402.865 165.946L403.077 163.944Z" fill="#00B0FF"/>
<path d="M403.723 153.197C403.723 153.197 400.165 142.467 394.23 142.041C394.23 142.041 396.652 152.597 403.601 155.983L403.723 153.197Z" fill="#00B0FF"/>
<path d="M404.456 143.192C404.456 143.192 400.017 132.45 396.102 132.211C396.102 132.211 398.027 142.782 404.076 144.955L404.456 143.192Z" fill="#00B0FF"/>
<path d="M404.946 133.875C404.946 133.875 402.204 122.194 398.293 121.244C398.293 121.244 398.832 130.782 404.554 134.745L404.946 133.875Z" fill="#00B0FF"/>
<path d="M406.423 121.681C406.423 121.681 403.552 112.386 400.374 110.969C400.374 110.969 401.004 121.928 405.69 123.957L406.423 121.681Z" fill="#00B0FF"/>
<path d="M407.649 113.675L408.23 97.2817C408.23 97.2817 402.299 109.65 407.212 116.566L407.649 113.675Z" fill="#00B0FF"/>
<path d="M412.24 97.3843C412.24 97.3843 416.516 85.4108 417.556 84.7458C417.556 84.7458 409.164 92.509 409.985 102.503L412.24 97.3843Z" fill="#00B0FF"/>
<path d="M377.301 226.232C377.301 226.232 384.828 225.244 384.6 235.891C384.6 235.891 377.799 236.997 375.581 228.196L377.301 226.232Z" fill="#00B0FF"/>
<path d="M384.379 217.45C384.379 217.45 393.079 217.42 392.354 228.318C392.354 228.318 385.055 229.621 382.644 219.506L384.379 217.45Z" fill="#00B0FF"/>
<path d="M389.232 209.592C389.232 209.592 397.127 205.887 402.181 215.448C402.181 215.448 394.887 218.537 388.538 211.135L389.232 209.592Z" fill="#00B0FF"/>
<path d="M394.195 200.347C394.195 200.347 402.276 196.403 407.023 205.747C407.023 205.747 398.604 208.65 393.527 201.825L394.195 200.347Z" fill="#00B0FF"/>
<path d="M397.055 192.295C397.055 192.295 404.835 184.858 411.044 192.382C411.044 192.382 403.096 198.5 396.694 193.952L397.055 192.295Z" fill="#00B0FF"/>
<path d="M399.656 181.906C399.656 181.906 407.486 174.306 413.645 182.255C413.645 182.255 404.858 188.499 399.379 183.502L399.656 181.906Z" fill="#00B0FF"/>
<path d="M401.122 172.634C401.122 172.634 407.152 163.134 414.249 165.258C414.249 165.258 407.995 175.317 401.19 174.868L401.122 172.634Z" fill="#00B0FF"/>
<path d="M402.899 163.883C402.899 163.883 408.974 151.917 414.72 154.003C414.72 154.003 410.341 163.199 402.743 165.901L402.899 163.883Z" fill="#00B0FF"/>
<path d="M403.317 152.593C403.317 152.593 409.563 143.177 415.415 144.325C415.415 144.325 410.311 153.874 402.713 155.318L403.317 152.593Z" fill="#00B0FF"/>
<path d="M403.795 142.979C403.795 142.979 408.633 132.416 412.57 132.321C412.57 132.321 410.247 142.816 404.118 144.758L403.795 142.979Z" fill="#00B0FF"/>
<path d="M404.752 133.643C404.752 133.643 410.133 122.943 414.177 122.924C414.177 122.924 411.424 132.07 404.934 134.585L404.752 133.643Z" fill="#00B0FF"/>
<path d="M405.565 122.338C405.565 122.338 409.59 113.485 412.92 112.481C412.92 112.481 410.907 123.273 406.005 124.687L405.565 122.338Z" fill="#00B0FF"/>
<path d="M408.131 113.363L417.123 99.6528C417.123 99.6528 414.822 113.177 406.818 115.992L408.131 113.363Z" fill="#00B0FF"/>
<path d="M414.306 98.4863C414.306 98.4863 424.76 91.2664 425.136 90.0961C425.136 90.0961 419.819 100.211 409.947 101.997L414.306 98.4863Z" fill="#00B0FF"/>
<path d="M414.929 95.2374C414.929 95.2374 426.932 83.6894 429.996 83.7046C429.996 83.7046 420.097 84.1568 414.64 94.6218L414.929 95.2374Z" fill="#00B0FF"/>
<path d="M405.678 124.052L406.115 124.109C408.371 106.44 411.659 95.9897 415.377 94.7054L415.232 94.2912C411.295 95.6591 407.991 105.949 405.678 124.052Z" fill="#444053"/>
<path d="M402.363 166.296L403.024 166.353C403.161 164.704 403.267 163.013 403.339 161.333C403.97 146.707 404.949 133.282 406.233 123.216L405.853 122.741C404.566 132.826 403.313 146.662 402.682 161.303C402.606 162.975 402.5 164.654 402.363 166.296Z" fill="#444053"/>
<path d="M351.772 246.288C351.89 246.235 363.521 241.04 375.593 228.641C382.664 221.38 388.541 213.044 393.003 203.942C398.581 192.568 401.984 178.592 403.127 165.015L402.439 165.338C399.876 195.81 386.012 216.637 374.985 227.976C363.031 240.265 351.533 245.41 351.419 245.456L351.772 246.288Z" fill="#444053"/>
<path d="M398.224 18.574H33.3515C32.4894 18.574 31.6626 18.9167 31.0531 19.5267C30.4435 20.1367 30.101 20.9641 30.101 21.8267V31.3037H401.475V21.8267C401.475 20.9641 401.132 20.1367 400.523 19.5267C399.913 18.9167 399.086 18.574 398.224 18.574Z" fill="#3F3D56"/>
<path d="M30.101 31.3037V244.57C30.101 246.31 30.7915 247.978 32.0207 249.208C33.2498 250.438 34.9169 251.129 36.6551 251.129H394.921C396.659 251.129 398.326 250.438 399.555 249.208C400.784 247.978 401.475 246.31 401.475 244.57V31.3037H30.101Z" fill="white"/>
<path opacity="0.8" d="M35.9868 26.36C36.8257 26.36 37.5057 25.6795 37.5057 24.8401C37.5057 24.0006 36.8257 23.3201 35.9868 23.3201C35.1479 23.3201 34.4679 24.0006 34.4679 24.8401C34.4679 25.6795 35.1479 26.36 35.9868 26.36Z" fill="#FA5959"/>
<path opacity="0.8" d="M40.1638 26.36C41.0027 26.36 41.6827 25.6795 41.6827 24.8401C41.6827 24.0006 41.0027 23.3201 40.1638 23.3201C39.3249 23.3201 38.6449 24.0006 38.6449 24.8401C38.6449 25.6795 39.3249 26.36 40.1638 26.36Z" fill="#FED253"/>
<path opacity="0.8" d="M44.3408 26.36C45.1797 26.36 45.8597 25.6795 45.8597 24.8401C45.8597 24.0006 45.1797 23.3201 44.3408 23.3201C43.502 23.3201 42.8219 24.0006 42.8219 24.8401C42.8219 25.6795 43.502 26.36 44.3408 26.36Z" fill="#8CCF4D"/>
<g opacity="0.3">
<path opacity="0.3" d="M387.615 44.2196H44.3408V238.015H387.615V44.2196Z" stroke="#3F3D56" stroke-miterlimit="10"/>
<path opacity="0.3" d="M342.807 44.2196H89.1487V238.015H342.807V44.2196Z" stroke="#3F3D56" stroke-miterlimit="10"/>
<path opacity="0.3" d="M297.999 44.2196H133.957V238.015H297.999V44.2196Z" stroke="#3F3D56" stroke-miterlimit="10"/>
<path opacity="0.3" d="M253.191 44.2196H178.764V238.015H253.191V44.2196Z" stroke="#3F3D56" stroke-miterlimit="10"/>
<path opacity="0.3" d="M215.978 44.2196V238.015" stroke="#3F3D56" stroke-miterlimit="10"/>
<path opacity="0.3" d="M387.615 72.339H44.3408V209.896H387.615V72.339Z" stroke="#3F3D56" stroke-miterlimit="10"/>
<path opacity="0.3" d="M387.615 100.078H44.3408V182.157H387.615V100.078Z" stroke="#3F3D56" stroke-miterlimit="10"/>
<path opacity="0.3" d="M387.615 127.818H44.3408V154.417H387.615V127.818Z" stroke="#3F3D56" stroke-miterlimit="10"/>
</g>
<path opacity="0.1" d="M125.033 55.0494H98.0723V64.9292H125.033V55.0494Z" fill="#3F3D56"/>
<path opacity="0.1" d="M76.0481 82.0288H55.9225V91.9086H76.0481V82.0288Z" fill="#3F3D56"/>
<path opacity="0.1" d="M168.702 55.0494H141.741V64.9292H168.702V55.0494Z" fill="#3F3D56"/>
<path opacity="0.1" d="M209.712 55.0494H182.752V64.9292H209.712V55.0494Z" fill="#3F3D56"/>
<path opacity="0.1" d="M247.685 55.0494H220.724V64.9292H247.685V55.0494Z" fill="#3F3D56"/>
<path opacity="0.1" d="M290.215 55.0494H263.254V64.9292H290.215V55.0494Z" fill="#3F3D56"/>
<path opacity="0.1" d="M333.504 55.0494H306.543V64.9292H333.504V55.0494Z" fill="#3F3D56"/>
<path opacity="0.1" d="M379.451 55.0494H352.49V64.9292H379.451V55.0494Z" fill="#3F3D56"/>
<path d="M168.949 108.609H151.432V125.58H168.949V108.609Z" fill="url(#paint0_linear)"/>
<path d="M168.649 108.902H151.735V125.287H168.649V108.902Z" fill="#7CFCFF"/>
<path d="M205.038 104.931H187.521V121.901H205.038V104.931Z" fill="url(#paint1_linear)"/>
<path d="M204.738 105.224H187.825V121.609H204.738V105.224Z" fill="#FFFFA5"/>
<path d="M274.528 162.69H257.011V179.66H274.528V162.69Z" fill="url(#paint2_linear)"/>
<path d="M274.228 162.982H257.315V179.368H274.228V162.982Z" fill="#FFFFA5"/>
<path d="M120.26 78.3657H102.743V95.3361H120.26V78.3657Z" fill="url(#paint3_linear)"/>
<path d="M119.956 78.6583H103.043V95.0435H119.956V78.6583Z" fill="#FFFFA5"/>
<path d="M155.066 102.685H137.549V119.656H155.066V102.685Z" fill="url(#paint4_linear)"/>
<path d="M154.762 102.978H137.849V119.363H154.762V102.978Z" fill="#FF69B4"/>
<path d="M295.018 162.568H277.501V179.539H295.018V162.568Z" fill="url(#paint5_linear)"/>
<path d="M294.718 162.861H277.805V179.246H294.718V162.861Z" fill="#7CFCFF"/>
<path d="M325.776 78.5899H308.259V95.5603H325.776V78.5899Z" fill="url(#paint6_linear)"/>
<path d="M325.476 78.8825H308.563V95.2677H325.476V78.8825Z" fill="#7CFCFF"/>
<path d="M323.877 132.549H306.361V149.519H323.877V132.549Z" fill="url(#paint7_linear)"/>
<path d="M323.577 132.841H306.664V149.227H323.577V132.841Z" fill="#7CFCFF"/>
<path d="M337.168 136.349H319.651V153.319H337.168V136.349Z" fill="url(#paint8_linear)"/>
<path d="M336.868 136.641H319.955V153.026H336.868V136.641Z" fill="#7CFCFF"/>
<path d="M281.135 156.644H263.618V173.614H281.135V156.644Z" fill="url(#paint9_linear)"/>
<path d="M280.832 156.937H263.918V173.322H280.832V156.937Z" fill="#FF69B4"/>
<path d="M283.034 105.345H265.517V122.316H283.034V105.345Z" fill="url(#paint10_linear)"/>
<path d="M282.73 105.638H265.817V122.023H282.73V105.638Z" fill="#FF69B4"/>
<path opacity="0.1" d="M76.0481 108.628H55.9225V118.508H76.0481V108.628Z" fill="#3F3D56"/>
<path opacity="0.1" d="M76.0481 136.368H55.9225V146.247H76.0481V136.368Z" fill="#3F3D56"/>
<path opacity="0.1" d="M76.0481 164.107H55.9225V173.987H76.0481V164.107Z" fill="#3F3D56"/>
<path opacity="0.1" d="M76.0481 191.846H55.9225V201.726H76.0481V191.846Z" fill="#3F3D56"/>
<path opacity="0.1" d="M76.0481 219.586H55.9225V229.466H76.0481V219.586Z" fill="#3F3D56"/>
<path d="M117.059 133.408C117.621 133.05 117.397 132.093 116.819 131.762C116.242 131.432 115.525 131.542 114.875 131.671C114.903 131.505 114.877 131.335 114.802 131.185C114.727 131.035 114.607 130.912 114.458 130.835V130.691C114.837 130.311 114.693 129.551 114.23 129.216C113.766 128.882 113.045 128.867 112.422 128.897C112.466 128.519 112.421 128.136 112.289 127.78C112.157 127.423 111.942 127.103 111.663 126.845C111.554 126.728 111.405 126.656 111.245 126.644C110.865 126.644 110.759 127.13 110.732 127.491C110.66 128.439 110.504 129.379 110.265 130.299L98.4634 150.059C97.1496 151.959 101.232 146.259 99.9178 148.178C99.2523 149.222 98.4729 150.19 97.5938 151.062C96.8046 151.767 95.9216 152.359 94.9699 152.821C94.3344 152.84 93.7086 152.662 93.1776 152.312C92.5109 151.845 91.928 151.268 91.4536 150.606C90.4249 149.297 89.4945 147.914 88.6702 146.468C88.3845 146.01 88.1694 145.512 88.0323 144.99C87.8576 144.169 88.0323 143.28 87.7095 142.508C87.5722 142.221 87.4014 141.95 87.2007 141.703L86.3843 140.62V140.57C86.2931 138.967 84.9907 137.728 83.7755 136.672C82.7427 135.767 81.6225 134.825 80.2593 134.65C79.5302 134.555 78.7821 134.696 78.053 134.604C77.4569 134.528 76.8911 134.304 76.2987 134.205C75.7286 134.128 75.1513 134.116 74.5785 134.171L74.3355 133.947C75.5958 133.414 76.6664 132.514 77.4075 131.363C77.9695 130.455 78.2771 129.406 78.7973 128.471C79.4315 127.331 80.3732 126.389 81.0757 125.295C82.7731 122.699 83.0844 119.359 82.3971 116.334C81.7098 113.31 80.0998 110.562 78.2201 108.111C74.5747 103.392 68.4611 101.652 62.7045 102.564C62.3247 102.624 61.945 102.697 61.5653 102.78C60.5968 102.984 59.6515 103.286 58.7439 103.681C57.5158 104.184 56.4502 105.016 55.6643 106.086C55.4524 106.399 55.273 106.732 55.1289 107.082C55.0228 107.349 54.9365 107.623 54.8707 107.902C54.6941 108.747 54.6467 109.613 54.7302 110.471C54.753 110.764 54.7833 111.056 54.8175 111.349L54.8745 111.79C54.9124 112.082 54.9542 112.375 54.996 112.668C55.0567 113.108 55.1137 113.549 55.1555 113.982C55.1889 114.289 55.2054 114.597 55.2048 114.906C55.2048 114.986 55.2048 115.061 55.2048 115.137C55.1914 115.367 55.1571 115.595 55.1023 115.818C55.0724 115.94 55.0343 116.061 54.9884 116.179C54.8516 116.528 54.6717 116.858 54.453 117.163C54.1572 117.576 53.8363 117.971 53.4923 118.345L53.1619 118.725C53.0518 118.85 52.9454 118.979 52.8353 119.105C52.4012 119.611 52.004 120.148 51.6468 120.712C51.4725 120.996 51.3165 121.29 51.1797 121.594C51.0758 121.824 50.9858 122.06 50.9101 122.3C50.8135 122.623 50.7448 122.954 50.705 123.288C50.705 123.372 50.7051 123.456 50.6823 123.539C50.6823 123.703 50.6823 123.87 50.6823 124.037C50.6906 124.202 50.7083 124.367 50.7354 124.531C50.7622 124.693 50.8002 124.853 50.8493 125.01C50.8969 125.169 50.9566 125.324 51.0278 125.473C51.0278 125.515 51.0658 125.557 51.0886 125.599L51.1493 125.724C51.1911 125.808 51.2329 125.887 51.2708 125.971C51.3282 126.092 51.3703 126.22 51.3962 126.351C51.3962 126.393 51.3962 126.438 51.3962 126.484C51.3962 126.53 51.3962 126.583 51.3962 126.628C51.3357 127.01 51.1354 127.356 50.8342 127.597C50.7582 127.67 50.6823 127.734 50.6025 127.803L50.481 127.901L50.2342 128.095L49.9988 128.285C49.7919 128.459 49.6001 128.649 49.4254 128.855C47.2872 128.741 45.144 128.951 43.0687 129.478C42.3314 129.719 41.565 129.858 40.7904 129.893C40.6045 129.91 40.4172 129.881 40.2451 129.809C40.0729 129.737 39.9211 129.623 39.8031 129.478C39.6715 129.193 39.6355 128.874 39.7005 128.566C39.8029 127.294 39.5944 126.016 39.093 124.842C38.9718 124.499 38.7622 124.194 38.4854 123.957C38.3444 123.842 38.1706 123.775 37.989 123.766C37.8075 123.756 37.6276 123.805 37.4753 123.904C38.1176 125.983 38.0251 128.22 37.2133 130.238C36.7964 131.19 36.3077 132.108 35.7514 132.986C34.8856 134.464 34.3995 136.155 33.6287 137.686C34.4907 140.608 34.297 143.728 34.7679 146.745C35.1894 149.553 36.1691 152.244 37.1526 154.907C37.912 156.918 38.7019 159.015 40.3119 160.429C40.8308 160.953 41.5308 161.257 42.2675 161.28C42.8128 161.212 43.3339 161.014 43.7864 160.702C44.256 160.446 44.689 160.128 45.0737 159.756C45.216 159.6 45.3431 159.431 45.4534 159.251C45.5006 159.505 45.5973 159.748 45.7382 159.965C46.6647 157.966 47.6824 156.013 48.776 154.102C49.1018 153.928 49.4074 153.719 49.6874 153.479C49.6874 153.547 49.7216 153.615 49.7405 153.684C49.6912 153.866 49.6456 154.064 49.5962 154.235C49.5469 154.406 49.4899 154.588 49.4368 154.759C49.3836 154.93 49.357 155.014 49.3152 155.139C49.2735 155.265 49.2127 155.443 49.1558 155.595C49.0988 155.747 49.0343 155.926 48.9697 156.089C48.9051 156.253 48.8824 156.325 48.833 156.439C48.7153 156.728 48.5938 157.009 48.4533 157.29C48.5591 157.342 48.6682 157.386 48.7798 157.423L48.852 157.446C48.9504 157.477 49.0506 157.502 49.152 157.522H49.2621C49.3363 157.533 49.4111 157.541 49.4861 157.545H49.5697H49.8165C50.0882 157.533 50.3574 157.487 50.6177 157.408L50.7658 158.016C51.1446 159.382 51.3888 160.782 51.4949 162.196C51.567 163.792 51.2898 165.414 51.5974 166.984C51.7531 167.801 52.0683 168.583 52.1822 169.404C52.2556 170.177 52.2416 170.956 52.1404 171.726C51.9632 173.59 51.786 175.456 51.6088 177.323C51.5925 178.008 51.4294 178.682 51.1303 179.299C50.8683 179.755 50.443 180.276 50.7089 180.728C51.1465 180.611 51.5919 180.526 52.0417 180.473C51.8784 181.066 51.7303 181.663 51.5898 182.263C51.4528 182.709 51.4165 183.18 51.4835 183.642C51.5784 184.076 51.8632 184.467 51.8936 184.908C51.962 185.592 51.4873 186.196 51.2253 186.831C50.557 188.449 51.2671 190.273 51.9847 191.877L54.0808 196.634L55.801 200.537C56.3098 201.677 56.8225 202.855 57.3199 204.025C59.5616 209.354 61.3922 214.847 62.7956 220.456C62.8425 220.711 62.9392 220.953 63.0804 221.17C63.369 221.55 63.8968 221.672 64.3259 221.908C65.6132 222.618 65.7613 224.739 64.5841 225.62C64.8233 228.478 62.6855 231.24 61.5843 233.885C59.0477 239.965 59.5071 246.827 58.6376 253.363L59.6211 252.79C59.7377 252.842 59.8453 252.913 59.94 252.999C59.9172 253.12 59.8907 253.247 59.8603 253.379C59.7272 253.934 59.5149 254.468 59.2299 254.963C58.6565 255.947 57.7794 256.825 57.6465 257.957C57.5667 258.641 57.7756 259.325 57.7718 260.013C57.7718 260.078 57.7718 260.139 57.7718 260.203C57.6844 260.12 57.5515 260.127 57.3541 260.283C57.045 260.608 56.8309 261.011 56.7351 261.45C56.5643 261.94 56.4276 262.438 56.2908 262.935L55.782 264.691C55.5222 265.749 55.178 266.785 54.7529 267.788C54.3894 268.459 54.0845 269.161 53.8416 269.885C53.7062 270.476 53.6538 271.082 53.6859 271.687C53.6759 272.266 53.7593 272.843 53.9327 273.396C54.1607 273.941 54.4995 274.432 54.9278 274.839C55.3561 275.245 55.8642 275.558 56.42 275.756C57.5322 276.147 58.6973 276.368 59.8755 276.41C60.1775 276.449 60.4838 276.44 60.783 276.383C61.1035 276.291 61.4019 276.135 61.6602 275.923C63.2627 274.745 64.0905 272.58 64.2348 270.604C64.1942 270.196 64.1218 269.792 64.0183 269.395C64.117 267.233 63.8019 265.059 63.9651 262.905C63.9993 263.152 64.0335 263.395 64.0715 263.638L64.4512 266.059C64.4289 265.973 64.3844 265.894 64.3221 265.831C64.041 266.727 63.9914 267.68 64.1778 268.601C64.3671 269.517 64.6339 270.416 64.9752 271.288L65.4917 272.731C65.6161 273.167 65.8251 273.574 66.1068 273.928C66.5587 274.426 67.246 274.612 67.9067 274.772C69.327 275.187 70.7891 275.442 72.266 275.532C72.4635 275.555 72.6633 275.518 72.8394 275.426C72.9298 275.359 73.016 275.286 73.0976 275.209C73.2288 275.115 73.3687 275.033 73.5153 274.966C74.1498 274.632 74.6293 274.063 74.8519 273.381C74.9588 273.042 74.992 272.684 74.9495 272.331C74.9069 271.977 74.7895 271.637 74.6051 271.333C74.4325 271.077 74.2354 270.837 74.0165 270.619L71.4192 267.864C71.0221 267.392 70.5987 266.943 70.1509 266.519C70.0975 266.464 70.0316 266.423 69.9588 266.399C69.8861 266.375 69.8087 266.369 69.7332 266.382C69.0269 264.619 69.118 262.559 69.2396 260.625C69.2775 260.047 69.5927 258.85 69.718 257.866C70.219 257.697 70.6858 257.44 71.0964 257.106C71.4923 256.817 71.7733 256.397 71.8901 255.921C73.2001 249.225 75.3076 242.735 77.2974 236.21C77.4948 235.568 77.6771 234.922 77.8784 234.28C77.9619 234.007 78.0379 233.729 78.1176 233.452C78.1973 233.174 78.2505 233.003 78.3151 232.779C78.4214 232.399 78.5277 232.019 78.6302 231.639C78.6606 231.537 78.6872 231.434 78.7176 231.331C78.7158 231.311 78.7158 231.291 78.7176 231.271C78.8429 230.803 78.9644 230.336 79.0973 229.868C79.1429 229.686 79.1922 229.511 79.2378 229.329C79.3859 228.736 79.534 228.136 79.6745 227.539C79.6976 227.457 79.7154 227.373 79.7276 227.288C79.7789 227.077 79.7644 226.856 79.6859 226.654C79.648 226.575 79.5981 226.504 79.5378 226.441C79.496 226.392 79.4504 226.342 79.4049 226.297C79.3593 226.251 79.3061 226.19 79.2606 226.133C79.1407 225.986 79.0504 225.817 78.9948 225.635C78.9948 225.453 78.9948 225.255 78.9948 225.088C78.9948 224.921 78.972 224.708 78.9606 224.511C79.0013 224.254 79.0583 224 79.1315 223.751C79.177 223.602 79.2264 223.454 79.272 223.306C79.3175 223.158 79.3859 222.926 79.4466 222.755C79.6738 222.496 79.797 222.161 79.7922 221.816C80.0276 221.229 80.2871 220.652 80.5706 220.087C80.9204 219.515 81.1563 218.88 81.2655 218.218C81.2639 217.62 81.19 217.024 81.0453 216.443C80.6656 213.973 81.8048 211.568 82.644 209.223C83.2665 207.494 83.7391 205.714 84.0565 203.904C84.3034 202.517 84.4742 201.061 85.2147 199.86C85.4591 199.523 85.6678 199.162 85.8375 198.781C85.9524 198.384 86.0087 197.972 86.0045 197.558C86.098 195.88 86.5037 194.234 87.2007 192.705C87.3551 192.409 87.4603 192.089 87.5121 191.759C87.5141 191.738 87.5141 191.716 87.5121 191.694V191.603L87.7057 191.573C88.0361 189.479 88.3703 187.146 88.1424 185.037C87.8461 182.594 86.6572 180.347 84.8046 178.729H84.8426C85.4957 178.399 85.7881 177.589 85.7995 176.875C85.8011 176.333 85.6811 175.799 85.4484 175.31C85.2157 174.821 84.8763 174.391 84.4553 174.051C84.267 173.934 84.1104 173.772 83.9996 173.58C83.9366 173.383 83.9172 173.174 83.9426 172.968C83.9457 172.348 83.7643 171.741 83.4215 171.224C83.0786 170.707 82.5899 170.304 82.0174 170.065C81.8986 170.032 81.7901 169.97 81.7022 169.883C81.6047 169.715 81.5748 169.517 81.6187 169.328C81.6539 168.711 81.5201 168.096 81.2317 167.55C80.9432 167.003 80.5112 166.546 79.9821 166.227C80.134 165.414 80.2859 164.563 80.0542 163.765C79.8226 162.967 79.0745 162.245 78.2543 162.359C78.9226 160.535 77.9733 158.506 78.2239 156.579C78.334 155.751 78.6644 154.957 78.7062 154.125C78.7442 153.365 78.5581 152.551 78.9264 151.89C79.2948 151.229 80.1643 150.712 79.9403 149.99C79.8454 149.683 79.5606 149.47 79.4277 149.17C79.2948 148.869 79.8264 148.41 80.0998 148.577C80.2289 148.478 80.358 148.375 80.4795 148.269C80.5191 148.655 80.5954 149.037 80.7073 149.409C80.8934 150.032 81.1782 150.617 81.3719 151.237C81.6681 152.183 81.7516 153.209 82.2301 154.075C82.9895 155.462 84.5958 156.15 85.6818 157.301C86.3197 157.974 86.7792 158.821 87.4361 159.46C87.9351 159.926 88.4825 160.337 89.069 160.687L92.5776 162.967C92.9416 163.231 93.3471 163.433 93.7776 163.564C94.0506 163.616 94.3315 163.612 94.6029 163.551C94.8743 163.491 95.1306 163.377 95.3563 163.214C95.5819 163.052 95.7721 162.845 95.9152 162.606C96.0584 162.368 96.1515 162.103 96.1889 161.827C95.8662 161.713 95.5722 161.53 95.3269 161.291C95.3762 161.291 95.4256 161.291 95.475 161.269C96.3084 161.05 97.0795 160.641 97.7268 160.072C100.225 158.08 102.021 155.363 103.776 152.692C105.614 149.892 114.458 142.482 114.458 142.482V139.48C115.583 138.827 116.581 137.976 117.404 136.968C117.848 136.43 118.108 135.764 118.145 135.068C118.162 134.712 118.066 134.36 117.871 134.062C117.676 133.763 117.391 133.534 117.059 133.408ZM43.5054 140.608C43.3358 141.7 43.1269 142.784 42.8789 143.861C42.6056 145.106 42.2556 146.334 41.8308 147.536L41.6941 147.916C41.5688 147.68 41.4435 147.448 41.3144 147.209C41.0296 146.612 40.798 145.993 40.5549 145.373L39.0892 141.422C38.8993 140.909 38.7094 140.316 38.9942 139.845C39.203 139.556 39.4943 139.337 39.8296 139.218C40.8602 138.745 41.9367 138.379 43.0421 138.127C43.3917 138.057 43.7366 137.965 44.075 137.853C43.8025 138.753 43.6119 139.675 43.5054 140.608ZM45.1268 135.668C45.078 135.581 45.0523 135.482 45.0523 135.382C45.0523 135.281 45.078 135.182 45.1268 135.095C45.2366 134.984 45.3652 134.894 45.5066 134.829L45.6167 134.753C45.4648 135.068 45.2939 135.372 45.1268 135.68V135.668ZM48.1647 131.371C47.7336 131.729 47.3416 132.131 46.9951 132.572C46.6233 133.063 46.2883 133.581 45.9926 134.122C46.0374 133.912 46.022 133.693 45.9481 133.492C45.8742 133.29 45.7448 133.113 45.5749 132.982C45.4405 132.908 45.3133 132.822 45.1952 132.724C45.0683 132.554 45.0138 132.341 45.0437 132.132C45.0736 131.922 45.1855 131.733 45.3547 131.606C45.7041 131.367 46.1126 131.227 46.5356 131.204L48.2862 130.945C48.233 131.093 48.1988 131.238 48.1609 131.382L48.1647 131.371ZM64.5537 258.535C64.5846 258.01 64.5501 257.483 64.4512 256.966C64.6676 256.966 64.8841 256.966 65.0967 256.966C64.9183 257.471 64.736 258.007 64.5537 258.535Z" fill="url(#paint11_linear)"/>
<path d="M62.769 103.704C59.7312 104.194 56.3516 105.364 55.1744 108.214C54.2973 110.369 54.977 112.793 55.201 115.107C55.286 115.718 55.2641 116.339 55.1365 116.942C54.8859 117.919 54.1947 118.709 53.5264 119.466C52.598 120.426 51.8185 121.52 51.2139 122.711C50.6671 123.927 50.4924 125.371 51.0582 126.587C51.2507 126.899 51.3797 127.246 51.4379 127.609C51.4759 128.399 50.6481 128.901 50.0405 129.406C47.7622 131.306 47.8571 134.726 47.8381 137.701C47.8031 143.768 46.4572 149.756 43.8927 155.253C44.8538 155.74 45.9393 155.926 47.0076 155.787C48.0759 155.647 49.0772 155.188 49.881 154.47C49.5653 155.821 49.1097 157.136 48.5216 158.392C50.4506 159.327 52.7784 157.792 53.7467 155.876C54.715 153.961 54.8289 151.735 55.5162 149.702C56.2035 147.669 57.4148 145.902 57.9503 143.853C58.1211 143.177 58.2275 142.455 58.6414 141.893C58.9901 141.486 59.4001 141.136 59.8565 140.855C61.8594 139.409 63.3609 137.372 64.1512 135.03C66.5131 135.551 68.9244 136.075 71.3319 135.855C73.7393 135.634 76.2 134.544 77.4721 132.484C78.0341 131.576 78.3378 130.531 78.8581 129.596C79.496 128.456 80.4339 127.514 81.1364 126.423C82.83 123.828 83.1414 120.495 82.4541 117.471C81.7668 114.446 80.1757 111.71 78.2771 109.259C74.6393 104.532 68.5257 102.78 62.769 103.704Z" fill="#303D5C"/>
<path d="M43.5966 141.71C43.4257 142.797 43.2168 143.884 42.9738 144.959C42.6982 146.203 42.3483 147.429 41.9258 148.63C41.6773 149.156 41.5638 149.736 41.5954 150.317C41.6703 150.673 41.8079 151.013 42.0017 151.32C43.3877 153.786 45.2636 156.169 45.4192 158.996C45.4572 159.699 45.4192 160.463 45.799 161.044C46.8698 158.736 48.052 156.487 49.3456 154.296C50.6975 152.016 52.2012 149.683 52.5885 147.045C52.743 145.808 52.7264 144.555 52.5391 143.321C52.3607 141.935 52.0493 140.513 51.2063 139.404C50.2874 138.203 47.7887 136.39 46.1445 136.767C44.2345 137.204 43.8396 140.164 43.5966 141.71Z" fill="#FC6681"/>
<path d="M92.5397 155.002C94.3548 154.261 96.2078 153.482 97.647 152.145C98.526 151.273 99.3055 150.305 99.9709 149.261L104.243 143.093C105.253 141.627 106.297 140.088 106.521 138.321C109.023 135.678 110.53 132.247 110.786 128.616C110.816 128.255 110.937 127.78 111.298 127.768C111.458 127.78 111.607 127.852 111.716 127.97C111.995 128.227 112.209 128.547 112.341 128.903C112.473 129.259 112.519 129.641 112.475 130.018C113.098 129.988 113.774 129.972 114.283 130.337C114.792 130.702 114.928 131.606 114.382 131.907C114.565 131.962 114.721 132.083 114.821 132.246C114.921 132.409 114.958 132.603 114.925 132.792C115.578 132.663 116.295 132.556 116.873 132.883C117.45 133.21 117.67 134.167 117.112 134.525C117.437 134.651 117.716 134.874 117.91 135.165C118.103 135.455 118.203 135.798 118.194 136.147C118.159 136.844 117.899 137.511 117.454 138.047C115.813 140.251 112.92 141.14 111.017 143.124C110.392 143.817 109.832 144.567 109.343 145.362L103.833 153.752C102.082 156.412 100.286 159.137 97.7875 161.12C97.1403 161.689 96.3692 162.099 95.5357 162.317C95.1183 162.423 94.6807 162.417 94.2659 162.302C93.8511 162.187 93.4734 161.966 93.17 161.66C92.6194 161.033 92.5359 160.14 92.4827 159.3C92.3916 157.887 92.6346 156.427 92.5397 155.002Z" fill="#EE8E9E"/>
<path d="M74.0887 271.531C74.3084 271.748 74.5056 271.988 74.6773 272.245C74.8616 272.549 74.9789 272.888 75.0215 273.241C75.0641 273.593 75.0309 273.951 74.9241 274.289C74.704 274.971 74.2254 275.538 73.5912 275.87C73.443 275.937 73.3018 276.018 73.1698 276.113C73.089 276.193 73.0027 276.267 72.9115 276.334C72.7343 276.423 72.5355 276.46 72.3381 276.44C70.863 276.347 69.4025 276.092 67.9827 275.68C67.3295 275.517 66.6384 275.331 66.1828 274.837C65.9011 274.482 65.692 274.075 65.5676 273.64L65.0512 272.199C64.7121 271.329 64.4466 270.432 64.2575 269.517C64.0691 268.597 64.1188 267.645 64.4018 266.75C64.5299 266.911 64.5971 267.111 64.5917 267.317C64.7437 268.286 65.1237 269.206 65.7005 269.999C65.821 270.198 65.9665 270.381 66.1334 270.543C66.5109 270.833 66.957 271.02 67.4283 271.086C68.3353 271.283 69.2577 271.402 70.1851 271.44C70.3135 271.457 70.4442 271.441 70.5648 271.394C70.7137 271.311 70.8262 271.176 70.88 271.014C71.0128 270.646 71.0128 270.242 70.88 269.874C70.6294 269.171 69.9421 268.711 69.6155 268.042C69.3687 267.548 69.7066 267.005 70.2079 267.423C70.6578 267.846 71.0826 268.295 71.48 268.768L74.0887 271.531Z" fill="#303D5C"/>
<path d="M69.3155 261.548C69.1674 263.87 69.0649 266.378 70.3332 268.327C70.7927 269.027 71.404 269.616 71.9243 270.273C72.2226 270.602 72.4203 271.009 72.4938 271.447C72.566 272.298 71.7686 273.028 70.9294 273.187C70.0902 273.347 69.232 273.081 68.4194 272.807C67.6504 272.616 66.9266 272.275 66.2891 271.804C65.1841 270.87 64.8917 269.312 64.6714 267.883L64.155 264.562C63.7638 262.883 63.9291 261.122 64.6259 259.546L65.4765 257.053C65.5321 256.811 65.6655 256.593 65.8562 256.434C66.0541 256.325 66.2817 256.282 66.5055 256.312C67.3181 256.354 69.3725 256.65 69.7674 257.513C70.1016 258.261 69.3725 260.655 69.3155 261.548Z" fill="#EE8E9E"/>
<path opacity="0.05" d="M69.3155 261.548C69.1674 263.87 69.0649 266.378 70.3332 268.327C70.7927 269.027 71.404 269.616 71.9243 270.273C72.2226 270.602 72.4203 271.009 72.4938 271.447C72.566 272.298 71.7686 273.028 70.9294 273.187C70.0902 273.347 69.232 273.081 68.4194 272.807C67.6504 272.616 66.9266 272.275 66.2891 271.804C65.1841 270.87 64.8917 269.312 64.6714 267.883L64.155 264.562C63.7638 262.883 63.9291 261.122 64.6259 259.546L65.4765 257.053C65.5321 256.811 65.6655 256.593 65.8562 256.434C66.0541 256.325 66.2817 256.282 66.5055 256.312C67.3181 256.354 69.3725 256.65 69.7674 257.513C70.1016 258.261 69.3725 260.655 69.3155 261.548Z" fill="black"/>
<path d="M87.569 192.728C87.5707 192.75 87.5707 192.771 87.569 192.793C87.5208 193.121 87.4154 193.439 87.2577 193.731C86.5606 195.256 86.1537 196.898 86.0577 198.572C86.0619 198.986 86.0056 199.398 85.8906 199.796C85.7203 200.175 85.5116 200.535 85.2679 200.871C84.5274 202.076 84.3565 203.531 84.1097 204.911C83.7915 206.714 83.3189 208.486 82.6971 210.208C81.8503 212.556 80.7112 214.958 81.0985 217.427C81.2431 218.008 81.3171 218.604 81.3187 219.202C81.2105 219.863 80.9745 220.497 80.6238 221.068C80.3403 221.63 80.0871 222.207 79.8644 222.797C79.6175 223.428 79.3973 224.074 79.2036 224.727C78.9758 225.521 78.8239 226.464 79.3479 227.102C79.5108 227.258 79.6548 227.433 79.777 227.623C79.8757 227.913 79.8757 228.229 79.777 228.519C79.4758 229.786 79.1543 231.053 78.8125 232.319C78.5467 233.307 78.2657 234.288 77.9771 235.268C75.843 242.439 73.4204 249.537 71.9926 256.882C71.7876 257.938 70.4319 258.695 69.3839 258.926C68.8561 259.039 68.3091 259.025 67.7877 258.886C67.2663 258.747 66.7853 258.486 66.384 258.125C66.3119 258.06 66.2435 257.988 66.179 257.919C65.0778 256.734 64.9145 254.914 64.998 253.272C65.3777 245.714 69.175 238.794 70.9825 231.449C71.6363 228.793 72.0305 226.08 72.1597 223.348C72.5812 214.228 72.7521 204.584 70.1737 195.817C69.6383 193.993 69.0042 191.934 69.9687 190.3C70.5762 189.266 71.704 188.655 72.8204 188.214C75.0972 187.326 77.5283 186.902 79.971 186.967C82.4137 187.033 84.8188 187.586 87.045 188.594C87.0487 188.776 87.0411 188.959 87.0222 189.141C86.9256 189.99 87.0243 190.851 87.3108 191.656C87.4583 191.996 87.5456 192.359 87.569 192.728Z" fill="#303D5C"/>
<path d="M56.3478 263.885L55.8656 265.641C55.6087 266.697 55.2658 267.73 54.8403 268.73C54.4767 269.402 54.1718 270.104 53.929 270.828C53.7936 271.418 53.7412 272.024 53.7733 272.629C53.7633 273.207 53.8466 273.783 54.0201 274.335C54.2474 274.879 54.5857 275.37 55.0133 275.775C55.441 276.181 55.9485 276.493 56.5035 276.691C57.6156 277.082 58.7808 277.302 59.959 277.341C60.2608 277.383 60.5673 277.375 60.8666 277.318C61.187 277.226 61.4855 277.069 61.7437 276.858C63.3462 275.684 64.1702 273.518 64.3145 271.538C64.2731 271.077 64.1827 270.621 64.0449 270.178C63.9196 270.011 62.7083 270.695 63.2285 271.269C63.9879 272.112 61.7513 271.675 60.6122 271.603C60.1118 271.56 59.6154 271.479 59.1274 271.36L57.2819 270.98C56.6782 270.851 55.9833 270.642 55.763 270.064C55.5428 269.486 56.0137 268.795 56.3782 268.232C57.3427 266.739 57.5933 264.911 57.8174 263.148C57.8591 262.802 58.292 260.557 57.3997 261.248C57.0933 261.575 56.8797 261.978 56.7807 262.415C56.6174 262.89 56.4807 263.387 56.3478 263.885Z" fill="#303D5C"/>
<path opacity="0.05" d="M79.3289 227.106C78.8049 226.468 78.9492 225.525 79.1884 224.731C79.272 224.435 79.3669 224.142 79.4656 223.849L72.2204 221.395C72.1939 222.048 72.1635 222.694 72.1331 223.34C72.0068 226.074 71.6138 228.788 70.9597 231.445C69.1484 238.787 65.3474 245.706 64.9752 253.261C64.8879 255.001 65.074 256.947 66.3612 258.117C66.7617 258.478 67.242 258.74 67.7627 258.88C68.2834 259.02 68.8298 259.034 69.3573 258.923C70.4091 258.691 71.761 257.931 71.9698 256.874C73.4052 249.529 75.8165 242.435 77.9543 235.257C78.6201 233.03 79.2201 230.785 79.7542 228.523C79.8529 228.234 79.8529 227.92 79.7542 227.63C79.6353 227.438 79.4924 227.262 79.3289 227.106Z" fill="black"/>
<path d="M59.3097 255.921C58.7363 256.909 57.8629 257.783 57.73 258.915C57.6503 259.595 57.8591 260.279 57.8553 260.967C57.8273 261.536 57.7265 262.099 57.5554 262.643C56.8491 265.194 56.0364 267.709 55.1175 270.189C54.9664 270.509 54.8998 270.862 54.9238 271.215C55.015 271.797 55.5808 272.181 56.12 272.412C57.8477 273.149 59.792 273.1 61.6678 273.024C62.2133 273.046 62.7541 272.915 63.2285 272.644C63.9006 272.184 64.0677 271.276 64.1095 270.463C64.2386 268.107 63.8398 265.74 64.1095 263.399C64.2044 262.544 64.3829 261.704 64.5158 260.857C64.7018 259.679 64.7968 258.44 64.4094 257.311C64.0887 256.501 63.64 255.748 63.0804 255.081C62.5866 254.358 61.962 253.734 61.2387 253.242C61.0185 253.112 60.3919 252.71 60.1679 252.961C60.054 253.09 60.1033 253.435 60.0881 253.595C60.0587 253.84 60.0156 254.084 59.959 254.325C59.8203 254.885 59.6016 255.423 59.3097 255.921Z" fill="#EE8E9E"/>
<path opacity="0.05" d="M73.2305 195.669C72.8926 196.129 72.9609 196.767 73.0976 197.322C73.3368 198.325 73.7394 199.287 74.0659 200.263C74.6004 202.017 75.0165 203.804 75.3114 205.614C75.6152 207.248 76.2607 209.068 75.9987 210.713C77.9793 214.485 79.2814 218.577 79.8454 222.801C79.9935 223.884 77.5898 225.282 77.6354 226.372C77.7265 228.546 79.458 228.721 78.1822 230.454C78.1176 230.541 78.6606 232.483 78.5885 232.566C78.0682 233.193 77.4075 233.706 76.8493 234.28C76.1294 235.096 75.5133 235.999 75.0152 236.967C71.7116 242.94 66.9346 249.712 68.408 256.38C68.438 256.621 68.3936 256.864 68.2809 257.078C68.1682 257.292 67.9925 257.466 67.7776 257.577C67.3415 257.787 66.8642 257.898 66.3802 257.9H66.1524C65.0512 256.715 64.8879 254.895 64.9714 253.253C65.3512 245.695 69.1484 238.775 70.9559 231.43C71.6097 228.774 72.0039 226.061 72.1331 223.329C72.5546 214.209 72.7255 204.565 70.1471 195.798C69.6117 193.974 68.9776 191.915 69.9421 190.281C70.5496 189.247 71.6774 188.636 72.7938 188.195C75.0706 187.307 77.5017 186.883 79.9444 186.948C82.3872 187.014 84.7922 187.567 87.0184 188.575C87.0221 188.757 87.0145 188.94 86.9956 189.122C86.899 189.971 86.9977 190.832 87.2842 191.637C87.4434 191.982 87.5399 192.353 87.569 192.732C87.569 192.732 87.6981 191.261 87.6943 191.284C84.7515 191.706 81.6453 193.632 78.6758 194.069C77.1363 194.234 75.6196 194.568 74.1533 195.065C73.796 195.178 73.4767 195.387 73.2305 195.669Z" fill="black"/>
<path d="M52.729 179.489C52.3316 180.756 51.9809 182.035 51.6772 183.327C51.542 183.774 51.5057 184.244 51.5708 184.706C51.6658 185.14 51.9506 185.527 51.9809 185.968C52.0493 186.652 51.5746 187.256 51.3126 187.891C50.6443 189.506 51.3582 191.33 52.0721 192.929L54.1682 197.679L55.8921 201.578C56.4048 202.737 56.9136 203.896 57.411 205.063C59.6515 210.385 61.4808 215.872 62.8829 221.474C62.9301 221.728 63.0255 221.971 63.1639 222.189C63.4563 222.569 63.9841 222.69 64.4094 222.926C65.7005 223.633 65.8486 225.753 64.6676 226.635C64.9107 229.488 62.769 232.243 61.6716 234.888C59.135 240.968 59.5945 247.808 58.7249 254.344L59.7084 253.766C60.6539 254.199 60.6197 255.541 61.1286 256.449C61.888 257.813 63.7563 258.003 65.3056 257.9C65.7884 257.898 66.2646 257.788 66.6992 257.577C66.9144 257.467 67.0904 257.293 67.2032 257.079C67.316 256.864 67.3601 256.621 67.3295 256.38C65.86 249.712 70.6332 242.94 73.9406 236.967C74.4374 235.999 75.0522 235.096 75.7709 234.28C76.3329 233.687 76.9898 233.19 77.5138 232.566C78.972 230.815 79.1581 228.345 79.0593 226.065C78.8278 220.703 77.4143 215.46 74.9203 210.709C75.1861 209.068 74.5406 207.248 74.2368 205.614C73.9407 203.805 73.5208 202.018 72.9799 200.267C72.6533 199.283 72.2546 198.325 72.0116 197.322C71.8787 196.767 71.8065 196.129 72.1445 195.669C72.3942 195.385 72.7175 195.176 73.0786 195.065C74.545 194.568 76.0617 194.234 77.6012 194.069L87.7893 192.606C88.1158 190.513 88.45 188.18 88.2222 186.074C87.9773 184.124 87.1657 182.288 85.8879 180.794C84.6101 179.301 82.9224 178.215 81.0339 177.673C80.5896 177.555 80.0694 177.479 79.7049 177.76C70.7147 175.994 61.4206 176.59 52.729 179.489Z" fill="#303D5C"/>
<path d="M61.9678 124.424C62.1163 125.42 61.9615 126.437 61.5235 127.343C61.2277 127.838 60.8412 128.272 60.3843 128.623C59.3992 129.416 58.2539 129.985 57.0275 130.292C56.306 130.474 55.5086 130.596 55.0188 131.169C54.3049 132.032 54.7833 133.339 55.3985 134.281C56.4541 135.923 57.9199 137.409 59.7995 137.922C61.3184 138.332 62.9019 138.081 64.436 138.347C65.5486 138.541 66.5967 139.001 67.6941 139.263C69.2557 139.621 70.8817 139.582 72.4248 139.152C73.9678 138.721 75.379 137.912 76.5303 136.797C74.8975 135.543 73.2039 134.209 72.3533 132.332C71.7547 130.989 71.6419 129.479 72.0344 128.061C72.4141 126.67 73.3065 125.317 73.033 123.881C72.7596 122.445 71.3622 121.483 69.9952 121.005C68.7402 120.623 67.4504 120.367 66.1448 120.241C65.4271 120.142 60.8704 119.135 60.5856 119.633C60.4261 119.914 61.3716 121.578 61.4893 121.947C61.7669 122.746 61.9281 123.58 61.9678 124.424Z" fill="#EE8E9E"/>
<path d="M67.7131 127.753C72.8176 127.753 76.9556 123.612 76.9556 118.504C76.9556 113.396 72.8176 109.255 67.7131 109.255C62.6085 109.255 58.4705 113.396 58.4705 118.504C58.4705 123.612 62.6085 127.753 67.7131 127.753Z" fill="#EE8E9E"/>
<path d="M62.8298 133.791L69.0991 134.848C70.64 135.161 72.2086 135.319 73.7811 135.319C74.6397 135.233 75.5047 135.233 76.3633 135.319C76.9556 135.418 77.5214 135.642 78.1138 135.718C78.8467 135.809 79.591 135.668 80.3238 135.763C81.6833 135.938 82.8035 136.881 83.8363 137.781C85.0476 138.838 86.3501 140.061 86.445 141.676C86.4621 141.859 86.4361 142.044 86.3691 142.216C86.2501 142.41 86.0908 142.575 85.902 142.702C84.7629 143.648 84.1059 145.058 83.2857 146.304C82.4412 147.59 81.389 148.727 80.1719 149.667C79.8985 149.493 79.3783 149.952 79.496 150.256C79.6137 150.56 79.9137 150.769 80.0125 151.077C80.2365 151.788 79.3593 152.312 78.9948 152.977C78.6302 153.642 78.8163 154.451 78.7783 155.208C78.7328 156.04 78.3986 156.834 78.2961 157.659C78.0417 159.585 78.9948 161.614 78.3227 163.434C79.1467 163.332 79.8909 164.042 80.1226 164.837C80.3542 165.631 80.2061 166.486 80.0504 167.299C80.5796 167.616 81.0122 168.072 81.3013 168.617C81.5904 169.162 81.7251 169.776 81.6909 170.392C81.6586 170.465 81.643 170.544 81.6453 170.623C81.6476 170.703 81.6677 170.781 81.7042 170.852C81.7406 170.923 81.7925 170.984 81.8559 171.032C81.9193 171.08 81.9927 171.113 82.0706 171.129C82.6422 171.368 83.1302 171.77 83.4729 172.287C83.8156 172.803 83.9976 173.409 83.9958 174.029C83.9704 174.236 83.9898 174.446 84.0528 174.644C84.1634 174.834 84.3185 174.995 84.5046 175.112C84.9258 175.45 85.2654 175.88 85.4981 176.368C85.7308 176.856 85.8507 177.39 85.8489 177.931C85.8489 178.665 85.5451 179.451 84.8958 179.782C83.5667 180.458 82.1427 180.72 80.6846 181.036C79.341 181.353 77.9807 181.596 76.6101 181.761C75.3471 181.865 74.0798 181.904 72.8128 181.879L64.4284 181.845C62.0703 181.845 59.7122 181.845 57.3617 181.667C55.1669 181.518 52.9227 181.245 50.7962 181.822C50.5304 181.37 50.9557 180.85 51.2177 180.397C51.5181 179.781 51.6813 179.107 51.6961 178.421L52.2278 172.832C52.3289 172.063 52.3429 171.285 52.2695 170.514C52.1556 169.689 51.8442 168.91 51.6848 168.093C51.381 166.528 51.6582 164.909 51.586 163.313C51.4776 161.899 51.2321 160.499 50.8531 159.133L49.1899 152.293C48.9241 151.195 48.7836 149.918 48.3735 148.873C47.0951 145.58 45.7547 142.322 44.3522 139.1C44.3015 138.958 44.282 138.808 44.2951 138.658C44.3082 138.509 44.3536 138.364 44.4282 138.233L45.8142 135.748C46.185 135.042 46.609 134.365 47.0825 133.723C48.253 132.242 49.9107 131.224 51.7607 130.85C53.6132 130.488 55.5339 130.772 57.2022 131.656C57.8477 132.002 58.4477 132.416 59.1008 132.758C60.221 133.29 61.5881 133.875 62.8298 133.791Z" fill="#FC6681"/>
<path d="M85.0742 139.883L87.2577 142.797C87.4583 143.045 87.6291 143.315 87.7665 143.603C88.0931 144.363 87.9146 145.259 88.0893 146.076C88.2253 146.599 88.4418 147.098 88.731 147.555C89.5518 148.999 90.4797 150.38 91.5068 151.685C91.9814 152.348 92.5657 152.925 93.2346 153.391C93.5696 153.623 93.9505 153.78 94.3515 153.851C94.7525 153.923 95.1641 153.907 95.5585 153.805C95.2286 153.934 94.958 154.18 94.799 154.497C93.9674 156.146 93.9067 158.099 94.2598 159.908C94.3592 160.529 94.5647 161.128 94.8674 161.679C95.1706 162.235 95.6641 162.663 96.2572 162.883C96.2199 163.159 96.1268 163.424 95.9836 163.662C95.8404 163.901 95.6501 164.107 95.4244 164.269C95.1987 164.432 94.9423 164.546 94.6709 164.606C94.3995 164.665 94.1188 164.669 93.8459 164.616C93.4161 164.487 93.0115 164.286 92.6498 164.02L89.1411 161.74C88.5555 161.389 88.0082 160.977 87.5083 160.512C86.8514 159.859 86.3957 159.03 85.7577 158.358C84.6717 157.218 83.0769 156.519 82.3098 155.135C81.8276 154.269 81.744 153.235 81.4478 152.301C81.2542 151.681 80.9694 151.096 80.7833 150.473C80.2061 148.55 80.6238 146.441 81.501 144.636C82.3782 142.831 83.7756 141.418 85.0742 139.883Z" fill="#FC6681"/>
<path d="M76.8455 113.23C75.9901 111.902 74.8864 110.753 73.595 109.844C71.8673 108.556 69.8813 107.484 67.7283 107.363C66.8281 107.317 65.9284 107.463 65.0891 107.792C65.0474 105.182 64.4018 103.441 62.769 103.704C59.7312 104.194 56.3516 105.364 55.1744 108.214C54.2973 110.369 54.977 112.793 55.201 115.107C55.286 115.718 55.2642 116.339 55.1365 116.942C54.8859 117.919 54.1948 118.709 53.5264 119.466C52.598 120.426 51.8185 121.52 51.2139 122.711C50.6671 123.927 50.4924 125.371 51.0582 126.587C51.2507 126.899 51.3797 127.246 51.4379 127.609C51.4759 128.399 50.6481 128.901 50.0405 129.406C47.7622 131.306 47.8571 134.726 47.8381 137.701C47.8031 143.768 46.4572 149.756 43.8927 155.253C44.8538 155.74 45.9393 155.926 47.0076 155.787C48.0759 155.647 49.0772 155.188 49.881 154.47C49.5653 155.821 49.1097 157.136 48.5216 158.392C50.4506 159.327 52.7784 157.792 53.7467 155.876C54.715 153.961 54.8289 151.735 55.5162 149.702C56.2035 147.669 57.4148 145.902 57.9503 143.853C58.1211 143.177 58.2275 142.455 58.6414 141.893C58.9901 141.486 59.4001 141.136 59.8565 140.855C61.8463 139.427 58.9148 128.601 59.6932 126.275C60.8324 126.53 62.9779 120.955 64.1892 115.255C65.034 115.547 65.9351 115.636 66.8207 115.518C67.1286 115.451 67.4445 115.429 67.7586 115.453C68.0503 115.513 68.3284 115.626 68.5788 115.787C69.4752 116.338 70.412 116.819 71.3812 117.227C73.3862 117.987 75.5886 117.877 77.7265 117.771C78.0161 116.2 77.7014 114.578 76.8455 113.23Z" fill="#303D5C"/>
<g opacity="0.1">
<path opacity="0.1" d="M44.9788 155.253C47.5511 149.763 48.9036 143.78 48.9431 137.717C48.9621 134.753 48.8634 131.31 51.1455 129.421C51.7531 128.916 52.5809 128.414 52.5429 127.624C52.4832 127.262 52.3543 126.915 52.1632 126.602C51.5974 125.393 51.7835 123.942 52.3151 122.726C52.9198 121.534 53.7007 120.44 54.6314 119.481C55.296 118.721 55.9909 117.934 56.2377 116.958C56.365 116.354 56.3881 115.734 56.306 115.122C56.0782 112.808 55.4023 110.384 56.2795 108.229C57.4186 105.471 60.6046 104.289 63.5664 103.772C63.3089 103.69 63.0352 103.672 62.769 103.719C59.7312 104.209 56.3516 105.379 55.1744 108.229C54.2973 110.384 54.977 112.808 55.201 115.122C55.286 115.733 55.2642 116.354 55.1365 116.958C54.8859 117.934 54.1948 118.725 53.5264 119.481C52.598 120.441 51.8185 121.535 51.2139 122.726C50.6671 123.942 50.4924 125.386 51.0582 126.602C51.2507 126.914 51.3797 127.262 51.4379 127.624C51.4759 128.414 50.6481 128.916 50.0405 129.421C47.7622 131.321 47.8571 134.741 47.8381 137.717C47.8009 143.778 46.4551 149.76 43.8927 155.253C44.7962 155.72 45.8168 155.912 46.828 155.804C46.1818 155.742 45.5537 155.555 44.9788 155.253Z" fill="black"/>
<path opacity="0.1" d="M49.6076 158.377C50.1918 157.12 50.6436 155.806 50.9557 154.455C50.5658 154.812 50.1224 155.106 49.6418 155.325C49.3455 156.368 48.9645 157.385 48.5026 158.365C49.0581 158.63 49.6834 158.71 50.2874 158.593C50.0526 158.55 49.8242 158.477 49.6076 158.377Z" fill="black"/>
<path opacity="0.1" d="M66.1752 107.792C66.74 107.572 67.3333 107.434 67.9371 107.382H67.7283C67.2051 107.355 66.6807 107.394 66.1676 107.5C66.1714 107.583 66.1752 107.686 66.1752 107.792Z" fill="black"/>
<path opacity="0.1" d="M72.4673 117.216C71.4992 116.808 70.5637 116.326 69.6687 115.776C69.4169 115.615 69.1375 115.501 68.8446 115.442C68.5575 115.416 68.2682 115.434 67.9865 115.495C68.1922 115.57 68.3906 115.664 68.5788 115.776C69.4752 116.326 70.412 116.808 71.3812 117.216C72.8905 117.714 74.4807 117.921 76.0671 117.824C74.8417 117.824 73.6249 117.618 72.4673 117.216Z" fill="black"/>
<path opacity="0.1" d="M65.2752 115.244C65.2752 115.328 65.241 115.411 65.222 115.495C65.6771 115.562 66.1386 115.575 66.5967 115.533C66.1468 115.486 65.7036 115.389 65.2752 115.244Z" fill="black"/>
</g>
<path d="M46.0382 158.137C46.091 158.627 46.0369 159.122 45.8795 159.589C45.7222 160.055 45.4653 160.482 45.1268 160.839C44.7419 161.211 44.309 161.529 43.8396 161.785C43.3867 162.096 42.8657 162.293 42.3207 162.359C41.586 162.335 40.8881 162.032 40.3689 161.512C38.7588 160.098 37.9538 158.004 37.2095 155.994C36.226 153.334 35.2463 150.648 34.8248 147.84C34.373 144.83 34.5666 141.714 33.7046 138.792C34.4641 137.272 34.9577 135.577 35.8273 134.103C36.3792 133.224 36.8677 132.307 37.2893 131.359C38.0967 129.341 38.1879 127.106 37.5475 125.029C37.6998 124.929 37.8797 124.881 38.0612 124.891C38.2427 124.9 38.4165 124.967 38.5576 125.082C38.8336 125.319 39.043 125.624 39.1651 125.967C39.6665 127.14 39.8751 128.416 39.7727 129.687C39.7077 129.993 39.7437 130.312 39.8752 130.596C39.9929 130.741 40.1445 130.855 40.3167 130.928C40.4888 131.001 40.6763 131.03 40.8625 131.014C41.6367 130.975 42.4026 130.836 43.1409 130.599C45.4348 130.014 47.8107 129.817 50.1696 130.018C50.6449 130.032 51.112 130.146 51.5405 130.352C51.7523 130.458 51.9305 130.621 52.0552 130.822C52.18 131.023 52.2463 131.255 52.2467 131.492L46.6268 132.317C46.2037 132.341 45.7953 132.48 45.4458 132.72C45.2777 132.847 45.1666 133.035 45.1367 133.244C45.1069 133.452 45.1606 133.664 45.2863 133.833C45.4051 133.93 45.5321 134.017 45.6661 134.091C45.8102 134.201 45.9262 134.343 46.0047 134.505C46.0831 134.668 46.1217 134.848 46.1173 135.028C46.1128 135.209 46.0655 135.386 45.9791 135.545C45.8927 135.704 45.7698 135.84 45.6205 135.942C45.4791 136.007 45.3505 136.097 45.2408 136.208C45.0129 136.516 45.3167 136.922 45.4154 137.295C45.458 137.57 45.4162 137.851 45.2955 138.101C45.1748 138.352 44.9809 138.559 44.7395 138.697C44.2521 138.965 43.7211 139.143 43.1713 139.225C42.0677 139.48 40.9927 139.845 39.9626 140.316C39.6272 140.435 39.3359 140.654 39.1272 140.943C38.85 141.414 39.0322 142.007 39.2221 142.52L40.6878 146.464C40.9157 147.083 41.1473 147.703 41.4473 148.299C41.827 149.059 42.2789 149.797 42.6624 150.579C43.0459 151.362 43.2966 152.042 43.5776 152.787C44.3104 154.797 45.7876 156.013 46.0382 158.137Z" fill="#EE8E9E"/>
<path d="M114.268 132.549H96.7509V149.519H114.268V132.549Z" fill="url(#paint12_linear)"/>
<path d="M113.968 132.841H97.0546V149.227H113.968V132.841Z" fill="#7CFCFF"/>
<path d="M111.036 131.549C110.724 131.782 110.498 132.112 110.394 132.488C110.371 132.565 110.372 132.648 110.399 132.725C110.425 132.802 110.476 132.868 110.543 132.914C110.627 132.94 110.717 132.94 110.801 132.914C111.221 132.839 111.614 132.654 111.94 132.378C111.811 132.446 111.696 132.539 111.602 132.651C111.556 132.708 111.527 132.777 111.519 132.85C111.511 132.923 111.524 132.996 111.556 133.062C111.603 133.118 111.661 133.165 111.726 133.198C111.792 133.231 111.863 133.251 111.936 133.256C112.478 133.354 113.035 133.328 113.565 133.18C113.318 133.272 113.089 133.407 112.889 133.578C112.79 133.666 112.711 133.774 112.658 133.896C112.605 134.017 112.579 134.149 112.582 134.281C112.582 134.331 112.593 134.381 112.614 134.426C112.635 134.471 112.665 134.511 112.703 134.544C112.758 134.579 112.821 134.601 112.885 134.608C113.388 134.697 113.902 134.697 114.404 134.608C114.534 134.603 114.66 134.566 114.772 134.499C114.883 134.433 114.976 134.34 115.042 134.228C115.068 134.102 115.068 133.973 115.043 133.847C115.017 133.721 114.967 133.601 114.894 133.495C114.625 132.915 114.495 132.28 114.515 131.641C114.531 131.511 114.513 131.38 114.461 131.261C114.378 131.145 114.259 131.058 114.123 131.014C113.588 130.778 112.859 130.451 112.263 130.634C111.798 130.855 111.381 131.166 111.036 131.549Z" fill="#EE8E9E"/>
</g>
<defs>
<linearGradient id="paint0_linear" x1="160.192" y1="125.58" x2="160.192" y2="108.609" gradientUnits="userSpaceOnUse">
<stop stop-color="#808080" stop-opacity="0.25"/>
<stop offset="0.54" stop-color="#808080" stop-opacity="0.12"/>
<stop offset="1" stop-color="#808080" stop-opacity="0.1"/>
</linearGradient>
<linearGradient id="paint1_linear" x1="9241.97" y1="5549.05" x2="9241.97" y2="4791.15" gradientUnits="userSpaceOnUse">
<stop stop-color="#808080" stop-opacity="0.25"/>
<stop offset="0.54" stop-color="#808080" stop-opacity="0.12"/>
<stop offset="1" stop-color="#808080" stop-opacity="0.1"/>
</linearGradient>
<linearGradient id="paint2_linear" x1="12517.1" y1="8186.32" x2="12517.1" y2="7428.42" gradientUnits="userSpaceOnUse">
<stop stop-color="#808080" stop-opacity="0.25"/>
<stop offset="0.54" stop-color="#808080" stop-opacity="0.12"/>
<stop offset="1" stop-color="#808080" stop-opacity="0.1"/>
</linearGradient>
<linearGradient id="paint3_linear" x1="5246.21" y1="4336.08" x2="5246.21" y2="3578.18" gradientUnits="userSpaceOnUse">
<stop stop-color="#808080" stop-opacity="0.25"/>
<stop offset="0.54" stop-color="#808080" stop-opacity="0.12"/>
<stop offset="1" stop-color="#808080" stop-opacity="0.1"/>
</linearGradient>
<linearGradient id="paint4_linear" x1="6886.61" y1="5446.51" x2="6886.61" y2="4688.61" gradientUnits="userSpaceOnUse">
<stop stop-color="#808080" stop-opacity="0.25"/>
<stop offset="0.54" stop-color="#808080" stop-opacity="0.12"/>
<stop offset="1" stop-color="#808080" stop-opacity="0.1"/>
</linearGradient>
<linearGradient id="paint5_linear" x1="13482.8" y1="8180.76" x2="13482.8" y2="7422.86" gradientUnits="userSpaceOnUse">
<stop stop-color="#808080" stop-opacity="0.25"/>
<stop offset="0.54" stop-color="#808080" stop-opacity="0.12"/>
<stop offset="1" stop-color="#808080" stop-opacity="0.1"/>
</linearGradient>
<linearGradient id="paint6_linear" x1="14932.4" y1="4346.31" x2="14932.4" y2="3588.41" gradientUnits="userSpaceOnUse">
<stop stop-color="#808080" stop-opacity="0.25"/>
<stop offset="0.54" stop-color="#808080" stop-opacity="0.12"/>
<stop offset="1" stop-color="#808080" stop-opacity="0.1"/>
</linearGradient>
<linearGradient id="paint7_linear" x1="14842.9" y1="6810.07" x2="14842.9" y2="6052.17" gradientUnits="userSpaceOnUse">
<stop stop-color="#808080" stop-opacity="0.25"/>
<stop offset="0.54" stop-color="#808080" stop-opacity="0.12"/>
<stop offset="1" stop-color="#808080" stop-opacity="0.1"/>
</linearGradient>
<linearGradient id="paint8_linear" x1="15469.3" y1="6983.58" x2="15469.3" y2="6225.68" gradientUnits="userSpaceOnUse">
<stop stop-color="#808080" stop-opacity="0.25"/>
<stop offset="0.54" stop-color="#808080" stop-opacity="0.12"/>
<stop offset="1" stop-color="#808080" stop-opacity="0.1"/>
</linearGradient>
<linearGradient id="paint9_linear" x1="12828.3" y1="7910.26" x2="12828.3" y2="7152.36" gradientUnits="userSpaceOnUse">
<stop stop-color="#808080" stop-opacity="0.25"/>
<stop offset="0.54" stop-color="#808080" stop-opacity="0.12"/>
<stop offset="1" stop-color="#808080" stop-opacity="0.1"/>
</linearGradient>
<linearGradient id="paint10_linear" x1="12917.8" y1="5567.96" x2="12917.8" y2="4810.06" gradientUnits="userSpaceOnUse">
<stop stop-color="#808080" stop-opacity="0.25"/>
<stop offset="0.54" stop-color="#808080" stop-opacity="0.12"/>
<stop offset="1" stop-color="#808080" stop-opacity="0.1"/>
</linearGradient>
<linearGradient id="paint11_linear" x1="10368.5" y1="98436" x2="29187.2" y2="98436" gradientUnits="userSpaceOnUse">
<stop stop-color="#808080" stop-opacity="0.25"/>
<stop offset="0.54" stop-color="#808080" stop-opacity="0.12"/>
<stop offset="1" stop-color="#808080" stop-opacity="0.1"/>
</linearGradient>
<linearGradient id="paint12_linear" x1="4963.98" y1="6810.07" x2="4963.98" y2="6052.17" gradientUnits="userSpaceOnUse">
<stop stop-color="#808080" stop-opacity="0.25"/>
<stop offset="0.54" stop-color="#808080" stop-opacity="0.12"/>
<stop offset="1" stop-color="#808080" stop-opacity="0.1"/>
</linearGradient>
<clipPath id="clip0">
<rect width="430" height="291.503" fill="white"/>
</clipPath>
</defs>
</svg>
